<?xml version="1.0" encoding="utf-8"?>
<!-- Generator: Adobe Illustrator 22.0.0, SVG Export Plug-In . SVG Version: 6.00 Build 0)  -->
<svg version="1.1" xmlns="http://www.w3.org/2000/svg" xmlns:xlink="http://www.w3.org/1999/xlink" x="0px" y="0px"
	 viewBox="0 0 566.9 297.3" style="enable-background:new 0 0 566.9 297.3;" xml:space="preserve">
<style type="text/css">
	.st0{fill:#CD6053;}
	.st1{fill:#889595;}
	.st2{fill:#6C7E7E;}
	.st3{fill:#5F5F71;}
	.st4{opacity:0.1;fill:#0D0E1C;enable-background:new    ;}
	.st5{fill:#FFFFFF;}
	.st6{fill:none;stroke:#2D2211;stroke-miterlimit:10;}
	.st7{fill:#2D2211;}
	.st8{fill:#96C491;}
	.st9{fill:#88BD7F;}
	.st10{fill:#5FA45E;}
	.st11{fill:#E5D16C;}
	.st12{fill:#D3A94E;}
	.st13{fill:#6EA667;}
	.st14{fill:#CB544E;}
	.st15{fill:#CD5C53;}
	.st16{fill:#D88E82;}
	.st17{fill:#674C4B;}
	.st18{fill:#90C06F;}
	.st19{fill:#78A95C;}
	.st20{fill:#D09D68;}
	.st21{fill:#BA8A5F;}
	.st22{fill:#E8C592;}
	.st23{fill:#E0AD71;}
	.st24{fill:#85B85E;}
	.st25{fill:#5EAD66;}
	.st26{fill:#CADEB2;}
	.st27{fill:#A3C985;}
	.st28{fill:#66AF62;}
	.st29{fill:#CD5C56;}
	.st30{fill:#C66E45;}
	.st31{fill:#957EBA;}
	.st32{fill:#AB7554;}
	.st33{fill:#986E56;}
	.st34{fill:#5DAC68;}
	.st35{fill:#57AA64;}
	.st36{fill:#7B60AA;}
	.st37{fill:#6F53A3;}
	.st38{fill:#664D9E;}
	.st39{fill:#8771B3;}
	.st40{fill:#AC9BCB;}
	.st41{fill:#A18FC4;}
</style>
<g id="betterave_x5F_baril">
	<polygon class="st0" points="77.1,182.6 65.6,187.5 52.7,188.9 39.5,187.3 28.3,182.6 28.3,130.4 77.1,130.4 	"/>
	<path class="st0" d="M52.7,121.9c13.5,0,24.4,3.8,24.4,8.5c0,4.7-10.9,8.5-24.4,8.5c-13.5,0-24.4-3.8-24.4-8.5
		C28.3,125.7,39.2,121.9,52.7,121.9z"/>
	<g>
		<path class="st1" d="M52.7,121.9c-13.5,0-24.4,3.8-24.4,8.5v52.1l11.2,4.7l13.2,1.6l12.9-1.4l11.5-4.9v-52.1
			C77.1,125.7,66.2,121.9,52.7,121.9z"/>
	</g>
	<g>
		<path class="st2" d="M28.3,130.4c0,4.7,10.9,8.5,24.4,8.5c13.5,0,24.4-3.8,24.4-8.5v4.7c0,4.7-10.9,8.5-24.4,8.5
			c-13.5,0-24.4-3.8-24.4-8.5V130.4z"/>
	</g>
	<g>
		<path class="st2" d="M28.3,177.9c0,4.7,10.9,8.5,24.4,8.5c13.5,0,24.4-3.8,24.4-8.5v4.7c0,4.7-10.9,8.5-24.4,8.5
			c-13.5,0-24.4-3.8-24.4-8.5V177.9z"/>
	</g>
	<path class="st2" d="M28.3,154.2c0,4.7,10.9,8.5,24.4,8.5c13.5,0,24.4-3.8,24.4-8.5v4.7c0,4.7-10.9,8.5-24.4,8.5
		c-13.5,0-24.4-3.8-24.4-8.5V154.2z"/>
	<path class="st3" d="M42.1,127c3.1,0,5.7,1.5,5.7,3.4c0,1.9-2.5,3.4-5.7,3.4c-3.1,0-5.7-1.5-5.7-3.4C36.5,128.5,39,127,42.1,127z"
		/>
	<path class="st4" d="M34.5,182.6v-4.7v-19.1v-4.7v-19.1v-4.7c0-0.2,0-0.4,0.1-0.7c0.1-0.4,0.2-0.7,0.4-1.1c0.1-0.2,0.3-0.4,0.4-0.6
		c0.2-0.2,0.3-0.4,0.6-0.6c0.1-0.1,0.1-0.1,0.2-0.2c0.1-0.1,0.3-0.3,0.5-0.4c0.2-0.1,0.3-0.3,0.5-0.4c0.4-0.2,0.8-0.5,1.2-0.7
		c0.1-0.1,0.2-0.1,0.3-0.2c0.7-0.3,1.4-0.7,2.2-1c0.5-0.2,1.1-0.4,1.7-0.6c0.4-0.1,0.9-0.3,1.3-0.4c0.2,0,0.3-0.1,0.5-0.1
		c0.3-0.1,0.6-0.2,1-0.2c0.2,0,0.3-0.1,0.5-0.1c0.3-0.1,0.7-0.1,1-0.2c0.3-0.1,0.7-0.1,1-0.2c0.7-0.1,1.4-0.2,2.2-0.3
		c0.4-0.1,0.7-0.1,1.1-0.1c0.4,0,0.7-0.1,1.1-0.1c1.2-0.1,2.4-0.2,3.6-0.3c-1,0-2.1-0.1-3.1-0.1c-2.3,0-4.6,0.1-6.7,0.3
		c-0.4,0-0.7,0.1-1.1,0.1c-0.4,0-0.8,0.1-1.1,0.1c-0.7,0.1-1.5,0.2-2.2,0.3c-0.4,0.1-0.7,0.1-1,0.2c-0.3,0.1-0.7,0.1-1,0.2
		c-0.2,0-0.3,0.1-0.5,0.1c-0.3,0.1-0.6,0.2-1,0.2c-0.2,0-0.3,0.1-0.5,0.1c-0.5,0.1-0.9,0.3-1.3,0.4c-0.6,0.2-1.1,0.4-1.7,0.6
		c-0.8,0.3-1.5,0.6-2.2,1c-0.1,0.1-0.2,0.1-0.3,0.2c-0.4,0.2-0.8,0.5-1.2,0.7c-0.2,0.1-0.3,0.2-0.5,0.4c-0.2,0.1-0.3,0.3-0.5,0.4
		c-0.1,0.1-0.1,0.1-0.2,0.2c-0.2,0.2-0.4,0.4-0.6,0.6c-0.2,0.2-0.3,0.4-0.4,0.6c-0.2,0.3-0.3,0.7-0.4,1.1c0,0.2-0.1,0.4-0.1,0.7v4.7
		v19.1v4.7v19.1v4.7c0,4.7,10.9,8.5,24.4,8.5c1.1,0,2.1,0,3.1-0.1C43.8,190.5,34.5,186.9,34.5,182.6z"/>
	<g>
		<g>
			<path class="st5" d="M36.5,153.5c0,2,0,3.9,0,5.9c0.4-0.1,1.2,0,1.9,0.2c2.7,0.7,3.7,2.4,3.7,5c0,1.9,0,3.9,0,5.8
				c0,2.7-1.4,4.4-4.9,3.4c-3.5-1.1-4.8-3.6-4.8-6.3c0-5.1,0-10.3,0-15.4c0-2.8,1.3-4,4.8-2.9c3.5,1,4.9,3.1,4.9,5.8
				c0,0.9,0,1.7,0,2.6c-1.4-0.3-2.8-0.6-4.2-1c0-0.9,0-1.8,0-2.6c0-0.6-0.3-0.9-0.7-1C36.8,152.9,36.5,152.9,36.5,153.5z
				 M36.5,169.1c0,0.4,0.2,0.8,0.7,1c0.5,0.1,0.7-0.1,0.7-0.5c0-1.9,0-3.7,0-5.6c0-0.4-0.2-0.8-0.7-1c-0.5-0.1-0.7,0.1-0.7,0.5
				C36.5,165.3,36.5,167.2,36.5,169.1z"/>
			<path class="st5" d="M49.6,170.8c0.4-1.2,0.8-2.4,1.2-3.5c0.6,0,1.1,0,1.7,0c-0.5,1.4-1,2.7-1.6,4.1c0.6,1.5,1.2,3,1.7,4.5
				c-0.6,0-1.1,0-1.7,0c-0.4-1.3-0.9-2.6-1.3-3.9c0,1.3,0,2.5,0,3.8c-0.5,0-1-0.1-1.5-0.1c0-4.1,0-8.1,0-12.2c0.5,0,1,0.1,1.5,0.1
				C49.6,166,49.6,168.4,49.6,170.8z"/>
			<path class="st5" d="M55,174.4c0,0.3,0.2,0.4,0.6,0.4c1.8-0.1,2.3,0.6,2.3,1.7c0,0,0,0.1,0,0.1c0,1-0.6,2-2.3,2.1
				c-1.7,0.1-2.3-0.8-2.3-1.9c0,0,0-0.1,0-0.1c0-0.7,0.2-1.3,0.9-1.7c-0.3-0.1-0.4-0.4-0.4-0.7c0-0.3,0.2-0.5,0.5-0.7
				c-0.6-0.3-0.8-0.9-0.8-1.7c0-0.9,0-1.9,0-2.8c0-1.2,0.5-2,2.1-2.1c0.3,0,0.6,0,0.8,0.1c0.2-0.7,0.6-1.1,1.3-1.1
				c0.2,0,0.3,0,0.5,0c0,0.4,0,0.8,0,1.1c-0.2-0.1-0.3-0.1-0.6,0c-0.2,0-0.4,0.1-0.5,0.2c0.5,0.3,0.7,0.9,0.7,1.6c0,0.9,0,1.9,0,2.8
				c0,1.2-0.5,2-2.1,2.1C55.2,174,55,174.1,55,174.4z M54.8,176.6C54.8,176.6,54.8,176.6,54.8,176.6c0,0.6,0.3,0.8,0.8,0.8
				c0.5,0,0.8-0.3,0.8-0.8c0,0,0,0,0-0.1c0-0.5-0.3-0.7-0.8-0.7C55.1,175.8,54.8,176,54.8,176.6z M55,169.3c0,0.9,0,1.7,0,2.6
				c0,0.6,0.1,0.9,0.6,0.9c0.4,0,0.6-0.3,0.6-0.9c0-0.9,0-1.7,0-2.6c0-0.6-0.1-0.9-0.6-0.9C55.1,168.4,55,168.7,55,169.3z"/>
			<path class="st5" d="M61.7,162.7c0.4-0.1,0.8-0.1,1.2-0.2c-0.9,4.5-1.8,9-2.8,13.5c-0.4,0.1-0.8,0.1-1.2,0.1
				C59.9,171.6,60.8,167.2,61.7,162.7z"/>
			<path class="st5" d="M64.2,174.7c0-4.1,0-8.1,0-12.2c0.5-0.1,1-0.2,1.5-0.3c0,1.3,0,2.6,0,3.9c0.2-0.3,0.6-0.6,1-0.7
				c1.2-0.3,1.6,0.2,1.6,1.5c0,2.2,0,4.5,0,6.7c-0.5,0.1-1,0.3-1.5,0.4c0-2.2,0-4.5,0-6.7c0-0.4-0.2-0.6-0.6-0.5
				c-0.4,0.1-0.5,0.4-0.5,0.8c0,2.3,0,4.5,0,6.8C65.2,174.5,64.7,174.6,64.2,174.7z"/>
			<path class="st5" d="M69.6,170.2c0-1.3,0.7-2.1,2.6-3.4c0-0.4,0-0.8,0-1.2c0-0.4-0.1-0.6-0.5-0.5c-0.4,0.1-0.5,0.4-0.5,0.9
				c0,0.2,0,0.3,0,0.5c-0.5,0.2-1,0.3-1.5,0.5c0-0.2,0-0.3,0-0.5c0-1.2,0.5-2.1,2-2.6c1.5-0.6,2,0,2,1.2c0,2.3,0,4.5,0,6.8
				c-0.3,0.1-0.6,0.2-0.8,0.3c-0.1-0.1-0.2-0.2-0.3-0.3c-0.2,0.5-0.6,0.8-1.2,1.1c-1.2,0.4-1.7-0.1-1.7-1.4
				C69.6,171,69.6,170.6,69.6,170.2z M72.2,167.9c-0.8,0.7-1.1,1-1.1,1.8c0,0.3,0,0.7,0,1c0,0.4,0,0.9,0.5,0.7
				c0.4-0.2,0.5-0.5,0.5-0.9C72.2,169.6,72.2,168.8,72.2,167.9z"/>
		</g>
	</g>
</g>
<g id="betterave_x5F_leg">
	<g>
		<g>
			<line class="st6" x1="52.7" y1="238.4" x2="52.7" y2="190.4"/>
			<g>
				<path class="st7" d="M56.5,190.6c0-2.1-1.7-3.8-3.8-3.8c-2.1,0-3.8,1.7-3.8,3.8c0,2.1,1.7,3.8,3.8,3.8
					C54.8,194.3,56.5,192.6,56.5,190.6z"/>
			</g>
		</g>
	</g>
	<g>
		<path class="st2" d="M22.1,244.4h3.1c2.1,0,2.5,0.8,2.5,2.3v3.2c0,0.8-0.3,1.3-0.8,1.7c0.6,0.4,0.9,0.9,0.9,1.8v3.2
			c0,1.5-0.5,2.5-2.5,2.5h-3.2V244.4z M24.4,250.6h0.7c0.3,0,0.4-0.1,0.4-0.5v-3.2c0-0.3-0.1-0.4-0.4-0.4h-0.8V250.6z M24.4,256.9
			h0.8c0.3,0,0.4-0.1,0.4-0.4v-3.3c0-0.4-0.1-0.5-0.5-0.5h-0.7V256.9z"/>
		<path class="st2" d="M31.7,256.9c0,0.5,0.3,0.6,0.5,0.6c0.2,0,0.5-0.1,0.5-0.6v-1.6h2.1v1.5c0,1.5-0.5,2.5-2.6,2.5
			c-2.1,0-2.6-1-2.6-2.5v-5.9c0-1.5,0.6-2.5,2.6-2.5c2,0,2.6,1,2.6,2.5v3.3h-3V256.9z M31.7,252.6h1v-1.8c0-0.5-0.3-0.6-0.5-0.6
			c-0.2,0-0.5,0.1-0.5,0.6V252.6z"/>
		<path class="st2" d="M39,245.3v3.3h1.4v1.9H39v6.4c0,0.4,0.2,0.6,0.5,0.6c0.3,0,0.5,0,0.9-0.2v1.8c-0.2,0.1-0.7,0.2-1,0.2
			c-2.1,0-2.6-0.9-2.6-2.5v-6.4h-1.1v-1.9h1.1v-2.7L39,245.3z"/>
		<path class="st2" d="M44.3,245.3v3.3h1.4v1.9h-1.4v6.4c0,0.4,0.2,0.6,0.5,0.6c0.3,0,0.5,0,0.9-0.2v1.8c-0.2,0.1-0.7,0.2-1,0.2
			c-2.1,0-2.6-0.9-2.6-2.5v-6.4h-1.1v-1.9h1.1v-2.7L44.3,245.3z"/>
		<path class="st2" d="M49.1,256.9c0,0.5,0.3,0.6,0.5,0.6c0.2,0,0.5-0.1,0.5-0.6v-1.6h2.1v1.5c0,1.5-0.5,2.5-2.6,2.5
			c-2.1,0-2.6-1-2.6-2.5v-5.9c0-1.5,0.6-2.5,2.6-2.5c2,0,2.6,1,2.6,2.5v3.3h-3V256.9z M49.1,252.6h1v-1.8c0-0.5-0.3-0.6-0.5-0.6
			c-0.2,0-0.5,0.1-0.5,0.6V252.6z"/>
		<path class="st2" d="M57.4,250.5c-1.1-0.2-1.5,0.3-1.5,1.2v7.4h-2.1v-10.5h1.2l0.4,0.5c0.5-0.6,1-0.9,2.1-0.9V250.5z"/>
		<path class="st2" d="M61.6,250.8c0-0.4-0.2-0.6-0.5-0.6c-0.3,0-0.4,0.2-0.4,0.6v0.8h-2.1v-0.9c0-1.4,0.7-2.4,2.5-2.4
			c2,0,2.6,1,2.6,2.4v8.3h-1.2l-0.4-0.5c-0.4,0.5-0.8,0.7-1.6,0.7c-1.5,0-2.1-0.8-2.1-2.5v-1.6c0-1.5,1-2.2,3.1-3V250.8z
			 M60.6,256.8c0,0.3,0.1,0.6,0.5,0.6c0.5,0,0.5-0.2,0.5-0.6v-3c-0.6,0.4-1,0.6-1,1.4V256.8z"/>
		<path class="st2" d="M69,259.1h-2.4l-1.7-10.5h2.2l0.7,7.7l0.7-7.7h2.2L69,259.1z"/>
		<path class="st2" d="M74,256.9c0,0.5,0.3,0.6,0.5,0.6c0.2,0,0.5-0.1,0.5-0.6v-1.6H77v1.5c0,1.5-0.5,2.5-2.6,2.5
			c-2.1,0-2.6-1-2.6-2.5v-5.9c0-1.5,0.6-2.5,2.6-2.5c2,0,2.6,1,2.6,2.5v3.3h-3V256.9z M74,252.6h1v-1.8c0-0.5-0.3-0.6-0.5-0.6
			c-0.2,0-0.5,0.1-0.5,0.6V252.6z"/>
		<path class="st2" d="M80.5,256.9c0,0.4,0.2,0.6,0.5,0.6s0.5-0.1,0.5-0.6V256c0-2.2-3.1-1.7-3.1-4.8v-0.4c0-1.5,0.7-2.5,2.6-2.5
			c2,0,2.6,0.9,2.6,2.5v1h-2.1v-1c0-0.4-0.1-0.6-0.5-0.6c-0.3,0-0.5,0.2-0.5,0.6v0.4c0,2.1,3.1,1.6,3.1,4.7v0.9
			c0,1.5-0.7,2.4-2.6,2.4c-2,0-2.6-0.9-2.6-2.4v-1.2h2.1V256.9z"/>
		<path class="st2" d="M28.4,276.9c0,0.4,0.2,0.6,0.5,0.6s0.5-0.1,0.5-0.6V276c0-2.2-3.1-1.7-3.1-4.8v-0.4c0-1.5,0.7-2.5,2.6-2.5
			c2,0,2.6,0.9,2.6,2.5v1h-2.1v-1c0-0.4-0.1-0.6-0.5-0.6c-0.3,0-0.5,0.2-0.5,0.6v0.4c0,2.1,3.1,1.6,3.1,4.7v0.9
			c0,1.5-0.7,2.4-2.6,2.4c-2,0-2.6-0.9-2.6-2.4v-1.2h2.1V276.9z"/>
		<path class="st2" d="M35.3,268.6v8.3c0,0.3,0.1,0.6,0.5,0.6c0.3,0,0.5-0.2,0.5-0.6v-8.3h2.1v10.5h-1.2l-0.4-0.5
			c-0.3,0.5-0.9,0.7-1.7,0.7c-1.5,0-2-0.8-2-2.4v-8.3H35.3z"/>
		<path class="st2" d="M45.3,275.3v1.6c0,1.5-0.5,2.5-2.6,2.5c-2.1,0-2.6-1-2.6-2.5v-6c0-1.5,0.6-2.5,2.6-2.5c2,0,2.6,1,2.6,2.5v1.4
			h-2.1v-1.4c0-0.5-0.3-0.6-0.5-0.6c-0.2,0-0.5,0.1-0.5,0.6v6.1c0,0.5,0.3,0.6,0.5,0.6c0.2,0,0.5-0.1,0.5-0.6v-1.6H45.3z"/>
		<path class="st2" d="M50.4,270.5c-1.1-0.2-1.5,0.3-1.5,1.2v7.4h-2.1v-10.5H48l0.4,0.5c0.5-0.6,1-0.9,2.1-0.9V270.5z"/>
		<path class="st2" d="M53.9,265.1v2.4h-2.1v-2.4H53.9z M53.9,268.6v10.5h-2.1v-10.5H53.9z"/>
		<path class="st2" d="M57.6,276.9c0,0.5,0.3,0.6,0.5,0.6c0.2,0,0.5-0.1,0.5-0.6v-1.6h2.1v1.5c0,1.5-0.5,2.5-2.6,2.5
			c-2.1,0-2.6-1-2.6-2.5v-5.9c0-1.5,0.6-2.5,2.6-2.5c2,0,2.6,1,2.6,2.5v3.3h-3V276.9z M58.4,264.7l0.4,2.8h-1.3l-1.2-2.8H58.4z
			 M57.6,272.6h1v-1.8c0-0.5-0.3-0.6-0.5-0.6c-0.2,0-0.5,0.1-0.5,0.6V272.6z"/>
		<path class="st2" d="M65.9,270.5c-1.1-0.2-1.5,0.3-1.5,1.2v7.4h-2.1v-10.5h1.2l0.4,0.5c0.5-0.6,1-0.9,2.1-0.9V270.5z"/>
		<path class="st2" d="M69.3,276.9c0,0.5,0.3,0.6,0.5,0.6c0.2,0,0.5-0.1,0.5-0.6v-1.6h2.1v1.5c0,1.5-0.5,2.5-2.6,2.5
			c-2.1,0-2.6-1-2.6-2.5v-5.9c0-1.5,0.6-2.5,2.6-2.5c2,0,2.6,1,2.6,2.5v3.3h-3V276.9z M69.3,272.6h1v-1.8c0-0.5-0.3-0.6-0.5-0.6
			c-0.2,0-0.5,0.1-0.5,0.6V272.6z"/>
		<path class="st2" d="M75.9,276.9c0,0.4,0.2,0.6,0.5,0.6s0.5-0.1,0.5-0.6V276c0-2.2-3.1-1.7-3.1-4.8v-0.4c0-1.5,0.7-2.5,2.6-2.5
			c2,0,2.6,0.9,2.6,2.5v1h-2.1v-1c0-0.4-0.1-0.6-0.5-0.6c-0.3,0-0.5,0.2-0.5,0.6v0.4c0,2.1,3.1,1.6,3.1,4.7v0.9
			c0,1.5-0.7,2.4-2.6,2.4c-2,0-2.6-0.9-2.6-2.4v-1.2h2.1V276.9z"/>
	</g>
	<line class="st6" x1="21.5" y1="238.4" x2="83.9" y2="238.4"/>
</g>
<g id="betterave_x5F_picto">
	<path class="st8" d="M55.9,80.4c2.8-0.6,2.7,3.3,2.7,3.3c3.7-0.8,2,4.4,2,4.4s1.9-0.4,2.3,1.4c0.8,3.7-3.2,7.5-2.2,12.2
		c-1-4.6-6.3-6.4-7.1-10.1c-0.4-1.9,1.4-2.3,1.4-2.3s-3.8-4-0.1-4.8C54.9,84.5,53.1,81,55.9,80.4z"/>
	<path class="st9" d="M55.9,80.4c-2.8,0.6-1,4.1-1,4.1c-3.7,0.8,0.1,4.8,0.1,4.8s-1.9,0.4-1.4,2.3c0.8,3.7,6.1,5.5,7.1,10.1
		L55.9,80.4z"/>
	<path class="st8" d="M88,104.5c-0.2-2.8-3.9-1.7-3.9-1.7c-0.2-3.8-4.8-0.7-4.8-0.7s-0.1-1.9-2-1.8c-3.8,0.2-6.3,5.2-11.1,5.5
		c4.7-0.3,7.9,4.3,11.7,4c1.9-0.1,1.8-2,1.8-2s4.9,2.5,4.7-1.2C84.3,106.7,88.1,107.4,88,104.5z"/>
	<path class="st9" d="M88,104.5c0.2,2.8-3.7,2.1-3.7,2.1c0.2,3.8-4.7,1.2-4.7,1.2s0.1,1.9-1.8,2c-3.8,0.2-6.9-4.3-11.7-4L88,104.5z"
		/>
	<path class="st8" d="M78,84.5c2.5,1.9-0.8,4.5-0.8,4.5c3.3,2.5-2.3,4.7-2.3,4.7s1.6,1.2,0.4,2.9c-2.5,3.3-8.5,2.7-11.5,6.8
		c3.1-4.1,0.8-9.7,3.3-13c1.2-1.6,2.9-0.4,2.9-0.4s0.6-6,3.9-3.5C73.8,86.5,75.5,82.6,78,84.5z"/>
	<path class="st9" d="M73.8,86.5C70.5,84,69.9,90,69.9,90s-1.6-1.2-2.9,0.4c-2.5,3.3-0.2,8.9-3.3,13L78,84.5
		C75.5,82.6,73.8,86.5,73.8,86.5z"/>
	<path class="st10" d="M75.9,105.5c0-0.6-0.4-1-1-1c-1.7,0-9,0-13,1.2c0.1-4.2-1.9-11.2-2.4-12.8c-0.2-0.5-0.7-0.9-1.3-0.7
		c-0.5,0.2-0.9,0.7-0.7,1.3c1.4,4.6,2.9,11.8,2.1,13.6c-0.2,0.5-0.1,1,0.3,1.3c0.1,0,0.1,0.1,0.2,0.1c0.4,0.2,0.8,0.1,1.1-0.2v0
		c1.5-1.3,8.8-1.8,13.6-1.7C75.5,106.5,75.9,106.1,75.9,105.5z"/>
	<g>
		<path class="st11" d="M60.6,107.5c-6.4-4.8-14.1-5.3-18.6,0.8c-4.1,5.5,0.5,13,1.1,18.9c0.1,1.1-0.2,2.1-0.8,3l-0.5,0.6
			c-0.3,0.5-0.3,1.1,0.2,1.4c0.5,0.3,1.1,0.2,1.4-0.2l0.5-0.6c0.6-0.8,1.6-1.4,2.6-1.6c5.8-1,14.3,1.3,18.5-4.1
			C69.5,119.6,67,112.3,60.6,107.5z"/>
	</g>
	<path class="st12" d="M59.5,125.4c-0.2-0.1-0.3-0.3-0.4-0.4c-0.3-0.6-0.1-1.4,0.6-1.7c0.4-0.2,0.8-0.5,1-0.8c1-1.3,1.4-2.8,1.1-4.3
		c-0.1-0.7,0.3-1.4,1-1.5c0.7-0.1,1.4,0.3,1.5,1c0.4,2.2-0.1,4.4-1.6,6.3c-0.5,0.7-1.1,1.2-1.9,1.6
		C60.4,125.7,59.9,125.7,59.5,125.4z M60.3,114.7c-0.1-0.1-0.2-0.1-0.2-0.2c-0.2-0.3-0.5-0.6-0.8-0.9c-0.5-0.5-0.5-1.3,0.1-1.8
		c0.5-0.5,1.3-0.5,1.8,0.1c0.3,0.4,0.6,0.7,0.9,1.1c0.4,0.6,0.3,1.4-0.2,1.8C61.4,115.1,60.8,115.1,60.3,114.7z"/>
	<path class="st12" d="M45.5,129c0.8-4.8-1.1-10.2,3.1-15.7c2.4-3.2,5.1-5,7.6-5.6c0.6-0.2,1-0.7,1-1.3l0,0c0-0.5-0.3-1-0.8-1.2
		c-5.3-2.2-10.8-1.5-14.4,3.2c-4.1,5.5,0.5,13,1.1,18.9c0.1,1.1-0.2,2.1-0.8,2.9l-0.5,0.6c-0.3,0.5-0.3,1.1,0.2,1.4
		c0.5,0.3,1.1,0.2,1.4-0.2l0.5-0.6c0.1-0.2,0.3-0.4,0.5-0.5C44.9,130.3,45.4,129.7,45.5,129C45.5,129,45.5,129,45.5,129z"/>
	<path class="st13" d="M60,108.3c-0.5-0.3-0.5-1-0.2-1.4l8.7-11.5c0.3-0.5,1-0.5,1.4-0.2c0.5,0.3,0.5,1,0.2,1.4l-8.7,11.5
		C61.1,108.6,60.4,108.7,60,108.3z"/>
</g>
<g id="cerise_x5F_baril">
	<polygon class="st0" points="160.7,182.7 146.7,188.7 130.8,190.4 114.6,188.5 100.9,182.7 100.9,118.8 160.7,118.8 	"/>
	<path class="st0" d="M130.8,108.3c16.5,0,29.9,4.7,29.9,10.5c0,5.8-13.4,10.5-29.9,10.5c-16.5,0-29.9-4.7-29.9-10.5
		C100.9,113,114.3,108.3,130.8,108.3z"/>
	<g>
		<path class="st1" d="M130.8,108.3c-16.5,0-29.9,4.7-29.9,10.5v63.9l13.7,5.8l16.2,1.9l15.8-1.7l14.1-6v-63.9
			C160.7,113,147.3,108.3,130.8,108.3z"/>
	</g>
	<g>
		<path class="st2" d="M100.9,118.8c0,5.8,13.4,10.5,29.9,10.5c16.5,0,29.9-4.7,29.9-10.5v5.7c0,5.8-13.4,10.5-29.9,10.5
			c-16.5,0-29.9-4.7-29.9-10.5V118.8z"/>
	</g>
	<g>
		<path class="st2" d="M100.9,176.9c0,5.8,13.4,10.5,29.9,10.5c16.5,0,29.9-4.7,29.9-10.5v5.7c0,5.8-13.4,10.5-29.9,10.5
			c-16.5,0-29.9-4.7-29.9-10.5V176.9z"/>
	</g>
	<path class="st2" d="M100.9,147.9c0,5.8,13.4,10.5,29.9,10.5c16.5,0,29.9-4.7,29.9-10.5v5.7c0,5.8-13.4,10.5-29.9,10.5
		c-16.5,0-29.9-4.7-29.9-10.5V147.9z"/>
	<path class="st3" d="M117.9,114.6c3.8,0,6.9,1.9,6.9,4.2c0,2.3-3.1,4.2-6.9,4.2c-3.8,0-6.9-1.9-6.9-4.2
		C110.9,116.5,114,114.6,117.9,114.6z"/>
	<path class="st4" d="M108.5,182.7v-5.7v-23.3v-5.7v-23.4v-5.7c0-0.3,0-0.5,0.1-0.8c0.1-0.4,0.3-0.9,0.5-1.3
		c0.1-0.3,0.3-0.5,0.5-0.8c0.2-0.2,0.4-0.5,0.7-0.7c0.1-0.1,0.2-0.2,0.3-0.2c0.2-0.2,0.4-0.3,0.6-0.5c0.2-0.2,0.4-0.3,0.6-0.5
		c0.4-0.3,0.9-0.6,1.4-0.9c0.1-0.1,0.3-0.1,0.4-0.2c0.8-0.4,1.7-0.8,2.7-1.2c0.6-0.2,1.3-0.5,2-0.7c0.5-0.2,1.1-0.3,1.6-0.5
		c0.2-0.1,0.4-0.1,0.6-0.2c0.4-0.1,0.8-0.2,1.2-0.3c0.2,0,0.4-0.1,0.6-0.1c0.4-0.1,0.8-0.2,1.2-0.3c0.4-0.1,0.8-0.2,1.3-0.2
		c0.9-0.2,1.7-0.3,2.7-0.4c0.5-0.1,0.9-0.1,1.4-0.2c0.4-0.1,0.9-0.1,1.3-0.1c1.4-0.1,2.9-0.3,4.5-0.3c-1.3-0.1-2.5-0.1-3.8-0.1
		c-2.9,0-5.6,0.1-8.3,0.4c-0.4,0-0.9,0.1-1.3,0.1c-0.5,0.1-0.9,0.1-1.4,0.2c-0.9,0.1-1.8,0.3-2.6,0.4c-0.4,0.1-0.9,0.2-1.3,0.2
		c-0.4,0.1-0.8,0.2-1.2,0.3c-0.2,0-0.4,0.1-0.6,0.1c-0.4,0.1-0.8,0.2-1.2,0.3c-0.2,0.1-0.4,0.1-0.6,0.2c-0.6,0.2-1.1,0.3-1.6,0.5
		c-0.7,0.2-1.4,0.5-2,0.7c-1,0.4-1.9,0.8-2.7,1.2c-0.1,0.1-0.3,0.1-0.4,0.2c-0.5,0.3-1,0.6-1.4,0.9c-0.2,0.1-0.4,0.3-0.6,0.5
		c-0.2,0.2-0.4,0.3-0.6,0.5c-0.1,0.1-0.2,0.2-0.3,0.2c-0.2,0.2-0.5,0.5-0.7,0.7c-0.2,0.2-0.4,0.5-0.5,0.8c-0.2,0.4-0.4,0.9-0.5,1.3
		c-0.1,0.3-0.1,0.5-0.1,0.8v5.7v23.3v5.7v23.4v5.7c0,5.8,13.4,10.5,29.9,10.5c1.3,0,2.6,0,3.8-0.1
		C119.9,192.4,108.5,188,108.5,182.7z"/>
	<g>
		<g>
			<path class="st5" d="M113.3,165.8c0-2.4,0-4.9,0-7.3c-0.5,0.1-1.2,0-2-0.3c-3.1-1.1-4.5-3.5-4.5-6.6c0-2.2,0-4.3,0-6.5
				c0-3.3,1.5-4.7,5.7-3.4c4.1,1.2,5.8,3.7,5.8,7c0,6.1,0,12.2,0,18.3c0,3.2-1.6,5.2-5.8,4c-4.1-1.3-5.6-4.3-5.7-7.5
				c0-1.2,0-2.3,0-3.5c1.6,0.7,3.2,1.2,4.8,1.8c0,1.2,0,2.4,0,3.5c0,0.7,0.4,1,0.8,1.1C112.8,166.6,113.3,166.5,113.3,165.8z
				 M113.3,147.4c0-0.5-0.3-1-0.8-1.1c-0.6-0.2-0.8,0.1-0.8,0.6c0,2.1,0,4.2,0,6.3c0,0.5,0.3,1,0.8,1.2c0.6,0.2,0.8-0.1,0.8-0.6
				C113.3,151.6,113.3,149.5,113.3,147.4z"/>
			<path class="st5" d="M127.2,167.4c0.5-1.4,0.9-2.8,1.4-4.2c0.7,0,1.3,0,2,0.1c-0.6,1.6-1.2,3.3-1.9,4.9c0.7,1.8,1.4,3.5,2.1,5.3
				c-0.7,0-1.3,0-2,0c-0.5-1.5-1-3-1.6-4.6c0,1.5,0,3,0,4.5c-0.6,0-1.2-0.1-1.8-0.1c0-4.8,0-9.6,0-14.4c0.6,0.1,1.2,0.1,1.8,0.1
				C127.2,161.7,127.2,164.5,127.2,167.4z"/>
			<path class="st5" d="M133.5,171.6c0,0.3,0.2,0.5,0.7,0.5c2.1-0.1,2.7,0.7,2.7,2.1c0,0,0,0.1,0,0.1c0,1.2-0.7,2.4-2.7,2.5
				c-2,0.1-2.7-0.9-2.7-2.2c0,0,0-0.1,0-0.1c0-0.9,0.3-1.6,1.1-2c-0.4-0.2-0.5-0.5-0.5-0.8c0-0.3,0.2-0.7,0.6-0.8
				c-0.8-0.4-1-1.1-1-2.1c0-1.1,0-2.2,0-3.4c0-1.4,0.6-2.4,2.5-2.5c0.4,0,0.7,0,1,0.1c0.3-0.8,0.8-1.3,1.5-1.3c0.2,0,0.4,0,0.6,0
				c0,0.5,0,0.9,0,1.4c-0.2-0.1-0.4-0.1-0.7-0.1c-0.3,0-0.5,0.1-0.6,0.3c0.6,0.4,0.8,1,0.8,1.9c0,1.1,0,2.2,0,3.4
				c0,1.4-0.6,2.4-2.5,2.5C133.8,171.1,133.5,171.3,133.5,171.6z M133.3,174.2C133.3,174.3,133.3,174.3,133.3,174.2
				c0,0.7,0.4,1,0.9,1c0.6,0,0.9-0.3,0.9-1c0,0,0-0.1,0-0.1c0-0.6-0.4-0.9-0.9-0.8C133.7,173.3,133.3,173.6,133.3,174.2z
				 M133.6,165.6c0,1,0,2,0,3.1c0,0.8,0.1,1.1,0.7,1c0.5,0,0.7-0.3,0.7-1.1c0-1,0-2,0-3.1c0-0.8-0.2-1.1-0.7-1
				C133.7,164.5,133.6,164.9,133.6,165.6z"/>
			<path class="st5" d="M141.5,157.7c0.5-0.1,0.9-0.2,1.4-0.2c-1.1,5.3-2.2,10.7-3.3,16c-0.5,0.1-0.9,0.1-1.4,0.2
				C139.3,168.4,140.4,163.1,141.5,157.7z"/>
			<path class="st5" d="M144.4,172c0-4.8,0-9.6,0-14.4c0.6-0.1,1.2-0.3,1.8-0.4c0,1.5,0,3,0,4.6c0.3-0.4,0.7-0.7,1.2-0.8
				c1.4-0.4,1.9,0.2,1.9,1.8c0,2.7,0,5.3,0,8c-0.6,0.2-1.2,0.3-1.8,0.5c0-2.7,0-5.3,0-8c0-0.5-0.2-0.8-0.7-0.6
				c-0.5,0.1-0.6,0.5-0.6,1c0,2.7,0,5.3,0,8C145.6,171.8,145,171.9,144.4,172z"/>
			<path class="st5" d="M150.9,166.6c0-1.5,0.9-2.5,3-4.1c0-0.5,0-0.9,0-1.4c0-0.5-0.2-0.7-0.6-0.6c-0.4,0.2-0.6,0.5-0.6,1
				c0,0.2,0,0.4,0,0.5c-0.6,0.2-1.1,0.4-1.7,0.6c0-0.2,0-0.4,0-0.6c0-1.4,0.6-2.5,2.3-3.1c1.8-0.7,2.3,0.1,2.3,1.4c0,2.7,0,5.3,0,8
				c-0.3,0.1-0.7,0.3-1,0.4c-0.1-0.1-0.2-0.3-0.3-0.4c-0.3,0.6-0.7,1-1.4,1.2c-1.4,0.5-2-0.1-2-1.7
				C150.9,167.6,150.9,167.1,150.9,166.6z M153.9,163.9c-0.9,0.8-1.3,1.2-1.3,2.1c0,0.4,0,0.8,0,1.2c0,0.5,0,1.1,0.6,0.9
				c0.5-0.2,0.6-0.6,0.7-1.1C153.9,166,153.9,165,153.9,163.9z"/>
		</g>
	</g>
</g>
<g id="cerise_x5F_leg">
	<g>
		<g>
			<line class="st6" x1="130.8" y1="238.4" x2="130.8" y2="192.5"/>
			<g>
				<path class="st7" d="M134.6,192.7c0-2.1-1.7-3.8-3.8-3.8c-2.1,0-3.8,1.7-3.8,3.8c0,2.1,1.7,3.8,3.8,3.8
					C132.9,196.5,134.6,194.8,134.6,192.7z"/>
			</g>
		</g>
	</g>
	<line class="st6" x1="115.2" y1="238.4" x2="146.4" y2="238.4"/>
	<g>
		<path class="st2" d="M115,259.1v-14.7h4.6v2.1h-2.3v4.1h2v2.1h-2v6.4H115z"/>
		<path class="st2" d="M124.6,250.5c-1.1-0.2-1.5,0.3-1.5,1.2v7.4H121v-10.5h1.2l0.4,0.5c0.5-0.6,1-0.9,2.1-0.9V250.5z"/>
		<path class="st2" d="M128.1,248.6v8.3c0,0.3,0.1,0.6,0.5,0.6c0.3,0,0.5-0.2,0.5-0.6v-8.3h2.1v10.5H130l-0.4-0.5
			c-0.3,0.5-0.9,0.7-1.7,0.7c-1.5,0-2-0.8-2-2.4v-8.3H128.1z"/>
		<path class="st2" d="M135.1,245.1v2.4H133v-2.4H135.1z M135.1,248.6v10.5H133v-10.5H135.1z"/>
		<path class="st2" d="M139.4,245.3v3.3h1.4v1.9h-1.4v6.4c0,0.4,0.2,0.6,0.5,0.6c0.3,0,0.5,0,0.9-0.2v1.8c-0.2,0.1-0.7,0.2-1,0.2
			c-2.1,0-2.6-0.9-2.6-2.5v-6.4h-1.1v-1.9h1.1v-2.7L139.4,245.3z"/>
		<path class="st2" d="M143.9,256.9c0,0.4,0.2,0.6,0.5,0.6s0.5-0.1,0.5-0.6V256c0-2.2-3.1-1.7-3.1-4.8v-0.4c0-1.5,0.7-2.5,2.6-2.5
			c2,0,2.6,0.9,2.6,2.5v1h-2.1v-1c0-0.4-0.1-0.6-0.5-0.6c-0.3,0-0.5,0.2-0.5,0.6v0.4c0,2.1,3.1,1.6,3.1,4.7v0.9
			c0,1.5-0.7,2.4-2.6,2.4c-2,0-2.6-0.9-2.6-2.4v-1.2h2.1V256.9z"/>
		<path class="st2" d="M112.4,270.8c0-0.4-0.2-0.6-0.5-0.6c-0.3,0-0.4,0.2-0.4,0.6v0.8h-2.1v-0.9c0-1.4,0.7-2.4,2.5-2.4
			c2,0,2.6,1,2.6,2.4v8.3h-1.2l-0.4-0.5c-0.4,0.5-0.8,0.7-1.6,0.7c-1.5,0-2.1-0.8-2.1-2.5v-1.6c0-1.5,1-2.2,3.1-3V270.8z
			 M112.2,264.7l0.4,2.8h-1.3l-1.2-2.8H112.2z M111.5,276.8c0,0.3,0.1,0.6,0.5,0.6c0.5,0,0.5-0.2,0.5-0.6v-3c-0.6,0.4-1,0.6-1,1.4
			V276.8z"/>
		<path class="st2" d="M123,279.1v-8.3c0-0.3-0.1-0.6-0.5-0.6c-0.3,0-0.5,0.2-0.5,0.6v8.3h-2.1v-10.5h1.2l0.4,0.5
			c0.4-0.5,0.9-0.7,1.7-0.7c1.5,0,2,0.8,2,2.4v8.3H123z"/>
		<path class="st2" d="M126.8,276.8v-6c0-1.5,0.6-2.5,2.6-2.5s2.6,1,2.6,2.5v6c0,1.5-0.5,2.5-2.6,2.5S126.8,278.3,126.8,276.8z
			 M130,276.9v-6.1c0-0.5-0.3-0.6-0.5-0.6s-0.5,0.1-0.5,0.6v6.1c0,0.5,0.3,0.6,0.5,0.6S130,277.3,130,276.9z"/>
		<path class="st2" d="M133.2,282.5v-1.9c0.3,0.1,0.5,0.2,0.9,0.2s0.7-0.2,0.8-0.9l0.1-0.8l-1.8-10.5h2.2l0.7,6.9l0.7-6.9h2.2
			l-1.9,11.4c-0.3,2-1,2.7-2.9,2.7C133.9,282.6,133.4,282.6,133.2,282.5z"/>
		<path class="st2" d="M142.9,270.8c0-0.4-0.2-0.6-0.5-0.6c-0.3,0-0.4,0.2-0.4,0.6v0.8h-2.1v-0.9c0-1.4,0.7-2.4,2.5-2.4
			c2,0,2.6,1,2.6,2.4v8.3h-1.2l-0.4-0.5c-0.4,0.5-0.8,0.7-1.6,0.7c-1.5,0-2.1-0.8-2.1-2.5v-1.6c0-1.5,1-2.2,3.1-3V270.8z
			 M141.9,276.8c0,0.3,0.1,0.6,0.5,0.6c0.5,0,0.5-0.2,0.5-0.6v-3c-0.6,0.4-1,0.6-1,1.4V276.8z"/>
		<path class="st2" d="M148.9,268.6v8.3c0,0.3,0.1,0.6,0.5,0.6c0.3,0,0.5-0.2,0.5-0.6v-8.3h2.1v10.5h-1.2l-0.4-0.5
			c-0.3,0.5-0.9,0.7-1.7,0.7c-1.5,0-2-0.8-2-2.4v-8.3H148.9z"/>
	</g>
</g>
<g id="cerise_x5F_picto">
	<g>
		<path class="st14" d="M113,109.4c0-6.4,4.4-11.5,9.9-11.5h1.7c5.5,0,9.9,5.2,9.9,11.5c0,5.9-4.8,10.7-10.7,10.7
			C117.8,120.1,113,115.3,113,109.4z"/>
	</g>
	<path class="st15" d="M122,117.4c-0.1,0-0.1,0-0.2,0c-2.9-0.7-5.3-2.8-6.2-5.6c-0.1-0.4,0.1-0.9,0.5-1c0.4-0.1,0.9,0.1,1,0.5
		c0.7,2.2,2.7,4,5,4.5c0.4,0.1,0.7,0.5,0.6,1C122.7,117.2,122.4,117.4,122,117.4z"/>
	<path class="st15" d="M116.2,108.2c-0.1,0-0.1,0-0.2,0c-0.4-0.1-0.7-0.5-0.6-1c0.2-1.1,0.6-2.2,1.2-3.1c0.2-0.4,0.7-0.5,1.1-0.3
		c0.4,0.2,0.5,0.7,0.3,1.1c-0.5,0.8-0.8,1.7-1,2.6C116.9,108,116.6,108.2,116.2,108.2z"/>
	<g>
		<path class="st15" d="M134.4,115.1c0-6.4,4.4-11.5,9.9-11.5h1.6c5.5,0,9.9,5.2,9.9,11.5c0,5.9-4.8,10.7-10.7,10.7
			C139.2,125.9,134.4,121.1,134.4,115.1z"/>
	</g>
	<path class="st15" d="M130.3,106.1c-2.7,0-4.9-2.2-4.9-4.9c0-0.5,0.4-0.8,0.8-0.8c0.5,0,0.8,0.4,0.8,0.8c0,1.8,1.5,3.3,3.3,3.3
		c0.5,0,0.8,0.4,0.8,0.8C131.1,105.7,130.7,106.1,130.3,106.1z"/>
	<path class="st16" d="M150.1,111.9c-2.7,0-4.9-2.2-4.9-4.9c0-0.5,0.4-0.8,0.8-0.8c0.5,0,0.8,0.4,0.8,0.8c0,1.8,1.5,3.3,3.3,3.3
		c0.5,0,0.8,0.4,0.8,0.8C150.9,111.5,150.5,111.9,150.1,111.9z"/>
	<path class="st17" d="M148.4,108.6c-0.1,0-0.3,0-0.4-0.1c-0.4-0.2-0.5-0.7-0.3-1.1c3.5-6.3,2.9-11.6-2.4-20.2
		c-1.3,9.1-9.4,16.4-16.2,16.4c-0.5,0-0.8-0.4-0.8-0.8c0-0.5,0.4-0.8,0.8-0.8c6.5,0,14.7-8.1,14.7-17.3c0-0.4,0.2-0.7,0.6-0.8
		c0.3-0.1,0.7,0,0.9,0.3c5.9,8.9,8.4,15.6,3.8,23.9C149,108.4,148.7,108.6,148.4,108.6z"/>
	<path class="st18" d="M144.3,84.2c3.3,2.4,8.4,1.1,10.8-2.2C151.8,79.6,146.7,80.9,144.3,84.2z"/>
	<path class="st19" d="M135.2,78.5c0.6,4.1,5.1,6.7,9.2,6.1C143.8,80.5,139.3,77.8,135.2,78.5z"/>
	<path class="st16" d="M143.3,123.5c-0.1,0-0.1,0-0.2,0c-2.9-0.7-5.3-2.8-6.2-5.6c-0.1-0.4,0.1-0.9,0.5-1c0.4-0.1,0.9,0.1,1,0.5
		c0.7,2.2,2.7,4,5,4.5c0.4,0.1,0.7,0.5,0.6,1C144,123.2,143.7,123.5,143.3,123.5z"/>
</g>
<g id="patate_x5F_baril">
	<polygon class="st0" points="261.7,182.6 243.6,190.3 223.1,192.6 202.2,190.1 184.5,182.6 184.5,100.2 261.7,100.2 	"/>
	<path class="st0" d="M223.1,86.6c21.3,0,38.6,6.1,38.6,13.5c0,7.5-17.3,13.5-38.6,13.5c-21.3,0-38.6-6-38.6-13.5
		C184.5,92.7,201.8,86.6,223.1,86.6z"/>
	<g>
		<path class="st1" d="M223.1,86.6c-21.3,0-38.6,6.1-38.6,13.5v82.5l17.7,7.5l20.9,2.5l20.4-2.2l18.2-7.7v-82.5
			C261.7,92.7,244.5,86.6,223.1,86.6z"/>
	</g>
	<g>
		<path class="st2" d="M184.5,100.2c0,7.5,17.3,13.5,38.6,13.5c21.3,0,38.6-6,38.6-13.5v7.4c0,7.5-17.3,13.5-38.6,13.5
			c-21.3,0-38.6-6-38.6-13.5V100.2z"/>
	</g>
	<g>
		<path class="st2" d="M184.5,175.2c0,7.5,17.3,13.5,38.6,13.5c21.3,0,38.6-6.1,38.6-13.5v7.4c0,7.5-17.3,13.5-38.6,13.5
			c-21.3,0-38.6-6.1-38.6-13.5V175.2z"/>
	</g>
	<path class="st2" d="M184.5,137.7c0,7.5,17.3,13.5,38.6,13.5c21.3,0,38.6-6,38.6-13.5v7.4c0,7.5-17.3,13.5-38.6,13.5
		c-21.3,0-38.6-6.1-38.6-13.5V137.7z"/>
	<path class="st3" d="M206.4,94.7c4.9,0,8.9,2.4,8.9,5.4c0,3-4,5.4-8.9,5.4c-4.9,0-8.9-2.4-8.9-5.4
		C197.5,97.2,201.5,94.7,206.4,94.7z"/>
	<path class="st4" d="M194.4,182.6v-7.4v-30.1v-7.4v-30.1v-7.4c0-0.4,0-0.7,0.1-1c0.1-0.6,0.3-1.1,0.7-1.7c0.2-0.3,0.4-0.7,0.7-1
		c0.3-0.3,0.6-0.6,0.9-0.9c0.1-0.1,0.2-0.2,0.3-0.3c0.2-0.2,0.5-0.4,0.7-0.6c0.3-0.2,0.5-0.4,0.8-0.6c0.6-0.4,1.2-0.8,1.9-1.1
		c0.2-0.1,0.3-0.2,0.5-0.3c1-0.5,2.2-1,3.4-1.5c0.8-0.3,1.7-0.6,2.6-0.9c0.7-0.2,1.4-0.4,2.1-0.6c0.2-0.1,0.5-0.1,0.7-0.2
		c0.5-0.1,1-0.3,1.5-0.4c0.3-0.1,0.5-0.1,0.8-0.2c0.5-0.1,1.1-0.2,1.6-0.3c0.5-0.1,1.1-0.2,1.6-0.3c1.1-0.2,2.3-0.4,3.4-0.5
		c0.6-0.1,1.2-0.2,1.8-0.2c0.6-0.1,1.1-0.1,1.7-0.2c1.9-0.2,3.8-0.3,5.8-0.4c-1.6-0.1-3.3-0.1-4.9-0.1c-3.7,0-7.3,0.2-10.7,0.5
		c-0.6,0.1-1.2,0.1-1.7,0.2c-0.6,0.1-1.2,0.1-1.8,0.2c-1.2,0.2-2.3,0.3-3.4,0.5c-0.6,0.1-1.1,0.2-1.6,0.3c-0.5,0.1-1.1,0.2-1.6,0.3
		c-0.3,0.1-0.5,0.1-0.8,0.2c-0.5,0.1-1,0.2-1.5,0.4c-0.2,0.1-0.5,0.1-0.7,0.2c-0.7,0.2-1.4,0.4-2.1,0.6c-0.9,0.3-1.8,0.6-2.6,0.9
		c-1.2,0.5-2.4,1-3.4,1.5c-0.2,0.1-0.3,0.2-0.5,0.3c-0.7,0.4-1.3,0.7-1.9,1.1c-0.3,0.2-0.6,0.4-0.8,0.6c-0.3,0.2-0.5,0.4-0.7,0.6
		c-0.1,0.1-0.2,0.2-0.3,0.3c-0.3,0.3-0.6,0.6-0.9,0.9c-0.3,0.3-0.5,0.6-0.7,1c-0.3,0.5-0.5,1.1-0.7,1.7c-0.1,0.3-0.1,0.7-0.1,1v7.4
		v30.1v7.4v30.1v7.4c0,7.5,17.3,13.5,38.6,13.5c1.7,0,3.3,0,4.9-0.1C209.1,195.2,194.4,189.5,194.4,182.6z"/>
	<g>
		<g>
			<path class="st5" d="M197.4,159.1c0.9,0.3,1.8,0.5,2.7,0.8c0,1.7,0,3.5,0,5.2c-3.6-1-7.2-2.2-10.8-3.7c0-1.7,0-3.5,0-5.2
				c0.9,0.4,1.8,0.7,2.7,1c0-6.5,0-12.9,0-19.4c-0.9-0.3-1.8-0.7-2.7-1c0-1.3,0-2.7,0-4c2.3,0.9,3.4,0,3.4-1.6
				c1.5,0.6,3.1,1.1,4.6,1.5C197.4,141.6,197.4,150.4,197.4,159.1z"/>
			<path class="st5" d="M210.2,153.1c0-0.4-0.3-0.8-0.8-0.9c-0.6-0.1-1.3,0.1-1.8,0.6c-1.5-0.3-3-0.6-4.4-0.9
				c0.3-5.8,0.6-11.5,0.9-17.3c3.7,0.8,7.5,1.4,11.3,1.8c0,1.7,0,3.5,0,5.2c-2.2-0.2-4.4-0.5-6.6-0.8c-0.1,2.4-0.2,4.9-0.4,7.3
				c0.5-0.2,1.6-0.2,2.3-0.1c3.7,0.5,5.1,2,5.1,5.8c0,2.9,0,5.8,0,8.7c0,3.4-1.5,6-6.5,5.2c-5.1-0.9-6.4-3.8-6.4-7.3
				c0-1.3,0-2.6,0-3.9c1.8,0.4,3.6,0.8,5.4,1.1c0,1.3,0,2.6,0,3.8c0,0.7,0.3,1.1,1,1.2c0.6,0.1,1-0.2,1-0.9
				C210.2,158.8,210.2,155.9,210.2,153.1z"/>
			<path class="st5" d="M225.6,161.7c0.5-1.6,1-3.2,1.5-4.8c0.7,0,1.5-0.1,2.2-0.1c-0.7,1.9-1.4,3.7-2.1,5.6
				c0.8,1.9,1.5,3.8,2.3,5.7c-0.7,0.1-1.5,0.1-2.2,0.1c-0.6-1.6-1.2-3.3-1.7-4.9c0,1.7,0,3.3,0,5c-0.7,0-1.3,0-2,0
				c0-5.3,0-10.7,0-16c0.7,0,1.3,0,2,0C225.6,155.3,225.6,158.5,225.6,161.7z"/>
			<path class="st5" d="M232.6,165.8c0,0.4,0.2,0.6,0.8,0.5c2.3-0.3,3,0.6,3,2.1c0,0,0,0.1,0,0.1c0,1.4-0.8,2.7-3,2.9
				c-2.2,0.2-3-0.8-3-2.2c0,0,0-0.1,0-0.1c0-0.9,0.3-1.8,1.2-2.3c-0.4-0.2-0.6-0.5-0.6-0.8c0-0.4,0.2-0.7,0.6-1
				c-0.8-0.3-1.1-1.1-1.1-2.2c0-1.2,0-2.5,0-3.7c0-1.6,0.6-2.7,2.7-2.9c0.4,0,0.8,0,1.1,0c0.3-0.9,0.8-1.5,1.6-1.6
				c0.3,0,0.4,0,0.6,0c0,0.5,0,1,0,1.5c-0.3-0.1-0.4-0.1-0.8,0c-0.3,0-0.5,0.2-0.7,0.4c0.6,0.4,0.9,1.1,0.9,2c0,1.2,0,2.5,0,3.7
				c0,1.6-0.6,2.7-2.8,3C232.9,165.2,232.6,165.4,232.6,165.8z M232.4,168.7C232.4,168.7,232.4,168.8,232.4,168.7c0,0.8,0.4,1.1,1,1
				c0.7-0.1,1-0.4,1-1.2c0,0,0-0.1,0-0.1c0-0.7-0.4-0.9-1-0.9C232.8,167.7,232.4,168,232.4,168.7z M232.7,159.1c0,1.1,0,2.3,0,3.4
				c0,0.8,0.1,1.2,0.7,1.1c0.6-0.1,0.8-0.4,0.8-1.3c0-1.1,0-2.3,0-3.4c0-0.8-0.2-1.2-0.8-1.1C232.8,157.9,232.7,158.3,232.7,159.1z"
				/>
			<path class="st5" d="M241.4,149.9c0.5-0.1,1-0.2,1.5-0.3c-1.2,6-2.4,11.9-3.6,17.9c-0.5,0.1-1,0.2-1.5,0.3
				C239,161.8,240.2,155.8,241.4,149.9z"/>
			<path class="st5" d="M244.7,165.6c0-5.3,0-10.7,0-16c0.7-0.2,1.3-0.3,2-0.5c0,1.7,0,3.4,0,5.1c0.3-0.4,0.8-0.8,1.3-0.9
				c1.6-0.5,2.1,0.2,2.1,2c0,3,0,5.9,0,8.9c-0.6,0.2-1.3,0.4-2,0.6c0-3,0-5.9,0-8.9c0-0.6-0.2-0.8-0.7-0.7c-0.5,0.1-0.7,0.5-0.7,1.1
				c0,3,0,5.9,0,8.9C246,165.2,245.3,165.4,244.7,165.6z"/>
			<path class="st5" d="M251.8,159.4c0-1.7,1-2.8,3.4-4.5c0-0.5,0-1,0-1.6c0-0.6-0.2-0.8-0.7-0.6c-0.5,0.2-0.7,0.6-0.7,1.1
				c0,0.2,0,0.4,0,0.6c-0.6,0.2-1.3,0.5-1.9,0.7c0-0.2,0-0.4,0-0.7c0-1.5,0.7-2.8,2.6-3.5c2-0.8,2.6,0.1,2.6,1.6c0,3,0,5.9,0,8.9
				c-0.4,0.2-0.7,0.3-1.1,0.4c-0.1-0.1-0.2-0.3-0.4-0.4c-0.3,0.7-0.8,1.1-1.6,1.4c-1.5,0.6-2.2-0.1-2.2-1.9
				C251.8,160.5,251.8,160,251.8,159.4z M255.2,156.4c-1,0.9-1.4,1.4-1.4,2.3c0,0.5,0,0.9,0,1.4c0,0.5,0,1.2,0.7,1
				c0.6-0.2,0.7-0.6,0.7-1.2C255.2,158.7,255.2,157.5,255.2,156.4z"/>
		</g>
	</g>
</g>
<g id="patate_x5F_leg">
	<g>
		<g>
			<line class="st6" x1="223.1" y1="238.6" x2="223.1" y2="195.4"/>
			<g>
				<path class="st7" d="M226.9,195.6c0-2.1-1.7-3.8-3.8-3.8s-3.8,1.7-3.8,3.8c0,2.1,1.7,3.8,3.8,3.8S226.9,197.7,226.9,195.6z"/>
			</g>
		</g>
	</g>
	<line class="st6" x1="176.4" y1="238.4" x2="269.9" y2="238.4"/>
	<g>
		<path class="st2" d="M175.7,244.4h3.2c2,0,2.5,1,2.5,2.5v3.6c0,1.6-0.5,2.5-2.5,2.5H178v6.1h-2.3V244.4z M178,250.9h0.7
			c0.3,0,0.4-0.1,0.4-0.5V247c0-0.4-0.2-0.5-0.5-0.5H178V250.9z"/>
		<path class="st2" d="M182.8,256.8v-6c0-1.5,0.6-2.5,2.6-2.5s2.6,1,2.6,2.5v6c0,1.5-0.5,2.5-2.6,2.5S182.8,258.3,182.8,256.8z
			 M185.9,256.9v-6.1c0-0.5-0.3-0.6-0.5-0.6s-0.5,0.1-0.5,0.6v6.1c0,0.5,0.3,0.6,0.5,0.6S185.9,257.3,185.9,256.9z"/>
		<path class="st2" d="M192.8,259.1v-8.3c0-0.3-0.1-0.5-0.5-0.5c-0.3,0-0.5,0.2-0.5,0.5v8.3h-2.1v-10.5h1.2l0.4,0.5
			c0.4-0.5,1-0.7,1.7-0.7c0.7,0,1.2,0.2,1.5,0.6c0.4-0.4,0.9-0.6,1.6-0.6c1.5,0,2.1,0.8,2.1,2.4v8.3h-2.1v-8.3
			c0-0.3-0.1-0.6-0.5-0.6c-0.3,0-0.5,0.2-0.5,0.6v8.3H192.8z"/>
		<path class="st2" d="M202.7,259.1v-8.3c0-0.3-0.1-0.5-0.5-0.5c-0.3,0-0.5,0.2-0.5,0.5v8.3h-2.1v-10.5h1.2l0.4,0.5
			c0.4-0.5,1-0.7,1.7-0.7c0.7,0,1.2,0.2,1.5,0.6c0.4-0.4,0.9-0.6,1.6-0.6c1.5,0,2.1,0.8,2.1,2.4v8.3h-2.1v-8.3
			c0-0.3-0.1-0.6-0.5-0.6c-0.3,0-0.5,0.2-0.5,0.6v8.3H202.7z"/>
		<path class="st2" d="M211.7,256.9c0,0.5,0.3,0.6,0.5,0.6c0.2,0,0.5-0.1,0.5-0.6v-1.6h2.1v1.5c0,1.5-0.5,2.5-2.6,2.5
			c-2.1,0-2.6-1-2.6-2.5v-5.9c0-1.5,0.6-2.5,2.6-2.5c2,0,2.6,1,2.6,2.5v3.3h-3V256.9z M211.7,252.6h1v-1.8c0-0.5-0.3-0.6-0.5-0.6
			c-0.2,0-0.5,0.1-0.5,0.6V252.6z"/>
		<path class="st2" d="M218.3,256.9c0,0.4,0.2,0.6,0.5,0.6s0.5-0.1,0.5-0.6V256c0-2.2-3.1-1.7-3.1-4.8v-0.4c0-1.5,0.7-2.5,2.6-2.5
			c2,0,2.6,0.9,2.6,2.5v1h-2.1v-1c0-0.4-0.1-0.6-0.5-0.6c-0.3,0-0.5,0.2-0.5,0.6v0.4c0,2.1,3.1,1.6,3.1,4.7v0.9
			c0,1.5-0.7,2.4-2.6,2.4c-2,0-2.6-0.9-2.6-2.4v-1.2h2.1V256.9z"/>
		<path class="st2" d="M226.4,250.8c0-1.7,0.4-2.4,1.9-2.4c0.4,0,0.9,0.2,1.2,0.4v-4.6h2.1v14.9h-1.2l-0.4-0.5
			c-0.3,0.5-0.9,0.7-1.7,0.7c-1.5,0-2-0.8-2-2.4V250.8z M228.6,256.9c0,0.3,0.1,0.6,0.5,0.6c0.3,0,0.5-0.2,0.5-0.6v-6.1
			c0-0.4-0.2-0.5-0.5-0.5c-0.3,0-0.5,0.2-0.5,0.6V256.9z"/>
		<path class="st2" d="M235.4,256.9c0,0.5,0.3,0.6,0.5,0.6c0.2,0,0.5-0.1,0.5-0.6v-1.6h2.1v1.5c0,1.5-0.5,2.5-2.6,2.5
			c-2.1,0-2.6-1-2.6-2.5v-5.9c0-1.5,0.6-2.5,2.6-2.5c2,0,2.6,1,2.6,2.5v3.3h-3V256.9z M235.4,252.6h1v-1.8c0-0.5-0.3-0.6-0.5-0.6
			c-0.2,0-0.5,0.1-0.5,0.6V252.6z"/>
		<path class="st2" d="M246.4,245.3v3.3h1.4v1.9h-1.4v6.4c0,0.4,0.2,0.6,0.5,0.6c0.3,0,0.5,0,0.9-0.2v1.8c-0.2,0.1-0.7,0.2-1,0.2
			c-2.1,0-2.6-0.9-2.6-2.5v-6.4h-1.1v-1.9h1.1v-2.7L246.4,245.3z"/>
		<path class="st2" d="M251.1,256.9c0,0.5,0.3,0.6,0.5,0.6c0.2,0,0.5-0.1,0.5-0.6v-1.6h2.1v1.5c0,1.5-0.5,2.5-2.6,2.5
			c-2.1,0-2.6-1-2.6-2.5v-5.9c0-1.5,0.6-2.5,2.6-2.5c2,0,2.6,1,2.6,2.5v3.3h-3V256.9z M251.1,252.6h1v-1.8c0-0.5-0.3-0.6-0.5-0.6
			c-0.2,0-0.5,0.1-0.5,0.6V252.6z"/>
		<path class="st2" d="M259.4,250.5c-1.1-0.2-1.5,0.3-1.5,1.2v7.4h-2.1v-10.5h1.2l0.4,0.5c0.5-0.6,1-0.9,2.1-0.9V250.5z"/>
		<path class="st2" d="M264.3,250.5c-1.1-0.2-1.5,0.3-1.5,1.2v7.4h-2.1v-10.5h1.2l0.4,0.5c0.5-0.6,1-0.9,2.1-0.9V250.5z"/>
		<path class="st2" d="M267.7,256.9c0,0.5,0.3,0.6,0.5,0.6c0.2,0,0.5-0.1,0.5-0.6v-1.6h2.1v1.5c0,1.5-0.5,2.5-2.6,2.5
			c-2.1,0-2.6-1-2.6-2.5v-5.9c0-1.5,0.6-2.5,2.6-2.5c2,0,2.6,1,2.6,2.5v3.3h-3V256.9z M267.7,252.6h1v-1.8c0-0.5-0.3-0.6-0.5-0.6
			c-0.2,0-0.5,0.1-0.5,0.6V252.6z"/>
	</g>
</g>
<g id="patate_x5F_picto">
	<g>
		<path class="st20" d="M234.1,93.4l-2-1c7.5-0.8-2.7,1.9-2.7,1.8c-0.9-1.8,0.3-2.4,7.6-6c1.7-0.8,0.4-6.2,2-6.8
			c-2.4-5.8-8.6-9.9-15.1-9.9c-8.3,0-24,6.7-24,15c0,12.9,15.8,15,24,15c2.2,0,4.3-0.5,6.3-1.3C227.2,98.8,235.9,96.3,234.1,93.4z"
			/>
	</g>
	<path class="st21" d="M201.8,86.5c0-6,7.9-11.3,15.6-14c-8.1,2.1-17.6,7.6-17.6,14c0,7.8,5.8,11.6,12.2,13.5
		C206.4,97.7,201.8,93.7,201.8,86.5z"/>
	<g>
		<path class="st20" d="M249.2,80.2l-26.5,13.5c4.1,6.5,12.8,9.8,19.7,6.4C249.4,96.6,252.1,87.4,249.2,80.2z"/>
	</g>
	<path class="st21" d="M244.4,98.7c-6.9,3.4-15.4,0.2-19.6-6.2l-2.2,1.1c4.1,6.5,12.8,9.8,19.7,6.4c0.9-0.4,1.7-1,2.4-1.6
		C244.7,98.6,244.6,98.7,244.4,98.7z"/>
	<path class="st22" d="M234.2,83.6c7.4-3.6,14.1-5.1,14.9-3.3c0.9,1.8-4.4,6.2-11.8,9.8c-7.4,3.6-14.1,5.1-14.9,3.3
		C221.5,91.6,226.8,87.2,234.2,83.6z"/>
	<path class="st23" d="M224.4,93.4c-0.9-1.8,4.4-6.2,11.8-9.8c4.6-2.3,9-3.7,11.8-4c-2.4-0.4-7.9,1.1-13.8,4
		c-7.4,3.6-12.6,8-11.8,9.8c0.3,0.7,1.5,0.9,3.2,0.7C225,93.9,224.5,93.7,224.4,93.4z"/>
	<path class="st23" d="M213.5,86.2c-0.4,0-0.8-0.3-0.8-0.8v-0.8c0-0.4,0.3-0.8,0.8-0.8c0.4,0,0.8,0.3,0.8,0.8v0.8
		C214.3,85.8,213.9,86.2,213.5,86.2z"/>
	<path class="st23" d="M221.1,86.2c-0.4,0-0.8-0.3-0.8-0.8v-0.8c0-0.4,0.3-0.8,0.8-0.8c0.4,0,0.8,0.3,0.8,0.8v0.8
		C221.9,85.8,221.5,86.2,221.1,86.2z"/>
	<path class="st23" d="M224.7,78.8c-0.4,0-0.8-0.3-0.8-0.8v-0.8c0-0.4,0.3-0.8,0.8-0.8c0.4,0,0.8,0.3,0.8,0.8V78
		C225.4,78.5,225.1,78.8,224.7,78.8z"/>
	<path class="st23" d="M210,94.5c-0.4,0-0.8-0.3-0.8-0.8V93c0-0.4,0.3-0.8,0.8-0.8c0.4,0,0.8,0.3,0.8,0.8v0.8
		C210.7,94.1,210.4,94.5,210,94.5z"/>
	<path class="st23" d="M217.1,94.5c-0.4,0-0.8-0.3-0.8-0.8V93c0-0.4,0.3-0.8,0.8-0.8c0.4,0,0.8,0.3,0.8,0.8v0.8
		C217.8,94.1,217.5,94.5,217.1,94.5z"/>
	<path class="st23" d="M217.1,78.8c-0.4,0-0.8-0.3-0.8-0.8v-0.8c0-0.4,0.3-0.8,0.8-0.8c0.4,0,0.8,0.3,0.8,0.8V78
		C217.8,78.5,217.5,78.8,217.1,78.8z"/>
	<path class="st22" d="M240.9,95.5l0.7-0.3c0.4-0.2,0.8,0,1,0.4c0.2,0.4,0,0.8-0.4,1l-0.7,0.3C240.6,97.3,240,95.9,240.9,95.5z"/>
	<path class="st22" d="M233.5,96.5c-0.2-0.4,0-0.8,0.4-1l0.7-0.3c0.4-0.2,0.8,0,1,0.4c0.2,0.4,0,0.8-0.4,1l-0.7,0.3
		C234.1,97.1,233.7,96.9,233.5,96.5z"/>
	<path class="st23" d="M206.6,86.2c-0.4,0-0.8-0.3-0.8-0.8v-0.8c0-0.4,0.3-0.8,0.8-0.8c0.4,0,0.8,0.3,0.8,0.8v0.8
		C207.4,85.8,207.1,86.2,206.6,86.2z"/>
</g>
<g id="pomme_x5F_baril">
	<polygon class="st0" points="537.4,182.3 508.2,194.8 475.2,198.4 441.4,194.4 412.9,182.3 412.9,49.4 537.4,49.4 	"/>
	<path class="st0" d="M475.2,27.6c34.4,0,62.2,9.8,62.2,21.8c0,12-27.9,21.8-62.2,21.8c-34.4,0-62.2-9.8-62.2-21.8
		C412.9,37.3,440.8,27.6,475.2,27.6z"/>
	<g>
		<path class="st1" d="M475.2,27.6c-34.4,0-62.2,9.8-62.2,21.8v133l28.5,12.1l33.8,4l33-3.6l29.3-12.5v-133
			C537.4,37.3,509.6,27.6,475.2,27.6z"/>
	</g>
	<g>
		<path class="st2" d="M412.9,49.4c0,12,27.9,21.8,62.2,21.8c34.4,0,62.2-9.8,62.2-21.8v11.9c0,12-27.9,21.8-62.2,21.8
			c-34.4,0-62.2-9.8-62.2-21.8V49.4z"/>
	</g>
	<g>
		<path class="st2" d="M412.9,170.4c0,12,27.9,21.8,62.2,21.8c34.4,0,62.2-9.8,62.2-21.8v11.9c0,12-27.9,21.8-62.2,21.8
			c-34.4,0-62.2-9.8-62.2-21.8V170.4z"/>
	</g>
	<path class="st2" d="M412.9,109.9c0,12,27.9,21.8,62.2,21.8c34.4,0,62.2-9.8,62.2-21.8v11.9c0,12-27.9,21.8-62.2,21.8
		c-34.4,0-62.2-9.8-62.2-21.8V109.9z"/>
	<ellipse class="st3" cx="448.2" cy="49.4" rx="14.4" ry="8.8"/>
	<path class="st4" d="M428.8,182.3v-11.9v-48.6v-11.9V61.3V49.4c0-0.6,0.1-1.1,0.2-1.7c0.2-0.9,0.6-1.8,1.1-2.7
		c0.3-0.5,0.7-1.1,1.1-1.6c0.4-0.5,0.9-1,1.4-1.5c0.2-0.2,0.4-0.3,0.5-0.5c0.4-0.3,0.8-0.7,1.2-1c0.4-0.3,0.9-0.6,1.3-0.9
		c0.9-0.6,1.9-1.2,3-1.8c0.3-0.1,0.5-0.3,0.8-0.4c1.7-0.9,3.5-1.7,5.5-2.5c1.3-0.5,2.7-1,4.2-1.5c1.1-0.4,2.2-0.7,3.4-1
		c0.4-0.1,0.8-0.2,1.2-0.3c0.8-0.2,1.6-0.4,2.4-0.6c0.4-0.1,0.8-0.2,1.3-0.3c0.8-0.2,1.7-0.4,2.6-0.5c0.9-0.2,1.8-0.3,2.6-0.5
		c1.8-0.3,3.6-0.6,5.5-0.9c0.9-0.1,1.9-0.3,2.9-0.4c0.9-0.1,1.8-0.2,2.8-0.3c3-0.3,6.1-0.5,9.3-0.7c-2.6-0.1-5.3-0.2-8-0.2
		c-6,0-11.7,0.3-17.2,0.8c-0.9,0.1-1.9,0.2-2.8,0.3c-1,0.1-1.9,0.2-2.9,0.4c-1.9,0.3-3.7,0.6-5.5,0.9c-0.9,0.2-1.8,0.3-2.6,0.5
		c-0.9,0.2-1.7,0.4-2.6,0.5c-0.4,0.1-0.8,0.2-1.3,0.3c-0.8,0.2-1.6,0.4-2.4,0.6c-0.4,0.1-0.8,0.2-1.2,0.3c-1.2,0.3-2.3,0.7-3.4,1
		c-1.5,0.5-2.9,1-4.2,1.5c-2,0.8-3.9,1.6-5.5,2.5c-0.3,0.1-0.6,0.3-0.8,0.4c-1.1,0.6-2.1,1.2-3,1.8c-0.5,0.3-0.9,0.6-1.3,1
		c-0.4,0.3-0.8,0.6-1.2,1c-0.2,0.2-0.4,0.3-0.5,0.5c-0.5,0.5-1,1-1.4,1.5c-0.4,0.5-0.8,1-1.1,1.6c-0.5,0.9-0.9,1.8-1.1,2.7
		c-0.1,0.6-0.2,1.1-0.2,1.7v11.9v48.6v11.9v48.6v11.9c0,12,27.9,21.8,62.2,21.8c2.7,0,5.3-0.1,7.9-0.2
		C452.5,202.6,428.8,193.4,428.8,182.3z"/>
	<g>
		<g>
			<path class="st5" d="M431.3,110.1c0-0.9-0.5-1.7-1.5-2c-1-0.3-1.5,0.1-1.5,1.1c0,1.8,0,3.6,0,5.5c-2.8-1-5.5-2-8.3-3.1
				c0-1.8,0-3.6,0-5.5c0-5.5,1.9-8.5,9.7-5.8c7.8,2.5,9.9,6.8,9.9,12.3c0,3.3,0,6.7,0,10c0,2.6-0.8,4.2-2.8,4.9c1.8,1.7,3,3.9,3,6.5
				c0,3.6,0,7.2,0,10.9c0,5.4-2.3,9-10,6.5c-7.8-2.7-9.7-7.6-9.7-13.1c0-2.1,0-4.1,0-6.2c2.7,1.1,5.5,2.2,8.3,3.1c0,2,0,4,0,6
				c0,1.1,0.5,1.9,1.5,2.2c1,0.3,1.5,0,1.5-1.2c0-3.7,0-7.4,0-11.1c0-0.7-0.3-1.2-1-1.5c-1.1-0.4-2.3-0.8-3.4-1.2c0-2.7,0-5.4,0-8.1
				c1.1,0.4,2.3,0.8,3.4,1.2c0.8,0.3,1,0,1-0.7C431.3,117.2,431.3,113.7,431.3,110.1z"/>
			<path class="st5" d="M457.2,148.1c0-4.3,0-8.5,0-12.8c-0.9,0.3-2.2,0.4-3.6,0.1c-5.7-0.9-8.1-4.6-8.1-10.1c0-3.8,0-7.6,0-11.4
				c0-5.8,2.8-8.9,10.2-7.8c7.4,1,10.3,4.9,10.3,10.6c0,10.7,0,21.3,0,32c0,5.6-2.9,9.4-10.3,8.4c-7.4-1.1-10.2-5.7-10.2-11.3
				c0-2,0-4.1,0-6.1c2.9,0.6,5.8,1.1,8.7,1.6c0,2.1,0,4.1,0,6.2c0,1.2,0.7,1.7,1.4,1.8C456.4,149.6,457.2,149.3,457.2,148.1z
				 M457.2,115.9c0-0.9-0.5-1.6-1.5-1.8c-1-0.1-1.5,0.4-1.5,1.3c0,3.6,0,7.3,0,10.9c0,0.9,0.5,1.6,1.5,1.8c1,0.1,1.5-0.4,1.5-1.4
				C457.2,123.2,457.2,119.5,457.2,115.9z"/>
			<path class="st5" d="M481.8,147.6c0.8-2.5,1.6-5,2.4-7.6c1.2-0.1,2.3-0.1,3.5-0.2c-1.1,3-2.2,5.9-3.2,8.8c1.2,3,2.4,5.9,3.6,8.9
				c-1.2,0.1-2.3,0.2-3.5,0.3c-0.9-2.6-1.8-5.1-2.7-7.7c0,2.6,0,5.2,0,7.8c-1.1,0-2.1,0.1-3.2,0.1c0-8.4,0-16.8,0-25.2
				c1.1,0,2.1-0.1,3.2-0.1C481.8,137.7,481.8,142.6,481.8,147.6z"/>
			<path class="st5" d="M492.9,154c0,0.6,0.4,0.9,1.2,0.8c3.6-0.5,4.8,0.8,4.8,3.2c0,0.1,0,0.1,0,0.2c0,2.2-1.2,4.2-4.7,4.6
				c-3.5,0.4-4.7-1.2-4.7-3.5c0-0.1,0-0.1,0-0.2c0-1.5,0.5-2.8,1.9-3.6c-0.6-0.3-0.9-0.7-0.9-1.3c0-0.6,0.3-1.2,1-1.5
				c-1.3-0.5-1.7-1.8-1.7-3.4c0-2,0-3.9,0-5.9c0-2.5,1-4.3,4.3-4.7c0.6-0.1,1.2-0.1,1.7,0c0.5-1.4,1.3-2.3,2.6-2.5
				c0.4-0.1,0.7-0.1,1,0c0,0.8,0,1.6,0,2.4c-0.4-0.1-0.6-0.1-1.2,0c-0.5,0.1-0.9,0.3-1.1,0.6c1,0.6,1.4,1.7,1.4,3.2c0,2,0,3.9,0,5.9
				c0,2.5-1,4.3-4.3,4.7C493.3,153,492.9,153.4,492.9,154z M492.6,158.6c0,0,0,0.1,0,0.1c0,1.1,0.6,1.6,1.6,1.4
				c1-0.1,1.6-0.7,1.6-1.8c0,0,0-0.1,0-0.1c0-1.1-0.6-1.5-1.6-1.3C493.2,156.9,492.6,157.4,492.6,158.6z M493,143.5
				c0,1.8,0,3.6,0,5.4c0,1.3,0.2,1.9,1.2,1.7c0.9-0.1,1.2-0.7,1.2-2c0-1.8,0-3.6,0-5.4c0-1.3-0.3-1.8-1.2-1.7
				C493.2,141.6,493,142.2,493,143.5z"/>
			<path class="st5" d="M506.8,128.8c0.8-0.2,1.6-0.4,2.4-0.5c-1.9,9.4-3.8,18.8-5.7,28.2c-0.8,0.2-1.6,0.3-2.4,0.5
				C503,147.5,504.9,138.2,506.8,128.8z"/>
			<path class="st5" d="M511.8,153.5c0-8.4,0-16.8,0-25.2c1-0.3,2.1-0.5,3.1-0.8c0,2.7,0,5.3,0,8c0.5-0.7,1.3-1.2,2-1.5
				c2.5-0.7,3.3,0.3,3.3,3.1c0,4.7,0,9.3,0,14c-1,0.3-2,0.6-3.1,1c0-4.7,0-9.3,0-14c0-0.9-0.3-1.3-1.2-1.1c-0.8,0.2-1.1,0.9-1.1,1.7
				c0,4.7,0,9.3,0,14C513.9,152.9,512.9,153.2,511.8,153.5z"/>
			<path class="st5" d="M523.1,143.7c0-2.6,1.5-4.3,5.3-7.1c0-0.8,0-1.6,0-2.4c0-0.9-0.3-1.3-1.1-1c-0.8,0.3-1,0.9-1,1.8
				c0,0.3,0,0.6,0,1c-1,0.4-2,0.7-3,1.1c0-0.3,0-0.7,0-1c0-2.4,1-4.4,4-5.5c3.1-1.2,4.1,0.1,4.1,2.5c0,4.7,0,9.3,0,14
				c-0.6,0.2-1.2,0.5-1.7,0.7c-0.2-0.2-0.4-0.4-0.6-0.7c-0.5,1.1-1.2,1.7-2.5,2.2c-2.4,0.9-3.5-0.1-3.5-2.9
				C523.1,145.4,523.1,144.6,523.1,143.7z M528.4,138.9c-1.6,1.4-2.2,2.2-2.2,3.7c0,0.7,0,1.4,0,2.1c0,0.9,0,1.9,1.1,1.5
				c0.9-0.4,1.1-1,1.1-1.9C528.4,142.5,528.4,140.7,528.4,138.9z"/>
		</g>
	</g>
</g>
<g id="pomme_x5F_leg">
	<g>
		<g>
			<line class="st6" x1="475.3" y1="238" x2="475.3" y2="203"/>
			<g>
				<path class="st7" d="M479.1,203.2c0-2.1-1.7-3.8-3.8-3.8c-2.1,0-3.8,1.7-3.8,3.8c0,2.1,1.7,3.8,3.8,3.8
					C477.4,207,479.1,205.3,479.1,203.2z"/>
			</g>
		</g>
	</g>
	<line class="st6" x1="432.7" y1="238.4" x2="517.7" y2="238.4"/>
	<g>
		<path class="st2" d="M433.4,259.1v-14.7h4.6v2.1h-2.3v4.1h2v2.1h-2v6.4H433.4z"/>
		<path class="st2" d="M442.9,250.5c-1.1-0.2-1.5,0.3-1.5,1.2v7.4h-2.1v-10.5h1.2l0.4,0.5c0.5-0.6,1-0.9,2.1-0.9V250.5z"/>
		<path class="st2" d="M446.5,248.6v8.3c0,0.3,0.1,0.6,0.5,0.6c0.3,0,0.5-0.2,0.5-0.6v-8.3h2.1v10.5h-1.2l-0.4-0.5
			c-0.3,0.5-0.9,0.7-1.7,0.7c-1.5,0-2-0.8-2-2.4v-8.3H446.5z"/>
		<path class="st2" d="M453.4,245.1v2.4h-2.1v-2.4H453.4z M453.4,248.6v10.5h-2.1v-10.5H453.4z"/>
		<path class="st2" d="M457.8,245.3v3.3h1.4v1.9h-1.4v6.4c0,0.4,0.2,0.6,0.5,0.6c0.3,0,0.5,0,0.9-0.2v1.8c-0.2,0.1-0.7,0.2-1,0.2
			c-2.1,0-2.6-0.9-2.6-2.5v-6.4h-1.1v-1.9h1.1v-2.7L457.8,245.3z"/>
		<path class="st2" d="M462.2,256.9c0,0.4,0.2,0.6,0.5,0.6s0.5-0.1,0.5-0.6V256c0-2.2-3.1-1.7-3.1-4.8v-0.4c0-1.5,0.7-2.5,2.6-2.5
			c2,0,2.6,0.9,2.6,2.5v1h-2.1v-1c0-0.4-0.1-0.6-0.5-0.6c-0.3,0-0.5,0.2-0.5,0.6v0.4c0,2.1,3.1,1.6,3.1,4.7v0.9
			c0,1.5-0.7,2.4-2.6,2.4c-2,0-2.6-0.9-2.6-2.4v-1.2h2.1V256.9z"/>
		<path class="st2" d="M473.3,250.8c0-0.4-0.2-0.6-0.5-0.6c-0.3,0-0.4,0.2-0.4,0.6v0.8h-2.1v-0.9c0-1.4,0.7-2.4,2.5-2.4
			c2,0,2.6,1,2.6,2.4v8.3h-1.2l-0.4-0.5c-0.4,0.5-0.8,0.7-1.6,0.7c-1.5,0-2.1-0.8-2.1-2.5v-1.6c0-1.5,1-2.2,3.1-3V250.8z
			 M473.1,244.7l0.4,2.8h-1.3l-1.2-2.8H473.1z M472.3,256.8c0,0.3,0.1,0.6,0.5,0.6c0.5,0,0.5-0.2,0.5-0.6v-3c-0.6,0.4-1,0.6-1,1.4
			V256.8z"/>
		<path class="st2" d="M486,256.9c0,1.7-0.5,2.4-2,2.4c-0.4,0-0.9-0.2-1.1-0.4v3.6h-2.1v-13.9h1.2l0.4,0.5c0.3-0.5,0.9-0.7,1.6-0.7
			c1.5,0,2.1,0.8,2.1,2.5V256.9z M483.8,250.8c0-0.3-0.1-0.6-0.5-0.6c-0.3,0-0.5,0.2-0.5,0.6v6.1c0,0.4,0.2,0.5,0.5,0.5
			c0.3,0,0.5-0.2,0.5-0.6V250.8z"/>
		<path class="st2" d="M489.8,256.9c0,0.5,0.3,0.6,0.5,0.6c0.2,0,0.5-0.1,0.5-0.6v-1.6h2.1v1.5c0,1.5-0.5,2.5-2.6,2.5
			c-2.1,0-2.6-1-2.6-2.5v-5.9c0-1.5,0.6-2.5,2.6-2.5c2,0,2.6,1,2.6,2.5v3.3h-3V256.9z M492.1,244.7l-1.2,2.8h-1.3l0.4-2.8H492.1z
			 M489.8,252.6h1v-1.8c0-0.5-0.3-0.6-0.5-0.6c-0.2,0-0.5,0.1-0.5,0.6V252.6z"/>
		<path class="st2" d="M499.9,256.9c0,1.7-0.5,2.4-2,2.4c-0.4,0-0.9-0.2-1.1-0.4v3.6h-2.1v-13.9h1.2l0.4,0.5
			c0.3-0.5,0.9-0.7,1.6-0.7c1.5,0,2.1,0.8,2.1,2.5V256.9z M497.7,250.8c0-0.3-0.1-0.6-0.5-0.6c-0.3,0-0.5,0.2-0.5,0.6v6.1
			c0,0.4,0.2,0.5,0.5,0.5c0.3,0,0.5-0.2,0.5-0.6V250.8z"/>
		<path class="st2" d="M503.7,245.1v2.4h-2.1v-2.4H503.7z M503.7,248.6v10.5h-2.1v-10.5H503.7z"/>
		<path class="st2" d="M508.5,259.1v-8.3c0-0.3-0.1-0.6-0.5-0.6c-0.3,0-0.5,0.2-0.5,0.6v8.3h-2.1v-10.5h1.2l0.4,0.5
			c0.4-0.5,0.9-0.7,1.7-0.7c1.5,0,2,0.8,2,2.4v8.3H508.5z"/>
		<path class="st2" d="M514.3,256.9c0,0.4,0.2,0.6,0.5,0.6s0.5-0.1,0.5-0.6V256c0-2.2-3.1-1.7-3.1-4.8v-0.4c0-1.5,0.7-2.5,2.6-2.5
			c2,0,2.6,0.9,2.6,2.5v1h-2.1v-1c0-0.4-0.1-0.6-0.5-0.6c-0.3,0-0.5,0.2-0.5,0.6v0.4c0,2.1,3.1,1.6,3.1,4.7v0.9
			c0,1.5-0.7,2.4-2.6,2.4c-2,0-2.6-0.9-2.6-2.4v-1.2h2.1V256.9z"/>
	</g>
</g>
<g id="pomme_x5F_picto">
	<g>
		<path class="st24" d="M498.7,29.9c0,6.5-4.2,15.4-9.3,20.3c-2.3,2.2-4.7,3.5-7,3.5c-1.5,0-2.9-0.2-4.2-0.6c-1.7-0.5-3.5-0.5-5.3,0
			c-1.3,0.4-2.7,0.6-4.2,0.6c-2.4,0-5-1.5-7.3-3.9c-4.9-4.9-9-13.6-9-19.9c0-9.3,5.6-15,10.8-16.3c2.5-0.7,5.4-0.2,7.8,0.4
			c2.4,0.6,5,0.7,7.4,0.3c0.5-0.1,1-0.2,1.5-0.3c2.4-0.6,5.3-1,7.8-0.4C493.1,14.9,498.7,20.6,498.7,29.9z"/>
	</g>
	<path class="st25" d="M489.4,50.1c-6.2,1.1-11,0.8-14.7-0.1c-5.9-1.4-10.3-6.4-11-12.4c-1.8-15.1,8-19.5,8-19.5
		c2.9,1.3,6.1,0.6,6.1,0.6c-2.1-2.1,0.7-4.5,0.7-4.5c-2.5,0.4-5,0.3-7.4-0.3c-2.4-0.6-5.3-1-7.8-0.4c-5.2,1.4-10.8,7-10.8,16.3
		c0,9.3,8.8,23.8,16.3,23.8c1.5,0,2.9-0.2,4.2-0.6c1.7-0.5,3.5-0.5,5.3,0c1.3,0.4,2.7,0.6,4.2,0.6C484.7,53.7,487.1,52.3,489.4,50.1
		L489.4,50.1z"/>
	<path class="st26" d="M500.9,0.6c0,0-1.3,9-8.1,11.7c-6.5,2.5-12.3-4.3-14.7-3.7c-0.1,0-0.2,0.1-0.3,0.1c0,0,0,0,0,0l0,0
		c0.1-0.2,2.7-8,9.4-8.5C494-0.5,497.7,2.6,500.9,0.6z"/>
	<path class="st27" d="M500.9,0.6c0,0-4.1,5.1-10,5.1c-5.1,0-11.4,2.3-12.9,2.9c-0.2,0.1-0.3,0.1-0.3,0.1c0,0,0,0,0,0l0,0
		c0.1-0.2,2.7-8,9.4-8.5C494-0.5,497.7,2.6,500.9,0.6z"/>
	<path class="st28" d="M488.2,26.2c-0.3-2.6,0.9-4.8,2.5-4.9c1.7-0.2,3.2,1.8,3.5,4.3c0.3,2.6-0.9,4.8-2.5,4.9
		C490,30.7,488.5,28.8,488.2,26.2z"/>
	<path class="st29" d="M480.4,17.4c0,1.1-1.7,1.9-3.9,2.1c-0.3,0-0.6,0-1,0c-0.3,0-0.7,0-1,0c-2.2-0.2-3.8-1.1-3.8-2.1H480.4z"/>
	<path class="st30" d="M479.3,8.5l-3.5,5.4c0.3,1.1,0.5,2.3,0.6,3.6c0.1,0.7,0.1,1.4,0.2,2.1c-0.3,0-0.6,0-1,0c-0.3,0-0.7,0-1,0
		c0-0.7-0.1-1.4-0.2-2.1c-0.6-5-2.6-8.7-2.6-8.8c-0.3-0.5-0.1-1.1,0.4-1.3c0.5-0.3,1.1-0.1,1.3,0.4c0.1,0.1,0.8,1.5,1.5,3.6l2.6-4
		c0.3-0.4,0.9-0.6,1.3-0.3C479.5,7.4,479.6,8,479.3,8.5z"/>
</g>
<g id="raisin_x5F_baril">
	<polygon class="st0" points="389.1,183 364.8,193.4 337.3,196.3 309.3,193 285.5,183 285.5,72.4 389.1,72.4 	"/>
	<path class="st0" d="M337.3,54.2c28.6,0,51.8,8.1,51.8,18.1c0,10-23.2,18.1-51.8,18.1c-28.6,0-51.8-8.1-51.8-18.1
		C285.5,62.4,308.7,54.2,337.3,54.2z"/>
	<g>
		<path class="st1" d="M337.3,54.2c-28.6,0-51.8,8.1-51.8,18.1V183l23.7,10l28.1,3.3l27.4-3l24.4-10.4V72.4
			C389.1,62.4,365.9,54.2,337.3,54.2z"/>
	</g>
	<g>
		<path class="st2" d="M285.5,72.4c0,10,23.2,18.1,51.8,18.1c28.6,0,51.8-8.1,51.8-18.1v9.9c0,10-23.2,18.1-51.8,18.1
			c-28.6,0-51.8-8.1-51.8-18.1V72.4z"/>
	</g>
	<g>
		<path class="st2" d="M285.5,173.1c0,10,23.2,18.1,51.8,18.1c28.6,0,51.8-8.1,51.8-18.1v9.9c0,10-23.2,18.1-51.8,18.1
			c-28.6,0-51.8-8.1-51.8-18.1V173.1z"/>
	</g>
	<path class="st2" d="M285.5,122.7c0,10,23.2,18.1,51.8,18.1c28.6,0,51.8-8.1,51.8-18.1v9.9c0,10-23.2,18.1-51.8,18.1
		c-28.6,0-51.8-8.1-51.8-18.1V122.7z"/>
	<path class="st3" d="M314.9,65.1c6.6,0,12,3.3,12,7.3c0,4-5.4,7.3-12,7.3c-6.6,0-12-3.3-12-7.3C302.9,68.3,308.3,65.1,314.9,65.1z"
		/>
	<path class="st4" d="M298.8,183v-9.9v-40.4v-9.9V82.3v-9.9c0-0.5,0.1-0.9,0.2-1.4c0.2-0.8,0.5-1.5,0.9-2.3c0.3-0.4,0.6-0.9,0.9-1.3
		c0.3-0.4,0.7-0.9,1.2-1.3c0.1-0.1,0.3-0.3,0.4-0.4c0.3-0.3,0.6-0.5,1-0.8c0.3-0.3,0.7-0.5,1.1-0.8c0.8-0.5,1.6-1,2.5-1.5
		c0.2-0.1,0.5-0.2,0.7-0.4c1.4-0.7,2.9-1.4,4.6-2.1c1.1-0.4,2.3-0.8,3.5-1.2c0.9-0.3,1.9-0.6,2.9-0.8c0.3-0.1,0.7-0.2,1-0.3
		c0.7-0.2,1.3-0.3,2-0.5c0.3-0.1,0.7-0.2,1-0.2c0.7-0.2,1.4-0.3,2.1-0.5c0.7-0.1,1.5-0.3,2.2-0.4c1.5-0.3,3-0.5,4.6-0.7
		c0.8-0.1,1.6-0.2,2.4-0.3c0.8-0.1,1.5-0.2,2.3-0.2c2.5-0.3,5.1-0.4,7.7-0.6c-2.2-0.1-4.4-0.1-6.6-0.1c-5,0-9.8,0.2-14.3,0.7
		c-0.8,0.1-1.5,0.2-2.3,0.2c-0.8,0.1-1.6,0.2-2.4,0.3c-1.6,0.2-3.1,0.5-4.6,0.7c-0.7,0.1-1.5,0.3-2.2,0.4c-0.7,0.1-1.4,0.3-2.1,0.5
		c-0.4,0.1-0.7,0.2-1,0.2c-0.7,0.2-1.4,0.3-2,0.5c-0.3,0.1-0.7,0.2-1,0.3c-1,0.3-1.9,0.6-2.8,0.8c-1.2,0.4-2.4,0.8-3.5,1.2
		c-1.7,0.6-3.2,1.3-4.6,2.1c-0.2,0.1-0.5,0.2-0.7,0.4c-0.9,0.5-1.7,1-2.5,1.5c-0.4,0.3-0.7,0.5-1.1,0.8c-0.3,0.3-0.7,0.5-1,0.8
		c-0.2,0.1-0.3,0.3-0.5,0.4c-0.4,0.4-0.8,0.8-1.2,1.3c-0.3,0.4-0.7,0.9-0.9,1.3c-0.4,0.7-0.7,1.5-0.9,2.3c-0.1,0.5-0.2,0.9-0.2,1.4
		v9.9v40.4v9.9v40.4v9.9c0,10,23.2,18.1,51.8,18.1c2.2,0,4.4-0.1,6.6-0.1C318.5,199.8,298.8,192.2,298.8,183z"/>
	<g>
		<g>
			<path class="st5" d="M308.5,128.5c0,13.7-9.8,9.7-9.8,21.2c0,0.1,0,0.2,0,0.3c3.3,1.1,6.7,2.1,10,2.9c0,2.4,0,4.9,0,7.3
				c-5.9-1.4-11.8-3.4-17.5-5.7c0-2.3,0-4.6,0-6.9c0-15.8,9.6-10.5,9.7-21.1c0-1.6,0-3.2,0-4.8c0-0.8-0.4-1.5-1.3-1.8
				c-0.9-0.3-1.3,0.1-1.3,1c0,1.6,0,3.2,0,4.8c-2.5-0.8-4.9-1.8-7.3-2.8c0-1.6,0-3.2,0-4.8c0-4.9,1.7-7.5,8.6-5.2
				c6.9,2.2,8.9,6,8.9,10.9C308.5,125.4,308.5,127,308.5,128.5z"/>
			<path class="st5" d="M314.9,161.6c0-13.5,1.8-24.5,5.8-35.8c-3.1-0.4-6.3-1-9.4-1.7c0-2.4,0-4.9,0-7.3c5.5,1.2,11.1,2.1,16.7,2.5
				c0,2.1,0,4.1,0,6.2c-3.7,13.7-4.5,18.3-4.5,37.4C320.5,162.6,317.7,162.1,314.9,161.6z"/>
			<path class="st5" d="M340.3,154.6c0.7-2.2,1.4-4.4,2.2-6.7c1,0,2.1-0.1,3.1-0.2c-1,2.6-1.9,5.2-2.9,7.8c1.1,2.7,2.1,5.3,3.2,7.9
				c-1,0.1-2.1,0.1-3.1,0.2c-0.8-2.3-1.6-4.6-2.4-6.9c0,2.3,0,4.6,0,7c-0.9,0-1.9,0-2.8,0c0-7.4,0-14.9,0-22.3c0.9,0,1.9,0,2.8,0
				C340.3,145.8,340.3,150.2,340.3,154.6z"/>
			<path class="st5" d="M350.2,160.5c0,0.5,0.3,0.8,1.1,0.7c3.2-0.4,4.2,0.8,4.2,2.9c0,0.1,0,0.1,0,0.2c0,1.9-1,3.7-4.1,4.1
				c-3.1,0.3-4.2-1.1-4.2-3.1c0-0.1,0-0.1,0-0.2c0-1.3,0.4-2.5,1.7-3.2c-0.5-0.2-0.8-0.7-0.8-1.2c0-0.5,0.3-1,0.9-1.3
				c-1.2-0.5-1.5-1.6-1.5-3.1c0-1.7,0-3.5,0-5.2c0-2.2,0.9-3.8,3.8-4.1c0.6-0.1,1.1-0.1,1.5,0c0.4-1.3,1.2-2,2.3-2.2
				c0.4-0.1,0.6-0.1,0.9,0c0,0.7,0,1.4,0,2.1c-0.4-0.1-0.5-0.1-1.1,0c-0.4,0.1-0.8,0.3-1,0.5c0.9,0.5,1.2,1.5,1.2,2.8
				c0,1.7,0,3.5,0,5.2c0,2.2-0.9,3.8-3.9,4.1C350.5,159.6,350.2,159.9,350.2,160.5z M349.9,164.5c0,0,0,0.1,0,0.1
				c0,1,0.5,1.4,1.4,1.3c0.9-0.1,1.4-0.6,1.4-1.6c0,0,0-0.1,0-0.1c0-1-0.5-1.3-1.4-1.2C350.4,163,349.9,163.5,349.9,164.5z
				 M350.3,151.1c0,1.6,0,3.2,0,4.8c0,1.2,0.2,1.7,1,1.6c0.8-0.1,1.1-0.6,1.1-1.8c0-1.6,0-3.2,0-4.8c0-1.2-0.3-1.6-1.1-1.5
				C350.4,149.4,350.3,149.9,350.3,151.1z"/>
			<path class="st5" d="M362.5,138.2c0.7-0.1,1.4-0.3,2.1-0.5c-1.7,8.4-3.4,16.7-5.1,25c-0.7,0.1-1.4,0.3-2.2,0.4
				C359.1,154.8,360.8,146.5,362.5,138.2z"/>
			<path class="st5" d="M367,160.2c0-7.4,0-14.9,0-22.3c0.9-0.2,1.8-0.5,2.8-0.7c0,2.4,0,4.7,0,7.1c0.4-0.6,1.1-1.1,1.8-1.3
				c2.2-0.6,2.9,0.3,2.9,2.8c0,4.1,0,8.3,0,12.4c-0.9,0.3-1.8,0.6-2.7,0.8c0-4.1,0-8.3,0-12.4c0-0.8-0.3-1.2-1-1
				c-0.7,0.2-1,0.7-1,1.5c0,4.1,0,8.3,0,12.4C368.8,159.7,367.9,159.9,367,160.2z"/>
			<path class="st5" d="M377,151.6c0-2.3,1.3-3.9,4.7-6.3c0-0.7,0-1.4,0-2.2c0-0.8-0.3-1.1-0.9-0.9c-0.7,0.3-0.9,0.8-0.9,1.6
				c0,0.3,0,0.6,0,0.8c-0.9,0.3-1.8,0.6-2.7,0.9c0-0.3,0-0.6,0-0.9c0-2.1,0.9-3.9,3.6-4.9c2.8-1.1,3.6,0.1,3.6,2.2
				c0,4.1,0,8.3,0,12.4c-0.5,0.2-1,0.4-1.5,0.6c-0.2-0.2-0.3-0.4-0.5-0.6c-0.5,0.9-1.1,1.5-2.2,2c-2.1,0.8-3.1-0.1-3.1-2.6
				C377,153.1,377,152.3,377,151.6z M381.7,147.3c-1.4,1.2-2,1.9-2,3.3c0,0.6,0,1.3,0,1.9c0,0.8,0,1.7,1,1.3c0.8-0.3,1-0.9,1-1.7
				C381.7,150.6,381.7,148.9,381.7,147.3z"/>
		</g>
	</g>
</g>
<g id="raisin_x5F_leg">
	<g>
		<g>
			<line class="st6" x1="337.3" y1="238.1" x2="337.3" y2="199.9"/>
			<g>
				<path class="st7" d="M341.1,200.1c0-2.1-1.7-3.8-3.8-3.8s-3.8,1.7-3.8,3.8c0,2.1,1.7,3.8,3.8,3.8S341.1,202.2,341.1,200.1z"/>
			</g>
		</g>
	</g>
	<line class="st6" x1="319.7" y1="238.4" x2="355" y2="238.4"/>
	<g>
		<path class="st2" d="M323.3,259.1h-2.8l-1.8-14.7h2.3l0.5,6.3l0.3,5.4l0.3-5.4l0.5-6.3h2.3L323.3,259.1z"/>
		<path class="st2" d="M328.4,245.1v2.4h-2.1v-2.4H328.4z M328.4,248.6v10.5h-2.1v-10.5H328.4z"/>
		<path class="st2" d="M331.8,257.3c0,0.4,0.2,0.5,0.7,0.5c2.2,0,2.8,0.9,2.8,2.3v0.1c0,1.3-0.7,2.4-2.8,2.4c-2.1,0-2.8-1-2.8-2.4
			v-0.1c0-0.8,0.3-1.6,1-2c-0.3-0.2-0.5-0.5-0.5-0.9c0-0.4,0.2-0.7,0.6-0.9c-0.7-0.4-1-1.1-1-2.1v-3.5c0-1.5,0.6-2.5,2.6-2.5
			c0.4,0,0.7,0,1,0.1c0.3-0.8,0.8-1.3,1.5-1.3c0.3,0,0.4,0,0.6,0.1v1.6c-0.3-0.1-0.4-0.1-0.8-0.1c-0.2,0-0.4,0.1-0.5,0.1
			c0.5,0.4,0.8,1.1,0.8,2v3.5c0,1.5-0.6,2.4-2.6,2.4C332,256.8,331.8,257,331.8,257.3z M331.8,259.9L331.8,259.9
			c0,0.6,0.3,0.8,0.7,0.8s0.7-0.2,0.7-0.8v0c0-0.5-0.3-0.7-0.7-0.7C332.1,259.2,331.8,259.3,331.8,259.9z M332,250.8v3.8
			c0,0.5,0.2,0.6,0.5,0.6s0.5-0.2,0.5-0.6v-3.8c0-0.5-0.2-0.6-0.5-0.6S332,250.4,332,250.8z"/>
		<path class="st2" d="M339.9,259.1v-8.3c0-0.3-0.1-0.6-0.5-0.6c-0.3,0-0.5,0.2-0.5,0.6v8.3h-2.1v-10.5h1.2l0.4,0.5
			c0.4-0.5,0.9-0.7,1.7-0.7c1.5,0,2,0.8,2,2.4v8.3H339.9z"/>
		<path class="st2" d="M345.9,256.9c0,0.5,0.3,0.6,0.5,0.6c0.2,0,0.5-0.1,0.5-0.6v-1.6h2.1v1.5c0,1.5-0.5,2.5-2.6,2.5
			c-2.1,0-2.6-1-2.6-2.5v-5.9c0-1.5,0.6-2.5,2.6-2.5c2,0,2.6,1,2.6,2.5v3.3h-3V256.9z M345.9,252.6h1v-1.8c0-0.5-0.3-0.6-0.5-0.6
			c-0.2,0-0.5,0.1-0.5,0.6V252.6z"/>
		<path class="st2" d="M352.5,256.9c0,0.4,0.2,0.6,0.5,0.6s0.5-0.1,0.5-0.6V256c0-2.2-3.1-1.7-3.1-4.8v-0.4c0-1.5,0.7-2.5,2.6-2.5
			c2,0,2.6,0.9,2.6,2.5v1h-2.1v-1c0-0.4-0.1-0.6-0.5-0.6c-0.3,0-0.5,0.2-0.5,0.6v0.4c0,2.1,3.1,1.6,3.1,4.7v0.9
			c0,1.5-0.7,2.4-2.6,2.4c-2,0-2.6-0.9-2.6-2.4v-1.2h2.1V256.9z"/>
	</g>
</g>
<g id="raisin_x5F_picto">
	<g>
		<path class="st31" d="M355.2,65.1c0.5-0.9,0.8-2,0.8-3.1c0-3.6-2.9-6.5-6.5-6.5c-3.6,0-6.5,2.9-6.5,6.5c0,0.7,0.1,1.4,0.4,2.1
			c-0.1,0-0.1,0-0.2,0c-3.6,0-6.5,2.9-6.5,6.5c0,3.6,2.9,6.5,6.5,6.5c2,0,3.7-0.9,4.9-2.3c1.1,1.9,3.2,3.2,5.6,3.2
			c3.6,0,6.5-2.9,6.5-6.5C360.3,68.4,358.1,65.8,355.2,65.1z"/>
	</g>
	<g>
		<path class="st31" d="M346,53c0-2-0.9-3.8-2.4-5c0.7-1,1.1-2.3,1.1-3.7c0-3.6-2.9-6.5-6.5-6.5c-3.6,0-6.5,2.9-6.5,6.5
			c0,2.1,1,3.9,2.4,5.1c-0.7,1-1.1,2.3-1.1,3.6c0,3.6,2.9,6.5,6.5,6.5C343.1,59.5,346,56.6,346,53z"/>
	</g>
	<g>
		<path class="st31" d="M331,59c-2.5,0-4.7,1.4-5.8,3.5c0-0.2,0-0.5,0-0.7c0-3.6-2.9-6.5-6.5-6.5c-3.6,0-6.5,2.9-6.5,6.5
			c0,3.6,2.9,6.5,6.5,6.5c2.5,0,4.7-1.4,5.8-3.5c0,0.2,0,0.5,0,0.7c0,3.6,2.9,6.5,6.5,6.5c3.6,0,6.5-2.9,6.5-6.5
			C337.6,61.9,334.6,59,331,59z"/>
	</g>
	<path class="st32" d="M323.6,45.3c0.2,0,0.3,0.1,0.5,0.1c0.1-0.3,0.1-0.5,0.2-0.8c-6.6-7.5-14.7-10.2-17.7-10.9
		c-0.6-0.2-1.2,0.3-1.3,0.9l-0.3,4c0,0.5,0.4,1,1,0.9c6.8-0.8,13.1,2.7,17.1,5.6C323.2,45.2,323.4,45.3,323.6,45.3z"/>
	<path class="st33" d="M321.1,41.4c-3.9-2.5-9.3-4.9-15.1-4.2c-0.3,0-0.6-0.1-0.8-0.4l-0.1,1.9c0,0.5,0.4,1,1,0.9
		c6.8-0.8,13.1,2.7,17.1,5.6c0.2,0,0.4,0.1,0.5,0.1c0.2,0,0.3,0.1,0.5,0.1c0.1-0.3,0.1-0.5,0.2-0.8
		C323.3,43.4,322.2,42.4,321.1,41.4z"/>
	<g>
		<path class="st34" d="M314,56.7c0.8-1,2-1.8,3.2-2.1c0.2,0.2-1.3-1.9-0.5-5.5c0.6-2.5,4.6-3.3,6.9-3.8c-3.4-2.6-10.4-2.5-15,0.3
			c-0.4,0.2-0.5,0.8-0.2,1.1c0.6,0.7,1.8,1.8,3.4,2.7c0.4,0.2,0.5,0.8,0.1,1.1c-1.3,1.2-2.5,2.7-3.5,4.7c-0.2,0.4,0,0.9,0.5,1
			C309.9,56.6,312,56.9,314,56.7z"/>
	</g>
	<path class="st35" d="M311.3,56.3c-0.5-0.1-0.7-0.6-0.5-1c1-2,2.2-3.6,3.5-4.7c0.4-0.3,0.3-0.9-0.1-1.1c-1.6-0.9-2.7-2-3.4-2.7
		c-0.3-0.3-0.2-0.9,0.2-1.1c2.2-1.4,4.4-2,6.5-2.2c-2.6-0.2-5.7,0.2-8.8,2.2c-0.4,0.2-0.5,0.8-0.2,1.1c0.6,0.7,1.8,1.8,3.4,2.7
		c0.4,0.2,0.5,0.8,0.1,1.1c-1.3,1.2-2.5,2.7-3.5,4.7c-0.2,0.4,0,0.9,0.5,1c1,0.3,3,0.6,5,0.4C312.9,56.6,311.9,56.5,311.3,56.3z"/>
	<path class="st34" d="M331.9,40.6c0.4,0.1,0.7,0.2,1.1,0.3c0.8-1.3,2.1-2.2,3.5-2.7c0.4-2.6-0.4-5.2-0.8-6.4
		c-0.1-0.4-0.7-0.6-1.1-0.4c-2,1.1-3.4,2.4-4.5,3.8c-0.3,0.4-0.9,0.4-1.1,0c-1-1.5-2.2-2.6-2.9-3.2c-0.4-0.3-0.9-0.2-1.1,0.2
		c-2.5,4.8-1.9,9.2-0.6,12.2C325.5,41.5,328.7,39.9,331.9,40.6z"/>
	<path class="st35" d="M326.9,32.7c-0.3-0.3-0.6-0.6-0.9-0.8c-0.4-0.3-0.9-0.2-1.1,0.2c-2.5,4.8-1.9,9.2-0.6,12.2
		c0.4-0.9,0.9-1.6,1.5-2.2C325.2,39.6,325.2,36.3,326.9,32.7z"/>
	<path class="st36" d="M331.8,71.9c-3.5-0.8-5.7-4.3-4.9-7.8c0.6-2.6,2.7-4.5,5.2-5c-3.4-0.6-6.7,1.6-7.5,5c-0.8,3.5,1.4,7,4.9,7.8
		c0.9,0.2,1.8,0.2,2.6,0.1C332,72,331.9,71.9,331.8,71.9z"/>
	<path class="st36" d="M319.5,68.1c-3.5-0.8-5.7-4.3-4.9-7.8c0.6-2.6,2.7-4.5,5.2-5c-3.4-0.6-6.7,1.6-7.5,5c-0.8,3.5,1.4,7,4.9,7.8
		c0.9,0.2,1.8,0.2,2.6,0.1C319.8,68.2,319.6,68.2,319.5,68.1z"/>
	<path class="st37" d="M330.2,40.1c3.6,0,6.5,2.9,6.5,6.5c0,3.6-2.9,6.5-6.5,6.5c-3.6,0-6.5-2.9-6.5-6.5
		C323.7,43,326.6,40.1,330.2,40.1z"/>
	<path class="st38" d="M330.9,53c-3.5-0.8-5.7-4.3-4.9-7.8c0.6-2.6,2.7-4.5,5.2-5c-3.4-0.6-6.7,1.6-7.5,5c-0.8,3.5,1.4,7,4.9,7.8
		c0.9,0.2,1.8,0.2,2.6,0.1C331.2,53.1,331.1,53,330.9,53z"/>
	<path class="st39" d="M340.3,59.3c-3.5-0.8-5.7-4.3-4.8-7.8c0.6-2.6,2.7-4.5,5.2-4.9c-3.4-0.6-6.6,1.6-7.4,4.9
		c-0.8,3.5,1.4,7,4.8,7.8c0.9,0.2,1.8,0.2,2.6,0.1C340.5,59.4,340.4,59.4,340.3,59.3z"/>
	<path class="st39" d="M350.3,68.4c-3.5-0.8-5.7-4.3-4.8-7.8c0.6-2.6,2.7-4.5,5.2-4.9c-3.4-0.6-6.6,1.6-7.4,4.9
		c-0.8,3.5,1.4,7,4.8,7.8c0.9,0.2,1.8,0.2,2.6,0.1C350.5,68.4,350.4,68.4,350.3,68.4z"/>
	<path class="st39" d="M344,76.9c-3.5-0.8-5.7-4.3-4.8-7.8c0.6-2.6,2.7-4.5,5.2-4.9c-3.4-0.6-6.6,1.6-7.4,4.9
		c-0.8,3.5,1.4,7,4.8,7.8c0.9,0.2,1.8,0.2,2.6,0.1C344.2,77,344.1,77,344,76.9z"/>
	<path class="st31" d="M321.9,44.9c3.6,0,6.5,2.9,6.5,6.5c0,3.6-2.9,6.5-6.5,6.5c-3.6,0-6.5-2.9-6.5-6.5
		C315.4,47.8,318.3,44.9,321.9,44.9z"/>
	<path class="st39" d="M322.7,57.7c-3.5-0.8-5.7-4.3-4.8-7.8c0.6-2.6,2.7-4.5,5.2-4.9c-3.4-0.6-6.6,1.6-7.4,4.9
		c-0.8,3.5,1.4,7,4.8,7.8c0.9,0.2,1.8,0.2,2.6,0.1C322.9,57.8,322.8,57.7,322.7,57.7z"/>
	<path class="st40" d="M329.7,51.3c3.6,0,6.5,2.9,6.5,6.5c0,3.6-2.9,6.5-6.5,6.5c-3.6,0-6.5-2.9-6.5-6.5
		C323.3,54.2,326.2,51.3,329.7,51.3z"/>
	<path class="st41" d="M330.5,64.1c-3.5-0.8-5.7-4.3-4.8-7.8c0.6-2.6,2.7-4.5,5.2-4.9c-3.4-0.6-6.6,1.6-7.4,4.9
		c-0.8,3.5,1.4,7,4.8,7.8c0.9,0.2,1.8,0.2,2.6,0.1C330.7,64.1,330.6,64.1,330.5,64.1z"/>
	<path class="st37" d="M339.9,55.6c3.6,0,6.5,2.9,6.5,6.5c0,3.6-2.9,6.5-6.5,6.5c-3.6,0-6.5-2.9-6.5-6.5
		C333.4,58.5,336.3,55.6,339.9,55.6z"/>
	<path class="st38" d="M340.6,68.4c-3.5-0.8-5.7-4.3-4.8-7.8c0.6-2.6,2.7-4.5,5.2-4.9c-3.4-0.6-6.6,1.6-7.4,4.9
		c-0.8,3.5,1.4,7,4.8,7.8c0.9,0.2,1.8,0.2,2.6,0.1C340.8,68.4,340.7,68.4,340.6,68.4z"/>
	<path class="st36" d="M354.5,77.8c-3.5-0.8-5.7-4.3-4.9-7.8c0.6-2.6,2.7-4.5,5.2-5c-3.4-0.6-6.7,1.6-7.5,5c-0.8,3.5,1.4,7,4.9,7.8
		c0.9,0.2,1.8,0.2,2.6,0.1C354.8,77.9,354.6,77.9,354.5,77.8z"/>
</g>
</svg>
