<?xml version="1.0" encoding="utf-8"?>
<!-- Generator: Adobe Illustrator 22.0.0, SVG Export Plug-In . SVG Version: 6.00 Build 0)  -->
<svg version="1.1" xmlns="http://www.w3.org/2000/svg" xmlns:xlink="http://www.w3.org/1999/xlink" x="0px" y="0px"
	 viewBox="0 0 581.9 163.3" style="enable-background:new 0 0 581.9 163.3;" xml:space="preserve">
<style type="text/css">
	.st0{clip-path:url(#SVGID_2_);}
	.st1{fill:#C94742;}
	.st2{fill:#FFFFFF;}
	.st3{fill:#6C7E7E;}
	.st4{font-family:'HeroicCondensed-Heavy';}
	.st5{font-size:21px;}
	.st6{fill:#2C2110;}
	.st7{font-family:'HeroicCondensed-Black';}
	.st8{font-size:30.5412px;}
	.st9{font-size:20px;}
	.st10{fill:none;stroke:#2D2211;stroke-miterlimit:10;}
	.st11{fill:#2D2211;}
	.st12{clip-path:url(#SVGID_4_);}
	.st13{fill:#4D72BA;}
	.st14{fill:#C94742;stroke:#453F37;stroke-width:0.5;stroke-miterlimit:10;}
	.st15{clip-path:url(#SVGID_6_);}
	.st16{fill:#EDD048;}
	.st17{clip-path:url(#SVGID_8_);}
	.st18{fill:#6AB061;}
</style>
<g id="autriche_x5F_pays">
	<g>
		<defs>
			<path id="SVGID_1_" d="M542.7,16.8l-1.6,0.2v1.9c0,0,0.3,1.4,0.3,1.6c0,0.1-0.4,1.1-0.5,1.4c-0.2,0-2.3,0-2.3,0l-0.7,1.2
				l-0.6,1.1c0,0-0.1,1.1-0.2,1.2c0,0.1-0.1,0.2-0.3,0.4c-0.3-0.2-0.8-0.5-0.8-0.5s-0.9-0.1-1-0.1c-0.1-0.1-1.4-0.9-1.4-0.9
				s-0.5,0.9-0.6,1c0,0-0.7,0.8-0.8,0.8c-0.1,0-0.7,0.3-0.8,0.4c-0.2-0.1-0.9-0.5-0.9-0.5s-1.7-0.4-1.8-0.4c0,0-0.5-0.3-0.7-0.4
				c0-0.2-0.3-1.4-0.3-1.4l-1.1-1.8c0,0-1.1,0-1.1,0c-0.1,0-1.3-0.4-1.3-0.4l-0.1,0.7c0,0,0.1,1.4,0.1,1.6c0,0.1-0.5,1.3-0.5,1.4
				c0,0-0.6,0.9-0.8,1.2c-0.2,0-1-0.1-1.2-0.1c-0.1-0.2-0.9-1.1-0.9-1.1l-2,0.4l-0.5,1.5c0,0-0.1,1.6-0.1,1.7
				c-0.1,0.1-0.6,1.1-0.7,1.2c-0.1,0.1-1.2,1-1.2,1.1c-0.1,0-0.9,0.2-0.9,0.3c-0.1,0-1.8,0-1.8,0l-1.6,0.5c0,0-0.6,0.6-0.6,0.6
				c-0.1,0-1.6,0.9-1.6,0.9l-1.9,1.1v2.2l1,1.1c0,0,1.1,1.2,1.2,1.3c0,0.1,0.6,1.3,0.7,1.5c0,0.2-0.4,1.5-0.4,1.6c-0.1,0.1-1,1-1,1
				l0.4,1.2l1.5,0.3c0,0,0.3,0.1,0.4,0.1c0.1,0.2,0.4,0.7,0.5,0.9c-0.1,0.2-0.7,1.2-0.7,1.2s-0.3,1.5-0.3,1.6
				c-0.1,0.1-0.4,0.5-0.5,0.8c-0.3-0.2-0.8-0.5-0.8-0.5s-1.1-0.6-1.3-0.7c-0.1-0.1-0.6-1-0.7-1.1c0-0.1-0.2-1.5-0.2-1.5l-1-0.7
				l-1.2-0.3c0,0-1.1,0.7-1.2,0.8c-0.1,0-0.4,0-0.5,0c-0.1-0.1-0.8-0.7-0.8-0.7l-0.8-0.8c0,0-0.7-0.1-0.8-0.2c0,0-1.1-0.5-1.1-0.5
				l-1.3,0.2l-0.3,1.5c0,0-0.1,0.4-0.2,0.7c-0.2,0-0.5,0-0.6,0c-0.1,0-1-0.4-1-0.4l-1-0.3l-0.1,0c0,0-0.6,0.1-1.4,0.1
				c-0.7,0-1-0.2-1-0.2l-0.1-0.1l-0.1,0l-1.5,0.1l-1.9,0.3c0,0-0.1,0.8-0.2,1.1c-0.3,0.1-1.2,0.4-1.2,0.4c-0.1,0-1.1,0-1.1,0l-0.8,1
				c0,0-0.3,0.4-0.4,0.6c-0.2,0-0.5,0-0.5,0s-0.8,0.5-1,0.7c-0.2-0.1-1.4-0.7-1.4-0.7l-0.9,0.2c0,0-0.6,0.3-0.7,0.4
				c-0.1,0-0.8-0.1-1-0.1c0-0.2-0.1-0.5-0.1-0.5s-1-0.7-1.1-0.9c0-0.1,0-0.4,0-0.4l-0.5-1.2c0,0-1.5-0.6-1.6-0.6
				c0,0-1.4-0.9-1.4-0.9h-1l-1.5-0.2l-1.1,0.2l-0.7,1.4c0,0,0.4,0.9,0.5,1c0,0.1,0.1,0.7,0.1,0.9c-0.1,0.1-0.3,0.6-0.4,0.7
				c-0.1,0.1-0.7,0.4-0.7,0.4l-0.9,0.8c0,0-0.7,0.6-0.9,0.8c-0.2,0-0.4-0.1-0.7-0.2c0,0,0.2-0.2,0.2-0.2l-0.4-1.5
				c0,0-0.7,0.2-0.9,0.3c-0.1-0.2-0.2-0.5-0.3-0.6c0-0.2,0.2-1.5,0.2-1.5l-0.8-0.8c0,0-0.5-0.1-0.8-0.1c0-0.3-0.1-1.3-0.1-1.3
				s-1-0.2-1.1-0.2c0,0-1-0.4-1.1-0.4c-0.1-0.1-1-1-1-1l-0.8,0.6c0,0-0.6,0.5-0.8,0.7c-0.2,0-0.9-0.1-0.9-0.1h-1.7
				c0,0,1.3,1.5,1.4,1.6c0,0.2,0.2,1.9,0.2,2.1c-0.2,0.2-0.9,0.8-0.9,0.8l-1.3,1.3l-0.6,1c0,0,0.6,0.2,0.7,0.3
				c0.1,0.1,0.7,0.7,0.7,0.8c0,0,0.4,0.6,0.4,0.7c0,0.1,0,0.4,0,0.4v1l-0.1,1.3c0,0,0.6-0.1,0.7-0.1c0.1,0,1,0.2,1,0.2
				c0.1,0,1.2,0.5,1.5,0.6c0,0.3-0.1,1.5-0.1,1.5l1.5,1.1l2,1.2l1.8,0.2c0,0,2-2,2.2-2.2c0.2,0,1.2,0,1.6,0c0,0.4,0.2,1.3,0.2,1.3
				c0,0,0,3.1,0,3.1s1.2-1.3,1.3-1.5c0.2,0,1.1-0.1,1.3-0.1c0.1,0.1,0.9,0.5,1,0.5c0.1,0.1,0.9,1.4,0.9,1.4l0,0c0.2,0.2,0.9,1,1.4,1
				c0.4,0,1.7-0.1,1.8-0.2c0.1,0,0.8,0,1.3-0.3c0.5-0.3,0.8-1.6,0.9-1.9c0-0.1,0.5-0.8,0.5-0.9c0.1-0.1,1-0.7,1.1-0.8
				c0.1,0,1-0.1,1-0.1l1.8-0.1h1.4l2.8,0.1h2.8c0,0,1.6-1.1,1.8-1.2c0.2,0,1.8,0.1,2.2,0.1c0.1,0.4,0.4,2,0.4,2l0.2,1.8
				c0,0,1.4,0.5,1.6,0.6c0.1,0.2,0.2,1.1,0.2,1.1c0,0.1,0,1.4,0,1.4l1.7,1.6c0.1,0.1,1.3,0.9,1.9,1.1l2.7,0.6h0c0,0,1.5,0,1.8,0
				c0.1,0.2,0.9,1.2,0.9,1.2l0.1,0c0.1,0,1.6,0.2,2.5,0.2c0,0,1.7,0,1.9,0c0.2,0.1,1.1,0.4,1.5,0.4c0.4,0,2.7,0.1,2.9,0.1
				c0.1,0,1,0.4,1.1,0.4c0.1,0,1.4,1,1.4,1l1,0.6l0.7-0.1c0,0,2.1-0.1,2.1-0.1c0.1,0,1.1,0.2,1.2,0.2c0.1,0,1.1,0.5,1.1,0.5
				s0.7,0.2,0.9,0.3c0.1,0.2,0.5,1,0.5,1l1.5-0.1c0,0,2.6,0,2.8,0c0.1,0.1,1.3,0.7,1.3,0.7l1.7,0.2c0,0,0.6-0.9,0.7-1
				c0.2-0.1,2-0.7,2-0.7l0.9-1c0,0,0.5-1.2,0.6-1.3c0.1-0.1,0.7-0.4,0.8-0.4c0,0,1.5-0.5,1.6-0.6c0.1,0,1.3-0.1,1.3-0.1h1.6
				c0,0,1.3-0.1,1.4-0.1c0.1,0.1,0.8,0.4,0.8,0.4s1.4,0.5,1.5,0.5c0.1,0,1.1,0.7,1.1,0.7l0.7-0.9c0,0,0.2-0.4,0.3-0.5
				c0.1-0.1,0.8-0.5,0.9-0.5c0.4-0.1,1-0.2,1.2-0.2c0,0,1.7,0,1.7,0c0,0,1.2,0.2,1.3,0.2c0.1,0,1.4,0.8,1.4,0.8l0.7-0.7l-0.3-1.4
				c0,0-0.4-1.1-0.5-1.3c0.1-0.1,0.3-0.3,0.3-0.4c0.1,0,0.9-0.4,0.9-0.4c0.3-0.1,0.7-0.4,0.8-0.4l0,0l1.4-1.4c0,0,1.4-1.3,1.6-1.5
				c0.2,0,2.2,0,2.2,0l0.8-1.1l0.2-1.9l-0.9-1.2c0,0-0.5-0.5-0.7-0.7c0.1-0.2,0.3-0.5,0.3-0.5c0.1-0.1,1.1-0.7,1.1-0.7l-0.2-1.4
				c0,0-0.3-0.5-0.4-0.6c0-0.2,0.2-0.7,0.2-0.8c0.2-0.1,0.5-0.2,0.6-0.3c0.1,0,1.3,0.1,1.3,0.1l0.7-0.9l0.9-1.8l-0.5-1.7l-0.8-0.9
				c0,0-1.2-0.2-1.4-0.2c-0.1-0.1-0.4-0.4-0.6-0.5c0.2-0.2,0.4-0.5,0.4-0.5c0.1,0,0.8-0.7,0.8-0.7s0.3-0.2,0.4-0.3
				c0.2,0.1,0.9,0.5,0.9,0.5s1.4,0.9,1.4,1c0.2,0.2,0.7,0.5,1.4,0.2c0.6-0.2,1.1-0.6,1.3-0.8c0.2,0,1.2,0.1,1.2,0.1l1.2-0.1v-1.7
				l-0.4-1.2c0,0-0.1-0.4-0.2-0.7c0.2-0.1,0.4-0.2,0.4-0.2l1-0.5v-2.2l-0.4-1.1l-0.6-1.6l-1.2-2.6l-0.8-1.5l-0.7-1.1
				c0,0-0.6-0.8-0.7-1c0.1-0.2,0.5-1.4,0.5-1.6c0.1-0.1,1-1,1-1l0.4-1.7c0,0,0-1.2,0-1.3c0-0.1,0.8-1.9,0.8-1.9s-3,0-3.2,0
				c-0.1-0.1-1.6-0.9-1.7-1c-0.1-0.1-1.2-1.2-1.2-1.2h-2.8c0,0-0.6,1.2-0.7,1.5c-0.3,0-2.2,0-2.3,0c-0.1,0-2-0.7-2.1-0.7
				c-0.1,0-0.9-0.6-1-0.7c-0.1-0.1-1.2-1.5-1.2-1.5l-1.2-0.9c0,0-1.2,0.5-1.5,0.6c-0.2-0.2-1.2-1.1-1.2-1.1l-2.4-1.1l-2-0.8
				l-1.3,0.3c0,0-0.4,0.4-0.6,0.6c-0.1,0-0.3,0-0.5,0c-0.1-0.3-0.3-1.3-0.3-1.3H542.7z"/>
		</defs>
		<clipPath id="SVGID_2_">
			<use xlink:href="#SVGID_1_"  style="overflow:visible;"/>
		</clipPath>
		<g class="st0">
			<rect x="457" y="55.5" class="st1" width="116" height="19.4"/>
			<rect x="457" y="36.1" class="st2" width="116" height="19.4"/>
			<rect x="457" y="16.8" class="st1" width="116" height="19.4"/>
		</g>
		<use xlink:href="#SVGID_1_"  style="overflow:visible;fill:none;stroke:#2D2211;stroke-width:0.5;stroke-miterlimit:10;"/>
	</g>
</g>
<g id="autriche_x5F_leg">
	<g id="chiffre_7_">
		<text transform="matrix(1 0 0 1 499.0193 128.0658)"><tspan x="0" y="0" class="st3 st4 st5">Autriche</tspan><tspan x="-6.9" y="25" class="st6 st7 st8">5</tspan><tspan x="3.9" y="25" class="st6 st7 st9">,</tspan><tspan x="7.8" y="25" class="st6 st7 st8">6</tspan><tspan x="18.9" y="25" class="st6 st4 st5"> kg/ha</tspan></text>
	</g>
	<g>
		<g>
			<line class="st10" x1="523.3" y1="106.8" x2="523.3" y2="71.2"/>
			<g>
				<path class="st11" d="M527.1,71.4c0-2.1-1.7-3.8-3.8-3.8s-3.8,1.7-3.8,3.8c0,2.1,1.7,3.8,3.8,3.8S527.1,73.5,527.1,71.4z"/>
			</g>
		</g>
	</g>
	<line class="st10" x1="500.6" y1="106.8" x2="546" y2="106.8"/>
</g>
<g id="france_x5F_pays">
	<g>
		<defs>
			<path id="SVGID_3_" d="M405.6,12l-0.2,0.1c-0.5,0.2-1.1,0.2-1.7,0.2l-0.5,0c-1.2,0-2.7,0.3-3.1,1.9c-0.2,0.6-0.3,1.5-0.3,2.1
				c0,0.2-0.1,0.3-0.2,0.4c-0.1,0.2-0.2,0.3-0.2,0.5c0,0,0,0,0,0c0,0.3,0.1,0.6,0.3,0.9c0,0,0,0.1,0.1,0.1c-0.8-0.3-1.2-0.1-1.7,0.3
				c-0.2,0.1-0.4,0.3-0.7,0.4l-0.3,0.2c-1,0.5-1.8,1-3,0.7c-1.1-0.3-1.9,0.1-2.9,0.9c-0.3,0.3-0.5,0.5-0.5,0.8c0,0,0,0,0,0
				c0,0.3,0.3,0.6,0.6,0.9c0.1,0.1,0.2,0.2,0.3,0.4c-0.1,0-0.1,0.1-0.1,0.1c-0.1,0.1-0.2,0.2-0.3,0.2c-0.1,0-0.2,0-0.3-0.1
				c-0.2-0.1-0.4-0.2-0.6-0.1c-0.4,0.3-1,0.2-1.5,0.1l-0.4-0.1c-0.1,0-0.2-0.1-0.2-0.2c-0.1-0.1-0.2-0.2-0.3-0.3
				c-0.4-0.1-0.8-0.2-1.2-0.2l-0.3,0c-0.4-0.1-0.8-0.2-1.2-0.3c-0.3-0.1-0.7-0.3-1.1-0.3c0,0,0-0.3,0-0.5c0-0.3,0-0.7-0.1-0.8
				c-0.1,0-0.1-0.1-0.1-0.1c0-0.1,0.1-0.2,0.2-0.3c0.1-0.1,0.3-0.3,0.2-0.6c-0.1-0.8-0.6-1.1-1.3-1.1c-1,0-1.4-0.3-2.2-0.9l0,0
				l-0.2,0.1l0.1,0.2c0.2,0.3,0.5,0.8,0.4,1c0,0,0,0,0,0.1c-0.3,0.2-0.3,0.7-0.3,1.1l0,0.4c0,0.1,0.1,0.3,0.5,1.1l0.2,0.4
				c0,0.1,0.1,0.2,0.2,0.3c0.1,0.1,0.2,0.2,0,0.4l-0.1,0.1c-0.2,0.2-0.5,0.5-0.2,1c0.3,0.4,0.2,0.7,0,1c-0.1,0.2-0.3,0.5-0.3,0.8
				c-0.1,0.6,0.1,0.8,0.4,1.1c0.1,0.1,0.2,0.2,0.3,0.3l0,0c-0.1,0.1-1.2,0.2-1.4,0.2c-0.7-0.2-0.8-0.7-0.8-1.4v-0.1l-0.3,0.1
				c-0.3,0.1-0.7,0.2-0.8,0.4c0,0,0,0.1,0,0.1c0,0.1,0,0.1,0,0.3c0,0,0,0.1,0,0.1c-0.4,0-0.9-0.4-1.1-0.6c-0.8-0.7-1.6-0.3-2.3,0.1
				c0,0-0.1,0-0.1,0.1c-0.1-0.3-0.2-0.6-0.3-0.9c-0.2-0.8-0.4-1.6-0.9-2.1c-0.2-0.3-0.6-0.4-0.9-0.4c-0.7,0.1-0.8,0-1.3-0.4
				l-0.1-0.1l-0.2,0.4c-0.2,0.3-0.4,0.7-0.7,0.8c-0.1,0-0.2-0.1-0.4-0.2c-0.1-0.2-0.3-0.4-0.5-0.2l0,0c-0.1,0.1-0.2,0.1-0.2,0.1
				c0,0-0.1-0.1-0.2-0.2l0,0c-0.3-0.2-0.6-0.2-0.9-0.1c-0.2,0-0.4,0-0.6,0c-1-0.4-1.9-0.4-2.8,0c-0.4,0.2-0.6,0.7-0.7,1.2
				c-0.1,0.2-0.1,0.4-0.2,0.5l-0.1,0.1l0.1,0c0.3,0.1,0.5,0.2,0.8,0.2c0.7,0.2,1.4,0.4,1.9,0.8c0,0,0.1,0.1,0.1,0.1
				c0,0.1-0.3,0.1-0.4,0.1l-0.5-0.2c-0.3-0.1-0.6-0.3-0.9-0.4l-0.2-0.1l0,0.2c0.1,0.4,0.4,0.6,0.7,0.8c0.2,0.2,0.4,0.3,0.4,0.5
				c0,0.3-0.1,0.4-0.2,0.5c-0.2,0.2-0.7,0-1.1-0.1c-0.2-0.1-0.5-0.1-0.7-0.1l-0.1,0.2c1,0.6,1.4,1,1.1,2.1c-0.1,0.2,0.1,0.4,0.3,0.5
				c0.2,0.1,0.5,0.1,0.6,0c0.3-0.4,0.5-0.5,0.9-0.7v0c0,0.3,0.1,0.4,0.2,0.5c0.1,0.1,0.1,0.2,0.2,0.4c0.1,0.4,0.2,0.4,0.4,0.5
				c0.1,0,0.2,0,0.4,0.1c0.4,0.1,0.6,0.3,0.8,0.6c0.2,0.2,0.5,0.3,0.7,0.4c0.2,0.1,0.4,0.1,0.5,0.2l0.1,0.1c0.3,0.4,0.4,0.5,0.7,0.3
				c-0.2,0.6-0.2,1-0.2,1.6v0.4l0.4-0.7c0.1-0.1,0.1-0.2,0.2-0.4c0.1-0.1,0.2,0,0.4,0c0.1,0,0.3,0.1,0.4-0.1
				c0.1-0.1,0.1-0.2,0.3-0.2c0.3-0.1,0.8,0.2,1.1,0.5c0,0-0.1,0-0.1,0c-0.3,0.2-0.6,0.3-0.9,0.2l-0.3-0.1l0.2,0.2
				c0.4,0.5,0.6,0.5,0.9,0.5c0.1,0,0.3,0,0.5,0c0.1,0,0.1,0,0.1,0.1c0,0.1-0.1,0.3-0.2,0.5c-0.1,0.2-0.3,0.5-0.3,0.7
				c0.1,0.7,0.6,1.1,1.4,1.1c0.8,0,1.3,0.1,1.8,0.5c-0.3,0-0.5,0-0.7-0.1c-0.4-0.1-0.8-0.2-1.3,0.3l-0.1,0.1l0.1,0.1
				c0.4,0.3,0.6,0.5,0.6,0.7c0,0,0,0,0,0c0,0.2-0.1,0.5-0.5,0.8c-0.1-0.2-0.4-0.7-0.4-0.7l-0.2,0c0,1.3,0.4,2.5,0.8,3.6
				c0.1,0.4,0.3,0.8,0.4,1.2c0.1,0.5,0.7,0.8,1.3,1.2c0.8,0.5,1.3,0.9,1.3,1.4c0,0.1,0,0.1,0,0.2c-0.1-0.1-0.1-0.1-0.1-0.1
				c-0.3-0.3-0.6-0.6-1-0.6c-0.2,0-0.4,0.1-0.6,0.4l-0.1,0.1l0.1,0.1c1,0.5,1.9,1.1,2,1.8c0,0.1,0,0.1,0,0.2c0,0.3-0.1,0.6-0.4,1
				c-0.1-0.2-0.6-1.6-0.6-1.6c0-0.1-0.2-0.2-0.3-0.1c-0.2,0.1-0.5,0.4-0.5,0.7c0,0,0,0,0,0c0,0.4,0.2,0.7,0.4,1
				c0.3,0.2,0.3,0.4,0.3,0.6c0,0.1-0.1,0.3-0.1,0.5l-0.1,0.3c0,0,0,0.1,0,0.1c0,0.4,0.6,1,1.3,1.7c0.2,0.2,0.4,0.4,0.5,0.5
				c0.4,0.6,0.6,1.8,0.6,2.9c0,0.2,0,0.4,0,0.6c-0.3-0.5-0.3-1.1-0.3-1.8l0-0.5c0-0.5-0.4-0.9-0.8-1.4c-0.3-0.3-0.5-0.6-0.6-0.9
				l-0.1-0.2l-0.3,0.5c-0.3,0.5-0.5,0.9-0.6,1.5c-0.1,0.8-0.3,1.4-0.6,2c-0.4,0.6-0.7,1.2-0.7,2c0,0,0,0.1,0,0.1
				c0,0.2,0.2,0.3,0.3,0.5c0.1,0.1,0.3,0.2,0.3,0.4c-1,0-1.2,1.1-1.4,2c-0.1,0.4-0.1,0.7-0.3,1c-0.3,0.7-0.7,1.4-1.1,2.1
				c-0.5,0.9-1,1.8-1.4,2.8c0,0-0.2,0.3-0.2,0.3c-0.4,0.6-0.8,1.3-1.5,1.4l-0.7,0.1l0,0.1l0.2,0.6c0,0,0.4,0.1,0.5,0.1
				c0,0.1,0,0.3,0,0.3s0.8,0.2,0.8,0.2c0,0,0.4,0.2,0.6,0.3c-0.1,0.1-0.2,0.3-0.2,0.4c0,0-0.5,0.6-0.5,0.6l0,0.5l0.5,0.1
				c0,0,0.4,0,0.4,0c0.1,0,0.5,0.4,0.5,0.4s0.8,0.3,0.8,0.4c0,0,0.6,0.6,0.6,0.6s0.8,0.1,0.8,0.1c0,0,0.3,0.3,0.3,0.3
				c0,0,0.2,0.5,0.2,0.5c0,0,0.1,0.5,0.1,0.5l0.4,0.5c0,0,1-0.2,1-0.2c0,0,0.5,0.1,0.5,0.1c0,0,0.5,0.5,0.5,0.5l0.4,0.5l0.4,0.3
				l0.9,0.1c0,0,0.4,0,0.5,0c0.1,0.1,0.4,0.3,0.5,0.3c0.1,0,0.4,0.2,0.4,0.2l0.1,0l0.1,0c0,0,0.2-0.1,0.4,0l0.7,0.3l0.5-0.1
				c0,0,0.1-0.6,0.1-0.6c0,0,0.2-0.2,0.2-0.2c0,0,0.3,0,0.3-0.1c0.1,0,0.5,0.3,0.5,0.3c0,0,0.4,0.3,0.4,0.3l0.5,0.3l0,0
				c0,0,0.1,0,0.2,0.1c0.1,0.1,0.3,0.4,0.4,0.5l0,0l0.7,0.4c0,0,0.4,0,0.6-0.1c0,0.1,0,0.4,0,0.4s0.1,0.2,0.2,0.3
				c0,0-0.1,0.1-0.1,0.1s0.5-0.1,0.6-0.1c0,0,0.4,0,0.5,0c0,0,0.4,0.3,0.4,0.3s0.2,0.2,0.3,0.2c0,0.1-0.1,0.3-0.1,0.3
				c0,0-0.2,0.5-0.2,0.5s0.2,0,0.2,0c0,0,0.6,0.3,0.6,0.3c0,0,0.3,0.3,0.3,0.3c0,0.1,0.2,0.7,0.2,0.7l0.5,0.3l0.4-0.2l0.4-0.2
				c0.1,0,0.3-0.1,0.3-0.1c0.1,0,0.4,0.2,0.7,0.3c0,0,0.4,0.3,0.4,0.3l0.5,0.4l0.8,0.2l0.4-0.1c0,0,0.1-0.4,0.2-0.5
				c0.1,0,0.6,0,0.6,0s0.3-0.2,0.4-0.2c0,0,0.5,0,0.5,0c0,0,0.5,0.2,0.5,0.2c0,0,0.3,0.2,0.3,0.2l0.3,0l0-0.1c0-0.2,0-0.3,0-0.4
				c0.1-0.3,0.1-0.4-0.5-0.8c-0.1,0-0.1-0.1-0.1-0.2c0-0.2,0.2-0.5,0.4-0.8c0.3-0.4,0.5-0.7,0.3-1c-0.2-0.3-0.2-0.6-0.1-0.9
				c0.1-0.4,0.2-0.8-0.1-1.3c0-0.1,0-0.1,0-0.1c0,0,0.3,0,0.4,0.1c0.5,0.2,0.6-0.1,0.8-0.3c0.1-0.1,0.1-0.2,0.2-0.3
				c0.1,0,0.3-0.1,0.4-0.2c0.3-0.1,0.8-0.4,0.9-0.2c0.3,0.3,0.7,0,1.1-0.2c0.2-0.1,0.4-0.2,0.5-0.3c0.5-0.1,0.7-0.4,1-0.6
				c0.3-0.3,0.6-0.6,1.2-0.4c0.3,0.1,0.4,0.1,0.5,0.1c0,0,0,0.1,0,0.1c0,0.1,0.1,0.2,0.3,0.3c0.2,0.1,0.4,0.2,0.6,0.3
				c0.3,0.1,0.5,0.2,0.8,0.4l0.4,0.3c0.4,0.3,0.8,0.7,1.3,0.7c0.3,0,0.6-0.1,0.7-0.2c0.1-0.1,0.1-0.2,0.1-0.3c0.6,0.7,0.9,1.1,2,1.1
				h0.1c0.1,0,0.4,0,0.5,0.1c0,0.1,0,0.2,0,0.4c0,0.2,0,0.3,0,0.4l0,0l0.1,0.2c0.2-0.1,0.9,0.4,1.2,0.6l0.1,0.1l0.2,0.2
				c0.2,0.1,0.3,0.2,0.4,0.3c0,0.1,0.1,0.4,0.1,0.5c0,0.2,0,0.2,0.1,0.3c0.2,0.1,0.4,0,0.5-0.2c0.2-0.2,0.3-0.2,0.4-0.2l0.1,0.1
				c1.1,0.8,1.3,0.9,1.4,0.8c0,0,0.1-0.1,0.1-0.1c0-0.1,0-0.3-0.1-0.5c0-0.1-0.1-0.3-0.1-0.3c0,0,0,0,0.3,0c0.1,0,0.2,0.1,0.3,0.1
				c0.2,0.1,0.4,0.3,0.6,0.2c0.3-0.2,0.6-0.3,1-0.3l0.2,0c0.3,0,0.7-0.1,0.8-0.3c0.1-0.1,0-0.3-0.1-0.6c-0.1-0.2-0.1-0.3-0.1-0.5
				c0.1-0.3,0.4-0.5,0.8-0.6c0.1,0,0.2,0,0.3,0c0.2,0,0.5,0,0.7-0.2c0-0.1,0.1-0.1,0.1-0.2c0,0,0-0.1,0-0.2c0.1,0,0.3-0.1,1-0.2
				l0.1,0c0.2,0,0.4-0.2,0.6-0.4c0.1-0.1,0.3-0.3,0.4-0.3c0.1,0,0.2,0,0.3,0c0.2,0,0.4,0,0.5-0.1c0,0,0.1,0,0.5-0.1l0.1,0
				c0,0,0-0.2,0-0.3c0,0,0.1-0.1,0.1-0.1c0,0,0.3-0.2,0.3-0.2s-0.3-0.4-0.3-0.5c0-0.1,0-0.2,0-0.2c0.1,0,0.5-0.3,0.5-0.3l0.6-0.4
				c0,0,0.3-0.5,0.3-0.5c0,0,0.4-0.3,0.4-0.3s-0.3-0.5-0.4-0.5c0-0.1,0-0.3,0-0.3s-0.9,0.1-0.9,0.1c0,0-0.7,0-0.8-0.1
				c0,0-0.5-0.3-0.5-0.3s-0.8-0.3-0.8-0.3c0,0-0.6-0.5-0.6-0.5s-0.3-0.3-0.4-0.4c0,0-0.2-0.5-0.2-0.5s-0.1-0.2-0.1-0.3
				c0-0.1,0.2-0.3,0.2-0.3l-0.1-0.4c0,0-0.1-0.2-0.1-0.2c0,0,0-0.1,0-0.2c0,0,0.3-0.4,0.3-0.4c0,0,0.3-0.3,0.3-0.3s0.1-0.3,0.1-0.4
				c0.1,0,0.2,0,0.2,0l0.6-0.1l-0.2-0.4c0,0-0.2-0.4-0.3-0.4c0,0,0-0.2,0-0.2l-0.1-0.3c0,0-0.9-0.3-0.9-0.3c0,0-0.2-0.2-0.3-0.3
				c0-0.1,0.2-0.6,0.2-0.6l-0.2-0.5c0,0-0.4-0.3-0.4-0.3c0,0-0.1-0.2-0.1-0.3c0.1,0,0.5-0.1,0.5-0.1c0,0,0.5,0.1,0.5,0.1
				c0,0,0.5,0.2,0.5,0.2s0.4-0.3,0.5-0.3c0,0,0.6-0.1,0.6-0.1l0.4-0.2l0.3-0.4l0,0c0,0,0.1-0.2,0.1-0.4c0,0,0-0.1,0-0.1
				c0-0.1-0.1-0.4-0.1-0.4c0,0,0-0.5,0-0.5s-0.5-0.4-0.5-0.4c0,0-0.1-0.2-0.1-0.2c0,0-0.1-0.4-0.1-0.4c0,0,0.1-0.5,0.1-0.5l-0.1-0.8
				c0,0-0.5-0.5-0.6-0.5c0-0.1,0-0.3,0-0.4c0.1,0,0.5-0.3,0.5-0.3c0,0,0.6-0.1,0.6-0.1s0-0.4,0-0.4c0,0,0.1-0.6,0.1-0.6l-0.2-0.7
				c0,0-0.2-0.2-0.3-0.2c0-0.1-0.1-0.5-0.1-0.5s-0.4-0.1-0.6-0.1c0-0.1,0-0.2,0-0.3c0.1-0.1,0.8-0.6,0.8-0.6s-0.5-0.4-0.6-0.4
				c0-0.1,0-0.3,0-0.3c0,0,0.3-0.4,0.3-0.4L421,53l-0.6-0.2l-0.8,0.1c0,0-0.1,0.2-0.1,0.2c-0.1,0-0.8,0-0.8,0s-0.3,0.6-0.4,0.6
				c0,0-0.4,0.3-0.4,0.3s0.3,0.5,0.3,0.6c-0.1,0-0.3,0.1-0.3,0.1s-0.7,0.4-0.7,0.4c-0.1,0-0.3-0.1-0.5-0.2c0.1-0.1,0.2-0.2,0.2-0.2
				c0,0,0.6-0.4,0.6-0.4s0.1-0.5,0.1-0.6c0,0,0.2-0.2,0.2-0.2l-0.1-0.5c0,0-0.2-0.2-0.3-0.2c0.1-0.1,0.2-0.2,0.2-0.2l0.3-0.5
				c0,0,0-0.2,0.1-0.3c0.1,0,0.7-0.4,0.7-0.4l0.7-0.6l0.5-0.5c0,0,0-0.8,0-0.9c0,0,0.2-0.3,0.2-0.3c0.1,0,0.8-0.3,0.8-0.3
				s0.5-0.3,0.5-0.4c0,0,1.1-0.5,1.1-0.5l0.7-0.9l0.6-0.7l-0.2-0.5c0,0-0.4,0-0.4,0c0,0-0.1,0-0.3-0.1c0.1-0.1,0.3-0.3,0.3-0.4
				c0,0,0.4-0.1,0.4-0.1c0,0,0.5,0,0.5,0c0,0,0.3,0.2,0.3,0.3c0,0,0.3,0.4,0.3,0.4h0.8l0.4-0.1c0,0,0.2-0.3,0.2-0.4
				c0,0,0.3-0.2,0.3-0.2l0.4-0.4l-0.1-0.5c0,0-0.1-0.3-0.2-0.3c0,0,0-0.6,0-0.6c0,0,0.2-0.2,0.2-0.2l0.1-0.3c0,0,0.1-0.4,0.2-0.5
				c0,0,0.2-0.3,0.2-0.3l0.3-0.3l0-0.4c0,0-0.2-0.4-0.2-0.4c0,0,0-0.3,0-0.3c0,0,0.1-0.1,0.1-0.1s0.1-0.3,0.1-0.4
				c0,0,0.3-0.5,0.3-0.5c0,0,0.4-0.4,0.4-0.4l0.1-0.3l0.2-0.5c0.1-0.2,0.1-0.3,0.1-0.3l0,0c0-0.1,0.2-0.2,0.2-0.2l0.2-0.5
				c0,0,0-0.4,0-0.4c0,0,0.1-0.2,0.2-0.3c0.1,0,0.2-0.1,0.2-0.1l0.4-0.4c0,0,0.4-0.4,0.4-0.4c0,0,0.4-0.3,0.4-0.3l0,0
				c0,0,0.2-0.3,0.3-0.4c0.1-0.1,0.2-0.3,0.3-0.4c0.1,0,0.2-0.2,0.3-0.4l0,0l0.1-0.5c0,0-0.4,0-0.5,0c-0.1,0-0.4-0.3-0.4-0.3
				l-0.3-0.1c0,0-0.7,0-0.7,0c-0.2-0.1-0.8-0.4-0.9-0.4c0,0-0.1-0.1-0.2-0.2l0,0c0,0-0.3-0.1-0.3-0.1c0,0-0.2-0.1-0.3-0.1
				c0,0-0.4-0.5-0.4-0.5c-0.1-0.1-0.2-0.1-0.5-0.2c0,0-0.6-0.3-0.6-0.3c-0.1-0.1-0.2-0.1-0.4-0.1c-0.1,0-0.3,0-0.4,0
				c0,0-0.2-0.2-0.2-0.2l-0.2-0.1c0,0-0.7,0-0.7,0c0,0-0.4,0-0.5,0c0-0.1-0.2-0.3-0.2-0.3c0,0-0.1-0.6-0.1-0.6l-0.1-0.4
				c0,0-0.3-0.5-0.3-0.5c0,0,0-0.3,0-0.3l-0.3-0.3l-0.3-0.1c0,0-0.3,0-0.4,0c0,0-0.2-0.1-0.2-0.1c0,0-0.2-0.2-0.2-0.2l-0.4-0.1h-0.4
				c0,0-0.1,0.2-0.2,0.2c0,0-0.2,0-0.2,0c0,0-0.2,0-0.3,0c0-0.1-0.1-0.2-0.1-0.2l-0.3-0.3c0,0-0.2-0.2-0.2-0.2c0,0-0.2-0.3-0.2-0.3
				l-0.3,0H419l-0.6,0c0,0-0.3,0-0.4,0c0-0.1-0.1-0.1-0.1-0.2c0,0,0,0,0,0c0-0.1,0-0.3,0.1-0.4l0-0.1c0,0-0.3-0.3-0.4-0.3
				c0,0-0.1-0.2-0.1-0.2l-0.4-0.4c0,0-0.3-0.2-0.4-0.2c0-0.1-0.2-0.4-0.2-0.4l-0.5-0.5c0,0-0.4-0.1-0.4-0.1c0,0-0.2-0.1-0.3-0.2
				c0-0.1,0-0.3,0-0.4c0.1,0,0.4-0.1,0.4-0.1l-0.1-0.5c0,0-0.2-0.2-0.3-0.2c0,0,0-0.1,0-0.1v0c0,0,0.1-0.1,0.1-0.2c0,0,0,0,0,0
				c0,0,0.1-0.1,0.1-0.2c0.1-0.1,0.2-0.2,0.2-0.2l0,0c0,0,0,0,0,0c0.1-0.1,0.1-0.1,0.1-0.2c0,0,0-0.1,0-0.1c0-0.1,0-0.1,0-0.2
				c0,0,0,0,0-0.1c0-0.1-0.1-0.1-0.1-0.1c0,0-0.1,0-0.1,0c-0.2-0.1-0.5,0-0.6,0l-0.5,0.3c0,0,0,0.3,0,0.3c0,0-0.2,0.2-0.2,0.2
				c-0.1,0-0.2,0.1-0.3,0.2c0,0-0.2,0.1-0.3,0.1c-0.1,0-0.5,0-0.6-0.1c-0.2-0.1-0.3-0.1-0.3-0.1l0,0c0,0-0.6-0.1-0.7-0.2
				c0,0-0.2-0.2-0.2-0.3c0-0.1,0.1-0.6,0.1-0.6c0.1-0.3,0.2-0.8,0.2-0.9c0,0,0.1-0.1,0.2-0.2l0,0l0-0.5l-0.2-0.3l-0.2-0.3l-0.5-0.2
				c0,0-0.3,0-0.4,0c0-0.1-0.2-0.3-0.2-0.3s-0.5-0.4-0.5-0.4c0,0-0.3-0.5-0.3-0.5l0,0c-0.2-0.1-0.8-0.5-1-0.5l-0.1,0
				c-0.1,0-0.3,0-0.4-0.1c-0.1-0.1-0.2-0.2-0.2-0.2c0,0-0.1-0.4-0.1-0.4l-0.1-0.7l-0.2-0.7l-0.9-0.2c-0.5-0.1-1-0.2-1.1-0.3
				c0,0,0,0,0,0c0,0,0-0.1,0-0.2l0-0.1c0,0-0.3-0.3-0.4-0.3c0-0.1-0.1-0.3-0.1-0.3s-0.1-0.5-0.1-0.5c0,0,0.1-0.5,0.1-0.5l0.1-0.8
				l-0.2-0.6L405.6,12z M361.9,23L361.9,23c-0.2,0-0.2,0.3-0.2,0.4l0,0.2l0.1,0l0.1,0c0.3,0.1,0.4,0.2,0.5,0l0.3-0.6l-0.1,0
				C362.3,23,362.2,23,361.9,23z M368.3,31.9c-0.1,0.1-0.2,0.3-0.2,0.4c0,0.1,0.1,0.3,0.2,0.4l0.1,0.1l0,0c0.1,0,0.2,0,0.3-0.1
				c0.1-0.1,0.1-0.2,0.2-0.3c0-0.2-0.4-0.5-0.4-0.5C368.4,31.8,368.3,31.9,368.3,31.9z M368.9,34.3c-0.1,0-0.2,0.1-0.3,0.3
				c-0.2,0.4,0.1,0.7,0.4,0.9c0.3,0.3,0.4,0.3,0.8,0.2l0.1,0l0-0.2c0-0.2,0-0.4-0.1-0.4l-0.1-0.1c-0.1-0.1-0.2-0.1-0.2-0.2
				C369.4,34.6,369.2,34.3,368.9,34.3z M370.3,34.4c-0.1,0-0.2,0-0.3,0.2l-0.1,0.1c0,0,0.3,0.2,0.3,0.2c0,0,0.1,0.1,0.1,0.1
				c0.1,0.1,0.2,0.2,0.4,0.1c0.1,0,0.1-0.1,0.1-0.2c0-0.1,0-0.1-0.1-0.2l-0.1-0.1C370.6,34.5,370.5,34.4,370.3,34.4z M371.8,40.7
				l-0.1,0l0,0.1c0.1,0.3,0.1,0.5,0.3,0.6c0.1,0.1,0.3,0,0.6-0.1l0.1,0l-0.1-0.1C372.4,40.8,372.3,40.6,371.8,40.7z M432.3,82.6
				L432.3,82.6c-0.3,0.2-0.4,0.5-0.4,0.8l0.1,1c0,0.3-0.1,0.4-0.3,0.5c-0.1-0.2-0.3-0.5-0.7-0.5l-0.1,0c-0.1,0-0.3,0-0.4,0.2
				l-0.1,0.1c0,0.1-0.1,0.3-0.2,0.3c-0.1,0-0.2,0-0.3,0c-0.2,0-0.4,0-0.6,0.1c-0.3,0.2-0.6,0.3-1,0.3c-0.2,0-0.7,0.3-0.7,0.6
				c0,0.3-0.1,0.4-0.3,0.6l-0.1,0.1c0,0-0.1,0.1-0.2,0.1l-0.1,0c-0.1,0-0.2,0.1-0.2,0.2c0,0,0,0,0,0.1c0,0.1,0.1,0.2,0.1,0.3l0,0.1
				c0.1,0.2,0.2,0.3,0.4,0.4l0,0c-0.4,0.1-0.8,0.1-0.8,0.4c0,0,0,0,0,0c0,0.3,0.2,0.6,0.4,0.8l0,0.1c0.1,0.1,0.2,0.2,0.3,0.2
				c0.1,0.1,0.2,0.1,0.2,0.2c0,0,0,0.1,0,0.1c0,0.2-0.3,0.4-0.5,0.5l-0.1,0.1c-0.2,0.1-0.2,0.2-0.2,0.3v0c0,0.2,0.3,0.3,0.5,0.4
				c0.1,0,0.2,0,0.3,0c0.2,0,0.3,0,0.3,0.1c0.1,0.2,0,0.3-0.2,0.4l-0.2,0.1c-0.1,0.1-0.4,0.5-0.4,0.7c0,0.1,0,0.1,0.1,0.1
				c0.1,0.1,0.2,0,0.3,0l0.1,0c0.3,0.1,0.6,0.2,0.9,0.3c0,0,0,0,0.1,0c0,0-0.1,0.1-0.3,0.1L428,93l-0.1,0.2
				c-0.1,0.1-0.2,0.2-0.2,0.4c0,0.1,0,0.2,0.1,0.3c0.2,0.2,0.4,0.4,0.7,0.7c0.1,0.1,0.2,0.1,0.4,0.2c0.1,0.1,0.2,0.1,0.3,0.2
				c0,0,0.1,0.2,0.1,0.2l0,0.1c0,0.2,0.1,0.3,0.2,0.3c0.2,0.1,0.4,0,0.6-0.1c0.2-0.1,0.6-0.3,0.6-0.6l0-0.2c0-0.3,0-0.6,0.2-0.8
				l0.3-0.4c0.1-0.1,0.3-0.3,0.4-0.5c0.3-0.4,0.2-0.7,0.1-1v0l0-0.2c-0.1-0.4-0.1-0.7,0.2-1l0.3-0.2c0.1-0.1,0.3-0.2,0.4-0.4
				c0.5-0.6,0.5-1.1,0.5-1.8l0-0.7c0-0.4,0-0.9,0-1.3l0-0.1c0-0.2,0-0.4-0.4-0.4c0,0,0,0,0,0c0,0,0-0.1,0-0.1l0-0.1
				c0-0.1,0.1-0.3,0.1-0.4c0.1-0.1,0.1-0.3,0.1-0.4l0-0.2c0-0.2,0-0.5,0.1-0.7l0,0c0.1-0.3,0.3-0.6,0.1-0.9l0-0.1
				c-0.1-0.2-0.1-0.3-0.4-0.3h-0.1C432.6,82.5,432.5,82.5,432.3,82.6z"/>
		</defs>
		<clipPath id="SVGID_4_">
			<use xlink:href="#SVGID_3_"  style="overflow:visible;"/>
		</clipPath>
		<g class="st12">
			<rect x="361.7" y="11.9" class="st13" width="23.8" height="83.7"/>
			<rect x="385.6" y="11.9" class="st2" width="23.8" height="83.7"/>
			<rect x="409.4" y="11.9" class="st1" width="23.8" height="83.7"/>
		</g>
		<use xlink:href="#SVGID_3_"  style="overflow:visible;fill:none;stroke:#2D2211;stroke-width:0.5;stroke-miterlimit:10;"/>
	</g>
</g>
<g id="france_x5F_leg">
	<g id="chiffre_6_">
		<text transform="matrix(1 0 0 1 378.8419 128.0658)"><tspan x="0" y="0" class="st3 st4 st5">France</tspan><tspan x="-10.7" y="25" class="st6 st7 st8">2</tspan><tspan x="-0.3" y="25" class="st6 st7 st9">,</tspan><tspan x="3.6" y="25" class="st6 st7 st8">1</tspan><tspan x="12.5" y="25" class="st6 st4 st5"> kg/ha</tspan></text>
	</g>
	<g>
		<g>
			<line class="st10" x1="398" y1="106.8" x2="398" y2="75.2"/>
			<g>
				<path class="st11" d="M401.8,75.4c0-2.1-1.7-3.8-3.8-3.8s-3.8,1.7-3.8,3.8c0,2.1,1.7,3.8,3.8,3.8S401.8,77.5,401.8,75.4z"/>
			</g>
		</g>
	</g>
	<line class="st10" x1="379.6" y1="106.8" x2="416.4" y2="106.8"/>
</g>
<g id="suisse_x5F_pays">
	<g>
		<path class="st14" d="M289.4,18.1l-3,2.3l2.7,1.7c0,0,1.3,0,2,0c-0.1,0.3-0.2,0.5-0.2,0.7c-0.5-0.1-1.7-0.5-1.7-0.5
			s-1.7,1.7-1.9,1.9c-0.2,0-0.7,0-0.8,0c-0.1-0.1-1-0.5-1-0.5l-2-1.1h-1.9c0,0-0.7,0.9-0.8,1.1c-0.2,0-1.2,0.2-1.2,0.2
			s-1.6,0.2-1.9,0.2c-0.2-0.2-0.8-0.8-0.8-0.8l-1.8-0.3c0,0-1.8,0.2-2.2,0.2c-0.2-0.3-1-1.6-1-1.6l-2-0.3c0,0-1.4,1.4-1.5,1.5
			c-0.1,0-1.4,0.8-1.4,0.8s-0.6,1-0.8,1.3c-0.3,0.1-1.1,0.2-1.1,0.2c-0.1,0-2.1,0-2.5,0c-0.2-0.2-1-1.2-1-1.2l-1.5-1.2h-2.4
			l-1.8,0.6l-2.1,2.4l2.2,0.7c0,0,0.8,0,1.1,0c0.1,0.3,0.2,0.6,0.3,0.9c-0.3,0.3-2,2.2-2,2.2s-2.5,3-2.6,3.2c-0.2,0.1-4,1.9-4,1.9
			s-1.8,1.3-1.9,1.3c-0.1,0-3,1.4-3,1.4l-0.9,1.5c0,0,0,2.9,0,3.2c-0.2,0.2-1.4,1.7-1.5,1.7c-0.1,0-2.6,2.1-2.6,2.1
			c-0.1,0-3.1,1.7-3.1,1.7s-0.3,1.1-0.3,1.2c-0.1,0.1-1,1.7-1,1.8c-0.1,0.1-1.4,1.4-1.4,1.4s1.4,1.1,1.6,1.3c0,0.2,0.2,1,0.2,1.3
			c-0.2,0.2-0.7,0.7-0.7,0.7s-0.5,1.8-0.5,2.1c-0.2,0.2-2.1,1.3-2.1,1.3l-1.4,1.8l3.1,1.4c0,0,3-1.7,3.1-1.7c0.1,0,2-0.7,2-0.7
			s-1.1-2-1.4-2.5c0.4-0.2,1.1-0.7,1.1-0.7s1.1-1.7,1.3-2c0.4,0,2.9,0,2.9,0s0.4-0.6,0.6-0.8c0.3,0,2.6-0.2,2.7-0.2
			c0.1,0,1.8,0.4,2,0.5c0.1,0.2,1.2,1.4,1.6,1.8c-0.3,0.3-1,1.2-1,1.2v2c0,0,1.1,0.8,1.6,1.1c-0.6,0.4-2.4,1.7-2.4,1.7v2.2
			c0,0,1.8,0.2,2.2,0.3c0.1,0.4,0.2,1.5,0.2,1.5s0.9,0.7,1.1,0.8c0.1,0.2,0.7,2.1,0.7,2.2c0,0.2-0.3,2.1-0.3,2.1l0.1,1.6
			c0,0,0.9-0.1,1.1-0.2c0.2,0.1,3.1,1,3.1,1l2.4-1.1c0,0,1.5-1.2,1.7-1.4c0.2,0,2,0,2.2,0c0.1,0.1,2.7,1.2,2.7,1.2s2.1,1,2.2,1
			c0.2,0.1,1,0.7,1.7,0.4l2.6-0.8c0,0,0.8-1.2,0.9-1.3c0.1-0.1,0.6-0.6,1.3-0.9c0.9-0.4,1.9-1.7,1.9-1.7l1.4-1.4l0.5-1.3
			c0,0-1.4-1.8-1.5-1.9c0,0,0-0.1-0.1-0.2c0.6,0,1.6,0,1.6,0l1.4-0.9c0,0,0.8-1.3,0.8-1.4c0.1-0.1,1.1-0.9,1.1-0.9
			c0.1,0,1.1-0.5,1.1-0.6c0,0,0.6-0.2,0.9-0.3c0.2,0.3,0.8,0.9,0.9,1.1c0,0.2-0.1,1-0.2,1.1c-0.1,0.1-1,1.2-1,1.2l-0.2,1.7l0.9,1.6
			c0,0,1.1,1.1,1.2,1.2c0.1,0.1,1,2,1,2l0.9,0.7c0,0,2.6,0.8,2.6,0.8c0.1,0,0.9,0.5,1.2,0.7c0,0.4,0.2,2.2,0.2,2.2l0.2,2.6l0,1.1
			l1.5,1.5l2.5-0.8l0.2-2.3c0,0-1.1-1.1-1.4-1.4c0.1-0.3,0.4-0.9,0.4-1c0.2-0.1,2.2-1.4,2.2-1.4s0.8-2,0.8-2.1
			c0.1-0.1,1.3-1.5,1.3-1.5c0,0,1.2-1,1.3-1.1c0.3-0.1,1-0.4,1.2-1.7c0.2-1.4,0.2-3,0.2-3.1c0,0,0-2,0-2.1c0-0.1,0.2-0.4,0.3-0.7
			c0.4,0,1.5,0.2,1.6,0.2c0.1,0,1.2,0.5,1.5,0.7c0,0.5,0,3.4,0,3.4l0.5,1.4l3.2,2.8l1.5-1.7c0,0,0.5-0.6,0.7-0.9c0.3,0,2.7,0,2.7,0
			s1.7-0.2,1.7-0.2c0,0.1,0.1,0.1,0.1,0.2c0.6,1.1,0.8,2.1,0.8,2.1l0,0l0.4,1.3l1.7,1.4l1.1-2.1v-0.1c0,0,0-0.5-0.2-1.1
			c0,0-0.3-1-0.3-1.2c0.1-0.2,0.3-0.5,0.7-1c0.7-0.9,0.7-1.8,0.7-1.9v-0.4c0,0-1.7-0.2-2.2-0.2c0-0.2,0-0.4,0-0.4
			c0.2-1.1,0.6-2.3,0.8-2.5c0.4-0.2,1.7-0.6,2.6-0.9c0.3,0.4,1.6,2.6,1.6,2.6h3.9l1-2.9c0,0-1.7-1.7-2-2c0.1-0.3,0.5-1.4,0.5-1.5
			c0.1-0.1,1.6-1.7,1.6-1.7l0.2-0.2v-3.4l-0.3-2.5h-3.2c0,0-2.7,2.7-2.9,2.9c-0.3,0-1.7-0.2-1.9-0.2c-0.1-0.1-2.6-1.6-2.6-1.6
			s-1.4-1-1.7-1.2c0-0.4,0.1-2.2,0.1-2.2l-2.6-1.1l-1.6-0.3c0,0-1.6,0.2-1.9,0.2c-0.2-0.1-1-0.6-1.3-0.8c0.1-0.4,0.3-1.4,0.3-1.4
			s-0.2-1.5-0.3-1.7c0.1-0.2,1.3-2.4,1.4-2.4c0.1-0.1,1.7-1.7,1.7-1.7l1.5-1.4l-0.3-3.6l-1.7-2l-3.8-3l-3.3-1.9l-3.1-1.1
			c0,0-2.7,0-2.9,0c-0.2-0.1-2.7-1.5-2.8-1.5c-0.1-0.1-1.2-1.2-1.3-1.3c0-0.1-1.2-1.8-1.2-1.8L289.4,18.1z"/>
		<polygon class="st2" points="292.4,38.3 283,38.3 283,28.9 275,28.9 275,38.3 265.6,38.3 265.6,46.3 275,46.3 275,55.7 283,55.7 
			283,46.3 292.4,46.3 		"/>
	</g>
</g>
<g id="suisse_x5F_leg">
	<g id="chiffre_12_">
		<text transform="matrix(1 0 0 1 261.0511 128.0656)"><tspan x="0" y="0" class="st3 st4 st5">Suisse</tspan><tspan x="-4.5" y="25" class="st6 st7 st8">2</tspan><tspan x="5.9" y="25" class="st6 st4 st5"> kg/ha</tspan></text>
	</g>
	<g>
		<g>
			<line class="st10" x1="280" y1="107.4" x2="280" y2="62.5"/>
			<g>
				<path class="st11" d="M283.8,62.7c0-2.1-1.7-3.8-3.8-3.8c-2.1,0-3.8,1.7-3.8,3.8c0,2.1,1.7,3.8,3.8,3.8
					C282.1,66.5,283.8,64.8,283.8,62.7z"/>
			</g>
		</g>
	</g>
	<line class="st10" x1="263" y1="107.4" x2="297" y2="107.4"/>
</g>
<g id="allemagne_x5F_pays">
	<g>
		<defs>
			<path id="SVGID_5_" d="M157.4,9.2L157.4,9.2l0,0.2c0,0.4,0,0.8,0.1,0.9c0.1,0.1,0.1,0.1,0.2,0.1c0.1,0,0.2-0.1,0.3-0.2
				c0.2-0.3,0.5-0.6,1.2-0.3c0.2,0.1,0.4,0.2,0.4,0.2c-0.1,0-0.2,0-0.3,0.1c-0.4,0.1-0.8,0.1-0.9,0.4c0,0.1-0.1,0.1-0.1,0.2
				c0,0,0,0.1,0,0.1l0,0.2c0.1,0.3,0.1,0.8,0.6,0.8l0.4,0c0.6-0.1,1-0.1,1.1,0.4c0.1,0.2,0.1,0.3,0.1,0.5c0,0.3-0.1,0.5-0.4,0.7l0,0
				l0,0c-0.1,0.2-0.1,0.3-0.1,0.5c0,0,0,0,0,0c0,0,0,0,0,0c-0.1,0.1-0.5,0-0.7,0l-0.4-0.1l0,0.2v1.5c0,0,1-0.1,1.2-0.1
				c-0.2,0.1-0.2,0.3-0.3,0.5c0,0,0,0,0,0.1c0,0.3,0.2,0.6,0.5,0.9c-0.2,0.1-1,0.5-1,0.5l0.1,0.1c0.6,0.6,1.2,1,1.8,1.3
				c0.4,0.2,0.9,0.5,1.3,0.8c0.3,0.2,0.3,0.5,0.4,0.8c0,0.2,0.1,0.4,0.2,0.7c0.2,0.3,0.4,0.6,0.6,0.9c-0.6-0.3-0.9-0.7-1.3-1.2
				l-0.3-0.4l-0.1-0.1c-0.8-1-1-1.3-2.4-1.2c-0.3,0-0.5-0.1-0.8-0.3c-0.3-0.2-0.5-0.3-0.8-0.2c-0.2,0.1-0.3,0.3-0.5,0.6
				c-0.1,0.1-0.1,0.5-0.1,1c-0.1,0.7-0.1,1.6-0.3,1.9c-0.1,0-0.3-0.3-0.4-0.4c-0.2-0.3-0.5-0.6-0.7-0.5c-0.2,0.1-0.2,0.3-0.3,0.6
				l0,0.5c0,0.3,0,0.5-0.1,0.6c-0.1,0-0.2,0-0.6-0.1c-0.3-0.1-0.4-0.2-0.4-0.4c-0.1-0.3,0.2-0.6,0.4-0.7l0.1-0.1
				c0.2-0.4,0-0.9-0.3-1.2c-0.2-0.3-0.5-0.5-0.8-0.5c-0.6,0.1-2.8-0.1-3.1-0.1c-0.4-0.1-0.8,0.1-1.3,0.4c-0.6,0.5-1.1,1.4-1.2,2
				c0,0.3,0.3,0.4,0.6,0.4c0.2,0,0.4,0.1,0.5,0.2c0.1,0.2,0.1,0.4,0.1,0.5c-0.1,0.1-0.2,0.1-0.3,0.1l-0.2,0c0,0,0.1,0.5,0.1,0.6
				c0,0.1-0.2,0.6-0.2,0.6s0.1,0.7,0.1,0.7c0,0,0,0.5,0,0.6c0,0-0.4,0.7-0.4,0.7c0,0-0.6,0.3-0.6,0.3l-0.1,0.5l-0.1,0.6
				c0,0,0,0.4,0,0.5c0,0-0.2,0.3-0.2,0.3s0,0.1,0,0.2c-0.1,0-0.2,0.1-0.2,0.1c-0.1,0-0.3-0.1-0.3-0.1c0,0-0.4-0.2-0.4-0.2h-0.5
				l-0.6,0.1c0,0-0.1,0.4-0.1,0.4c0,0-0.1,0.4-0.1,0.5c0,0-0.2,0.2-0.2,0.2l0.2,0.5l0.6,0.4l0.6,0.2c0,0,0.3,0.1,0.4,0.1
				c0,0.1,0.2,0.4,0.2,0.4c0,0,0,0.3,0,0.3c0,0-0.1,0.3-0.1,0.3s0,0.5,0,0.6c0,0-0.1,0.2-0.1,0.3c-0.1,0-0.4,0-0.4,0l-0.4,0.5
				c0,0-0.2,0.2-0.2,0.3c-0.1,0-0.6,0-0.6,0l-0.5,0.1l-0.1,0.5l0.4,0.4c0,0,0.1,0,0.2,0.1c0,0.1,0,0.2,0,0.2c0,0-0.1,0.2-0.1,0.2
				c-0.1,0-0.3,0.2-0.3,0.2s-0.1,0.1-0.2,0.2c-0.1-0.1-0.3-0.3-0.3-0.3s-0.3,0.2-0.3,0.3c0,0-0.2,0-0.2,0s-0.2,0.2-0.3,0.3
				c-0.1,0-0.3-0.1-0.3-0.1c0,0-0.3-0.2-0.3-0.2l-0.2-0.1c0,0-0.3,0-0.3,0c-0.1,0-0.3-0.2-0.3-0.2l-0.6-0.4c0,0-0.2,0.3-0.2,0.4
				c-0.1,0-0.3,0-0.3,0l-0.7,0.1l-0.3,0.6l0.2,0.6c0,0,0.4,0.7,0.4,0.7c0,0,0.1,0.4,0.1,0.4l0.1,0.3c0,0,0.3,0.5,0.3,0.5
				c0,0,0.1,0.6,0.1,0.6s0,0.4,0,0.5c0,0-0.1,0.3-0.1,0.4c0,0-0.2,0.3-0.2,0.3c0,0-0.4,0.3-0.4,0.3s-0.3,0.3-0.3,0.3
				c0,0-0.6,0.4-0.6,0.4l0.3,0.4c0,0,0.1,0,0.2,0.1c0,0.1-0.1,0.2-0.1,0.2s-0.1,0.3-0.1,0.3c-0.1,0-0.3,0.2-0.4,0.2
				c-0.1,0-0.4,0-0.4,0l-0.5,0.1l-0.3,0.4l0.3,0.5c0,0,0.3,0.1,0.4,0.1c0,0.1,0.2,0.3,0.2,0.4c0,0,0,0.3,0,0.4c0,0,0,0.2,0,0.2
				c0,0-0.3,0.4-0.3,0.4l-0.3,0.7l0.3,0.3c0,0,0.2,0.1,0.2,0.2c0,0.1,0.1,0.4,0.1,0.4l0.2,0.5c0,0,0.3,0.1,0.4,0.1c0,0,0,0,0,0.1
				c-0.1,0.1-0.3,0.4-0.3,0.4l-0.2,0.5l0.7,0.4c0,0,0.2,0.1,0.2,0.2c0,0.1,0,0.4,0,0.5c0,0-0.2,0.2-0.2,0.2s0.2,0.3,0.2,0.4
				c-0.1,0.1-0.2,0.2-0.2,0.2c0,0-0.6,0.2-0.6,0.2l-0.4,0.5c0,0-0.1,0.2-0.2,0.3c0,0-0.2,0-0.2,0s0,0.5,0,0.6c0,0.1-0.3,0.5-0.3,0.5
				l0,0.3v0.5c0,0,0.3,0.3,0.4,0.4c0,0,0.1,0.3,0.1,0.3l0.3,0.7l0.4,0.3c0,0,0.3,0.2,0.4,0.2c0,0,0.2,0.2,0.3,0.3c0,0.1,0,0.4,0,0.4
				c0,0,0,0.2,0,0.2c-0.1,0.1-0.5,0.4-0.5,0.4s-0.2,0.3-0.2,0.3c0,0-0.3,0.4-0.3,0.4s0,0.3,0,0.3c0,0-0.2,0.2-0.2,0.2l-0.3,0.6
				l0.3,0.2c0,0,0.4,0,0.4,0c0,0,0.2,0.1,0.2,0.1c0,0,0.2,0.2,0.3,0.3c0,0.1,0,0.3,0,0.3s0.3,0.6,0.3,0.6c0,0,0.1,0.5,0.1,0.5
				l0.1,0.8l0.4,0.5l0.7,0.1c0,0,0.8,0,0.8,0c0,0,0.1,0,0.2,0c0,0,0.2,0.2,0.2,0.2l0,0c0,0,0.4,0.1,0.6,0.1c0.1,0,0.2,0.1,0.3,0.1
				l0.7,0.3l0,0c0.2,0,0.4,0.1,0.5,0.1c0,0.1,0.5,0.6,0.5,0.6l0,0l0.4,0.2c0,0,0.3,0.1,0.3,0.1c0.1,0.1,0.3,0.3,0.4,0.3
				c0.1,0,0.7,0.3,1,0.5l0,0c0,0,0.8,0,0.9,0c0,0,0.3,0.1,0.3,0.1c0,0,0.5,0.4,0.5,0.4s0.2,0,0.3,0c0,0.1-0.1,0.2-0.1,0.3
				c-0.1,0.1-0.2,0.3-0.2,0.3c-0.2,0.1-0.4,0.6-0.4,0.6c0,0.1-0.2,0.3-0.3,0.4c0,0-0.5,0.3-0.5,0.3l-0.5,0.5c0,0-0.4,0.4-0.4,0.4
				c0,0-0.3,0.1-0.3,0.1l-0.3,0.5c0,0,0,0.4,0,0.5c0,0-0.2,0.5-0.2,0.6c0,0-0.3,0.3-0.3,0.3l0,0.1c0,0,0,0,0,0c0,0,0,0.1-0.1,0.3
				l-0.2,0.6c0,0-0.1,0.2-0.1,0.3c0,0-0.4,0.4-0.4,0.4l-0.4,0.6c0,0-0.1,0.3-0.1,0.4c0,0-0.2,0.2-0.2,0.2l0,0.6c0,0,0.2,0.4,0.2,0.5
				c0,0.1,0,0.3,0,0.3c-0.1,0.1-0.3,0.3-0.3,0.3l-0.3,0.4l-0.2,0.6c0,0-0.1,0.3-0.1,0.3c0,0-0.2,0.3-0.2,0.3v0.9
				c0,0,0.2,0.4,0.2,0.4c0,0,0.1,0.7,0.1,0.7s0.1-0.1,0.1-0.1c0.1,0,0.3,0.1,0.4,0.1c0.1,0.1,0.3,0.5,0.3,0.5s0.8-0.1,0.8-0.1
				c0,0,0.4,0.1,0.4,0.1c0,0,0.3,0.3,0.3,0.3l0.7-0.1l0.5-0.1c0,0,0.2-0.2,0.2-0.3c0.1,0,0.4,0,0.4,0c0.1,0,0.6,0.3,0.6,0.3l0.4,0.2
				h0.4c0,0,0.5-0.5,0.6-0.6c0.1,0,0.6,0.2,0.6,0.2l0.3-0.8c0,0-0.8,0-0.9,0c0,0-0.3-0.2-0.5-0.3c0.2-0.1,0.5-0.4,0.6-0.5
				c0.1,0,0.4-0.1,0.6-0.1c0.1,0.1,0.3,0.4,0.3,0.4l0.4,0.4l1,0.5c0,0,0.9,0,0.9,0c0,0,0.9,0.3,0.9,0.3c0,0,1,0.6,1,0.6
				c0,0,1.1,0.9,1.2,0.9c0,0,0.1,0.1,0.1,0.1s0.5,0,0.5,0c0,0,0.5,0.1,0.5,0.1L158,79c0,0,0.1-0.1,0.2-0.1c0.1,0.1,0.3,0.3,0.3,0.3
				l0.5,0.2c0,0,0.2,0,0.3,0c0,0.1,0.1,0.6,0.1,0.6s0.4,0.1,0.4,0.1c0,0,0.1,0.1,0.2,0.2c0,0.1-0.1,0.6-0.1,0.6l0.2,0.5
				c0,0,0.2-0.1,0.4-0.1c0,0.1,0.1,0.2,0.1,0.2c-0.1,0.1-0.3,0.3-0.3,0.3l0.8,0.3l0.5-0.4c0,0,0.4-0.3,0.4-0.3c0,0,0.3-0.2,0.3-0.2
				l0.2-0.4l-0.1-0.5c0,0-0.1-0.3-0.2-0.3c0-0.1,0.2-0.3,0.2-0.4c0.1,0,0.3,0,0.3,0c0,0,0.6,0.1,0.6,0.1s0.3,0,0.4,0
				c0.1,0,0.5,0.4,0.5,0.4s0.5,0.2,0.6,0.2c0,0.1,0.1,0.3,0.2,0.4c0,0,0,0.2,0,0.2s0.5,0.3,0.5,0.4c0,0.1,0.1,0.3,0.1,0.3l0.7,0.1
				c0,0,0.3-0.2,0.3-0.2c0,0,0.2,0,0.2,0c0.1,0,0.7,0.3,0.7,0.3s0.4-0.3,0.5-0.3c0.1,0,0.3,0,0.3,0s0.2-0.3,0.2-0.4
				c0,0,0.2-0.3,0.3-0.3c0.1,0,0.4,0,0.4,0l0.7-0.2c0,0,0-0.3,0.1-0.4c0.1,0,0.6-0.1,0.6-0.1s0.5,0,0.6-0.1c0.1,0,0.2,0.1,0.5,0.1
				c0.3,0,0.5,0,0.6-0.1c0.1,0,0.3,0.1,0.3,0.1l0.5,0.2h0.5l0.2-0.5c0,0,0.1-0.4,0.1-0.5c0.1,0,0.3,0,0.3,0c0.1,0,0.4,0.2,0.4,0.2
				s0.2,0,0.3,0.1c0,0,0.3,0.3,0.3,0.3l0.4,0.3h0.4c0,0,0.4-0.3,0.5-0.3c0.1,0,0.3,0.1,0.4,0.1c0,0,0.2,0.2,0.3,0.2
				c0,0.1,0.1,0.6,0.1,0.6l0.3,0.6l0.6,0.3l0.5,0.3l0.4-0.6c0,0,0.1-0.7,0.1-0.7c0,0,0.3-0.6,0.3-0.6l-0.3-0.6l-0.3-0.1
				c0,0-0.4-0.1-0.5-0.1c0-0.1-0.1-0.2-0.1-0.2c0.1-0.1,0.3-0.3,0.3-0.3l0.2-0.8l-0.3-0.7l-0.5-0.6c0,0-0.3-0.3-0.3-0.4
				c0-0.1,0-0.6,0-0.7c0.1-0.1,0.7-0.4,0.7-0.4l0.7-0.4c0,0,0.2-0.2,0.2-0.2c0.1,0,0.5-0.2,0.6-0.2c0,0,0.8,0,0.8,0l0.5-0.1l0.6-0.5
				l0.3-0.6c0,0,0.1-0.7,0.1-0.8c0,0,0.1-0.4,0.2-0.5c0.1,0,0.4-0.1,0.5-0.1c0.1,0.1,0.4,0.4,0.4,0.4l0.8,0.1l0.4-0.6l0.3-0.7
				c0,0-0.1-0.7-0.1-0.7c0,0,0.1-0.8,0.1-0.8l-0.6-0.7l-0.9-0.9c0,0-0.4,0.1-0.5,0.1c-0.1,0-0.4-0.3-0.5-0.3c0,0-0.5-0.5-0.6-0.5
				c0-0.1-0.2-0.7-0.2-0.7S181,66,180.9,66c-0.1-0.1-0.5-1.1-0.5-1.1s-0.4-0.6-0.4-0.6c0,0-0.3-0.5-0.3-0.5l-0.6-0.2
				c0,0-0.4,0-0.5,0c-0.1-0.1-0.5-0.5-0.5-0.5c0,0-0.3-0.4-0.3-0.4c0-0.1-0.1-0.8-0.1-0.8s-0.3-0.4-0.4-0.4c0-0.1,0-0.7,0-0.7
				l-0.3-0.6c0,0-0.2-0.1-0.4-0.2c0.1-0.2,0.5-0.9,0.5-0.9l0.3-0.8l-0.3-0.9c0,0-0.9-0.4-0.9-0.4c0,0-0.5-0.5-0.6-0.5
				c0-0.1-0.1-0.4-0.1-0.4s-0.4-0.8-0.4-0.8c0,0,0-0.5-0.1-0.5c0,0,0,0,0.1-0.1c0.1,0.1,0.2,0.3,0.2,0.3c0,0.1,0.1,0.6,0.1,0.6
				l0.7,0.3c0,0,0.1-0.5,0.1-0.6c0,0,0.2-0.4,0.2-0.4l0,0c0,0,0.1-0.2,0.3-0.4c0.2-0.2,0.5-0.6,0.6-0.6c0,0,0.4-0.3,0.4-0.3
				c0.1,0,0.4-0.1,0.4-0.1c0,0,0.5,0.1,0.5,0.1s0.3-0.2,0.4-0.3c0.1,0.1,0.3,0.2,0.4,0.2c0,0,0.4,0.4,0.4,0.4l0.4-0.2l0.2-0.4
				c0,0,0.2-0.4,0.2-0.4c0,0,0.2-0.1,0.2-0.2c0,0,0.1,0,0.2-0.1c0,0,0,0,0,0c0.3,0.1,0.5,0.2,0.5,0.2l0.1,0.1l0.3-0.6
				c0,0,0.1-0.3,0.1-0.3c0,0,0.4-0.4,0.4-0.4c0.1,0,0.4,0,0.5,0.1c0.1,0.1,0.5,0.6,0.5,0.6l0.4-0.4l0.1-0.3c0,0,0.1-0.4,0.2-0.4
				c0.2-0.1,0.5-0.2,0.7-0.2h0.6l0.6-0.2c0,0,0-0.3,0-0.4c0.2,0,0.8,0.2,0.8,0.2l0.7-0.4c0,0,0.3-0.3,0.3-0.4c0.1,0,0.4-0.1,0.5-0.1
				c0,0,0.7-0.1,0.7-0.1v-0.6c0,0-0.5-0.4-0.6-0.5c0-0.1,0.1-0.3,0.1-0.3c0,0,0.2-0.1,0.2-0.2c0.1,0,0.2,0.1,0.2,0.1
				c0,0,0.4,0.4,0.4,0.4l0.3,0.3c0,0,0.1,0.1,0.4,0.3c0.2,0.2,0.3,0.3,0.4,0.3c-0.1,0.1-0.3,0.4-0.3,0.4l0.7,0.9l0.5-0.1
				c0,0,0.3-0.8,0.3-0.9c0,0,0.4-0.5,0.4-0.5s0.3-0.7,0.3-0.8c0,0,0.3-0.5,0.3-0.5l0.5-0.7c0,0,0-0.4,0-0.4c0,0,0.3-0.5,0.3-0.5
				s-0.3-0.5-0.4-0.5c0,0-0.3-0.5-0.3-0.5c0,0-0.1-0.5-0.1-0.6c0,0,0.1-0.7,0.1-0.7s-0.9-0.3-0.9-0.3c0,0-0.4-0.2-0.5-0.3
				c0-0.1,0-0.3,0-0.3c0,0,0.3-0.4,0.3-0.4l-0.5-1l-0.3-0.5c0,0-0.1-0.2-0.2-0.3c0.1-0.1,0.6-0.6,0.6-0.6l0.3-0.9l-0.1-0.7
				c0,0-0.1-0.6-0.1-0.7c0-0.1,0.2-0.6,0.2-0.6l-0.2-0.6c0,0-0.5-0.5-0.6-0.5c0,0-0.3-0.5-0.3-0.6c0,0,0-0.5,0-0.6
				c0-0.1,0.3-0.3,0.3-0.3l0.3-0.3l0.1-1l-0.3-0.4c0,0-0.8-0.5-0.8-0.5c0,0-0.6-0.9-0.6-0.9l-0.5-0.5c0,0-0.6-0.2-0.7-0.2
				c0-0.1,0-0.6,0-0.7c0-0.1,0.4-0.5,0.4-0.6c0,0,0.8-0.6,0.8-0.6l0.5-0.8c0,0,0.1-0.6,0.1-0.6c0,0,0.3-0.8,0.3-0.8
				s-0.2-0.4-0.3-0.5c0-0.1,0-1.6,0-1.6s-0.2-0.3-0.2-0.3c0-0.1,0-0.8,0-0.8s-0.1-0.8-0.1-0.9c0,0,0-0.3,0-0.3l-0.2-0.1l-0.4-0.2
				c-0.2-0.1-0.5-0.2-0.7-0.2c-0.3-0.1-0.6-0.2-0.7-0.3c0,0,0-0.1,0-0.1c0,0,0-0.1,0-0.1c0.1-0.2,0.3-0.3,0.5-0.3l0.3,0
				c0.5,0,0.8,0,0.9-0.2c0-0.1,0-0.1,0-0.2c0-0.5-0.6-1.2-0.6-1.2c-0.2-0.1-0.4-0.3-0.6-0.4c-0.2-0.1-0.4-0.2-0.5-0.4
				c-0.4-0.3-0.8-0.6-1.3-0.5c-0.2,0-0.3,0.1-0.5,0.1c-0.5,0.2-0.8,0.2-0.9-0.2c-0.2-0.4,0-0.8,0.6-1.3c0.3-0.2,0.6-0.1,1,0.1
				c0.3,0.2,0.6,0.3,0.8,0.1c0.2-0.2-0.1-0.6-0.4-0.9c-0.2-0.3-0.5-0.7-0.4-0.9c0.1-0.2,0.2-0.3,0.1-0.5c-0.1-0.3-0.3-0.4-0.6-0.6
				c-0.2-0.1-0.3-0.2-0.4-0.3c-0.3-0.3-0.7-0.5-1.2-0.5c-0.4,0-0.7,0.2-0.9,0.5c-0.1,0.2-0.2,0.3-0.2,0.5c0,0.2,0.1,0.4,0.1,0.5
				c0.1,0.2,0.1,0.3,0.1,0.5c0,0.1,0,0.2-0.1,0.4c0,0,0,0,0,0c-0.3-0.3-0.6-0.5-1.2-0.5c-0.3,0-0.5-0.1-0.7-0.3
				c-0.3-0.2-0.6-0.5-1-0.1c-0.3,0.3-0.7,0.5-1.1,0.7c-0.2,0.1-0.5,0.2-0.7,0.4c-0.2,0.2-0.4,0.4-0.5,0.7c-0.2,0.3-0.6,0.5-0.9,0.6
				l-0.3,0.1c-0.1,0.1-0.3,0-0.5-0.1c-0.2-0.1-0.5-0.3-0.8-0.1c-0.3,0.2-0.5,0.4-0.7,0.7c-0.3,0.3-0.5,0.6-0.9,0.7
				c-0.3,0.1-0.6,0-1-0.1c-0.3-0.1-0.5-0.2-0.8-0.1l-0.3,0c-0.6,0-1.1,0.1-1.5-0.4c0.2-0.1,0.3-0.2,0.4-0.2c0.5-0.3,0.9-0.5,1.1-1.2
				c0-0.2,0.1-0.4,0.1-0.7c0-0.4-0.1-0.8-0.4-1c-0.3-0.2-0.7-0.2-1.1,0.1c-0.5,0.3-0.8,0-1.3-0.5c-0.3-0.3-0.6-0.7-1.1-0.8
				c-0.2,0-0.3,0-0.5,0c-0.3,0-0.4,0.1-0.5-0.1c-0.1-0.4-0.7-0.4-1.2-0.3c-0.1,0-0.2,0-0.2,0c0.6-0.6,1-0.9,1-1.8c0-0.1,0-0.3,0-0.4
				c0-0.4-0.3-0.6-0.5-0.8l-0.2-0.2l0,0l-0.1,0l-2-0.4c0,0-0.3,0.2-0.3,0.2c0,0-0.3,0.1-0.4,0.1c-0.1,0-0.3-0.1-0.4-0.1
				c0-0.1-0.3-0.6-0.3-0.6l-0.8-0.2c0,0-0.4,0-0.5,0c-0.1,0-0.5-0.4-0.5-0.4S160.5,9,160.5,9c0,0-0.6-0.2-0.6-0.2
				c0,0-0.3-0.3-0.3-0.3l-0.1,0.1c-0.6,0.2-1,0.3-1.2,0.1c-0.1-0.1-0.2-0.3-0.2-0.6c0-0.2-0.1-0.3-0.2-0.3
				C157.6,7.8,157.4,8.4,157.4,9.2z M158.2,12.1L158.2,12.1c-0.3,0.3-0.4,0.4-0.3,0.8l0.1,0.1l0.1-0.1c0.3-0.2,0.4-0.2,0.3-0.6
				l-0.1-0.4L158.2,12.1z M159.4,12.2L159.4,12.2c-0.4,0.1-0.8,0.2-0.8,0.6v0l0,0c0,0.1,0.1,0.2,0.2,0.2c0.1,0.1,0.3,0,0.4-0.1
				l0.1,0c0.2-0.1,0.2-0.3,0.2-0.5l0-0.3L159.4,12.2z M158.6,16.4L158.6,16.4c-0.1,0-0.2,0.2-0.3,0.3l-0.1,0.2l0.1,0.1
				c0.2,0.1,0.3,0.2,0.5,0.1c0.2-0.1,0.3-0.3,0.3-0.5c0,0,0-0.1-0.1-0.2C158.9,16.5,158.7,16.4,158.6,16.4z M157.5,17.3L157.5,17.3
				c-0.1,0-0.1,0-0.2,0c-0.1,0-0.2,0-0.3,0.1l0,0l0,0.4l0,0c0.1,0.1,0.5,0.3,1,0l0.1-0.1l-0.2-0.2C157.8,17.4,157.7,17.3,157.5,17.3
				z M150.4,18.6l-0.4,0l0.1,0.2l0.4,0.6l0.6-0.5l-0.1-0.1C150.9,18.6,150.6,18.6,150.4,18.6z M152.9,18.8c-0.1,0.1-0.1,0.2-0.1,0.4
				v0l0,0c0.2,0.3,0.7,0.3,1.1,0.3c0.4,0,0.7-0.1,0.9-0.5l0.1-0.1l-0.2,0c-0.4-0.1-0.7-0.1-1.1-0.1l-0.2,0
				C153.3,18.7,153.1,18.6,152.9,18.8z M152.2,18.7L152.2,18.7c-0.2,0-0.4,0.1-0.5,0.1l-0.3,0.1l0.1,0.1c0.3,0.3,0.5,0.3,0.8,0.2
				c0.1,0,0.2,0,0.4,0h0.2l-0.1-0.2C152.6,18.7,152.5,18.7,152.2,18.7z M149.2,18.9L149.2,18.9L149.2,18.9c-0.2,0-0.4,0-0.5,0
				l-0.3,0l0,0l-0.1,0.1c-0.1,0.1-0.3,0.3-0.2,0.5c0,0.1,0.1,0.2,0.3,0.3c0.2,0.1,0.4,0,0.6,0c0.2,0,0.3-0.1,0.5,0l0.2,0v-0.2
				c0-0.2,0-0.4-0.1-0.6l0,0l0,0C149.4,18.8,149.3,18.9,149.2,18.9z"/>
		</defs>
		<clipPath id="SVGID_6_">
			<use xlink:href="#SVGID_5_"  style="overflow:visible;"/>
		</clipPath>
		<g class="st15">
			<rect x="138.5" y="57.3" class="st16" width="54.7" height="24.7"/>
			<rect x="138.5" y="32.6" class="st1" width="54.7" height="24.7"/>
			<rect x="138.5" y="7.8" class="st11" width="54.7" height="24.7"/>
		</g>
		<use xlink:href="#SVGID_5_"  style="overflow:visible;fill:none;stroke:#2D2211;stroke-width:0.5;stroke-miterlimit:10;"/>
	</g>
	<g>
		<defs>
			<path id="SVGID_7_" d="M44.9,5.4c-0.1,0-0.9,0-0.9,0l-1-0.1h-0.5l-0.6,0.1l-0.4,0.1l-0.5,0.3l-0.2,0.4l0,0c0,0.2-0.1,0.5-0.2,0.6
				c-0.1,0.1-0.3,0.1-0.4,0.1h0l0,0c0,0-0.5,0.1-0.6,0.1c-0.1,0-0.2-0.1-0.3-0.3c0,0-0.3-0.6-0.3-0.6l-0.5-0.2L37.7,6l-0.3,0.4
				l-0.4,0.5l-0.2,0.6c0,0,0.5,0.5,0.5,0.5c0,0.1-0.1,0.4-0.2,0.5c-0.1,0-0.7,0-0.8,0c-0.1-0.1-0.4-0.7-0.4-0.7l-0.1,0
				c-0.1,0-0.7,0.2-0.8,0.3c-0.2,0.1-0.3,0.7-0.3,0.8l0,0v0.3c0,0,0.4,0,0.6,0.1c0,0.1,0,0.2-0.1,0.3c-0.2,0.2-0.2,0.3-0.2,0.3l0,0
				l0.1,0.4c0,0.1,0,0.2,0,0.2c0,0-0.1,0.2-0.1,0.3c-0.1-0.1-0.2-0.1-0.2-0.2c0,0-0.1-0.3-0.1-0.3c0,0-0.1-0.3-0.2-0.6
				c-0.1-0.1-0.1-0.3-0.3-0.2c0,0-0.1,0-0.1,0.1c-0.1,0-0.3,0-0.3,0c0,0-0.8,0-0.8,0l-0.2,0.3c0,0-0.2,0.2-0.2,0.3
				c-0.1-0.1-0.6-0.5-0.6-0.6c0,0-0.1-0.3-0.1-0.3c0,0,0-1,0-1l-0.6-0.2l-0.6-0.1l-0.1,0.4v0.6c0,0,0,0.4-0.1,0.8
				c0,0.3-0.2,0.3-0.2,0.3l0,0l0,0l-0.4,0.3l-0.4,0.4c0,0-0.2,0.5-0.2,0.5c-0.1,0-0.6,0.4-0.6,0.4l-0.2,0.5c0,0,0.3,0.3,0.4,0.4
				c0,0.1,0,0.3,0,0.4c-0.1,0-0.3,0.1-0.4,0.1c-0.1-0.1-0.2-0.2-0.2-0.2c0-0.1,0-0.2,0-0.2L27.9,12l-0.1-0.7L27.4,11
				c0,0-0.7-0.2-0.7-0.2c0,0-0.1-0.1-0.2-0.1c0,0-0.3-0.5-0.3-0.5S26,9.9,26,9.8c0,0-0.2-0.3-0.2-0.3c0-0.1,0-0.3,0-0.3
				c0,0,0.3-0.3,0.3-0.3l0.1-0.5L25.8,8l-0.4,0.1L25,8.3l-0.3,0.3c0,0-0.2,0.3-0.2,0.4c0,0-0.2,0.2-0.3,0.2c-0.1,0-0.6,0-0.6,0
				l0.1,0.4c0,0,0.3,0.4,0.4,0.5c0,0.1-0.1,0.2-0.1,0.2c0,0-0.4,0.4-0.4,0.4c-0.1,0.1-0.3,0.3-0.5,0.4c-0.2,0.1-0.4,0.3-0.4,0.3l0,0
				c0,0-0.2,0.2-0.2,0.3c-0.1,0-0.6,0.2-0.6,0.2c-0.1,0-0.2,0-0.3-0.1l0,0L21,11.3L20.2,11h-0.7c0,0-0.5,0.4-0.5,0.4
				c0,0-0.5,0.2-0.5,0.2c-0.1,0-0.8-0.3-0.8-0.3l-0.8,0.1l-0.7,0.4l-0.1,0.6c0,0,0.5,0.5,0.6,0.5c0,0.1,0,0.7,0.1,0.7
				c0,0-0.1,0.5-0.1,0.5l0.1,0.5l0.1,0.2c0,0,0.4,0.4,0.5,0.4c0,0.1,0,0.4,0,0.4l0,0c0,0,0.1,0.3,0.1,0.4c0,0,0,0,0,0.1
				c0,0.1,0,0.2-0.1,0.3c0,0-0.3,0.3-0.3,0.3c0,0-0.3,0.1-0.3,0.1c0,0-0.6,0.1-0.6,0.1s-0.3,0.2-0.4,0.3c-0.1,0-0.4-0.1-0.4-0.1
				l-0.6-0.1l-0.8,0.2l0.2,0.6c0,0,0.4,0.3,0.4,0.3c0,0,0.1,0.3,0.1,0.4c0,0.1-0.2,0.6-0.2,0.6l0.4,0.4c0,0,0.7,0.3,0.8,0.3
				c0,0.1,0,0.2,0,0.2c0,0,0,0.3,0,0.3s0.3,0.4,0.3,0.4c0,0,0,0.1,0.1,0.2c-0.1,0-0.4,0.1-0.4,0.1l-0.3,0.1c0,0-0.1,0.4-0.1,0.5
				c0,0-0.3,0.3-0.3,0.3l-0.3,0.5v0.3c0,0,0.1,0.2,0.1,0.2c0,0,0.1,0.2,0.1,0.3c0,0.1-0.2,0.3-0.2,0.3l0.1,0.4l0.2,0.6l0.4,0.4
				l0.6,0.6c0,0,0.8,0.3,0.8,0.3c0,0,0.5,0.3,0.5,0.3l0.8,0.1c0,0,0.5,0,0.7,0c0,0.1,0,0.2,0,0.2s0.2,0.3,0.3,0.4
				c-0.1,0.1-0.2,0.2-0.2,0.2s-0.3,0.5-0.3,0.5c0,0-0.5,0.4-0.5,0.4L17.7,28l-0.1,0.4c0,0,0.4,0.5,0.4,0.5c0,0,0.1,0.5,0.1,0.5
				l0.1,0c1.6,0,3.3-0.2,4.1-1.5c0.1-0.2,0.2-0.4,0.3-0.6c0.1-0.3,0.2-0.5,0.4-0.8c0.1-0.1,0.2-0.1,0.3-0.1c0.1,0,0.3-0.1,0.4-0.2
				l0.2-0.2c0.2-0.2,0.4-0.5,0.6-0.7c1-0.7,2.2-0.7,3.2,0.1c0.3,0.3,0.7,0.4,1.1,0.6c0.2,0.1,0.5,0.2,0.7,0.3c0.4,0.2,0.7,0.6,1,0.9
				c0.3,0.3,0.6,0.7,1,0.9l0.2,0.1l0-0.2c0,0,0-0.1,0-0.1c0,0,0.3-0.1,1.2,0.8l0,0c0.6,0.6,0.7,1.1,0.7,1.7c0,0.3,0.1,0.7,0.2,1.1
				c0.1,0.3,0.1,0.6,0.2,0.9c0,0.3,0.1,0.5,0.1,0.8c0.1,0.3,0.2,0.6,0.4,0.9c0.1,0.2,0.2,0.4,0.3,0.6c0.1,0.3,0,0.7-0.1,1.2
				c-0.1,0.6-0.2,1.2,0,1.5c0.1,0.1,0.2,0.2,0.4,0.2c0.3,0,0.5,0.1,0.7,0.3c0.1,0.2,0.2,0.5,0,0.8c-0.2,0.5,0.6,1,1.3,1.4
				c0.3,0.2,0.5,0.3,0.6,0.4c0.4,0.3,0.5,0.6,0.6,1.1l0,0.1c0.2,0.5,0.5,0.6,0.8,0.6c0.2,0,0.3,0.1,0.5,0.2c0.6,0.4,0.9,1,1.3,1.7
				c0.2,0.3,0.4,0.7,0.6,1c0.3,0.4,0.8,0.8,1.2,1.1c0.3,0.3,0.7,0.6,1,0.9c0.1,0.1,0.1,0.3,0.2,0.5c0,0.2,0,0.5,0.2,0.7
				c0.2,0.2,0.4,0.3,0.6,0.4c0.3,0.1,0.5,0.3,0.7,0.5c0.8,1.1,1.4,1.7,2.7,2.3c0.5,0.2,0.5,0.3,0.6,0.7c0,0.1,0.1,0.2,0.2,0.2
				c0.2,0.1,0.5,0,0.7,0c0.2,0,0.3-0.1,0.4-0.1c0.5,0.1,0.9,0.3,1.3,0.5c0.3,0.2,0.6,0.1,0.8,0c0.2-0.1,0.3-0.1,0.4-0.1
				c0.4,0,0.8,0.9,1.1,1.6c0.2,0.6,0.5,1,0.7,1.2c0.1,0.1,0.1,0.2,0.1,0.3c0,0.2,0,0.4,0.2,0.5c0.3,0.1,0.6,0.1,0.9,0
				c0.2,0,0.5-0.1,0.6,0c0.7,0.4,0.5,0.7,0.3,1c-0.1,0.3-0.3,0.6-0.2,0.9l0,0.1l0.8-0.3c0,0,0.1,0,0.1,0c0,0,0,0,0,0
				c0,0,0,0.1,0,0.1l0,0l0.1,0c0.2,0,0.3-0.2,0.5-0.4c0.1-0.1,0.1-0.2,0.2-0.2c0.2-0.2,0.9,0.3,1.2,0.6c0.1,0.2,0.8,0.9,0.8,1
				c0,0.2-0.1,0.4-0.2,0.6c-0.1,0.3-0.3,0.6-0.3,1c0,0.1,0,0.3,0.1,0.4c0.1,0.2,0.5,0.4,0.9,0.5c0.2,0,0.3,0,0.4-0.1
				c0.1,0.1,0.2,0.3,0.4,0.8l0,0c0.2,0.3,0.6,0.4,0.9,0.4c0.1,0,0.4,0.3,0.4,0.2l0,0c0.7-0.2,1.1-0.2,1.4,0c0.4,0.3,0.6,0.8,0.6,1.7
				c0,0.2,0,0.3,0,0.4c0,0.2,0,0.3,0.3,0.6c0.2,0.2,0.3,0.5,0.4,0.8c0.1,0.3,0.1,0.5,0.4,0.8c0.4,0.4,0.5,0.8,0.7,1.3l0.1,0.3
				c0.1,0.3,0,0.5,0,0.8c-0.1,0.2-0.1,0.5-0.1,0.7c0.1,0.4,0.3,0.8,0.4,1.1c0.2,0.5,0.4,1,0.3,1.3c-0.1,0.3-0.5,0.4-1.1,0.6
				c-0.2,0-0.9,0.3-1.1,0.7c-0.1,0.2,0,0.4,0.1,0.6c0.1,0.1,0.2,0.2,0.3,0.2c0.1,0.1,0.2,0.2,0.2,0.2c0,0,0,0.1-0.2,0.2
				c-0.4,0.2-0.4,0.5-0.5,0.7c0,0.1-0.1,0.3-0.2,0.4c-0.1,0.2-0.3,0.4-0.5,0.6c-0.3,0.3-0.6,0.6-0.6,1.1c-0.1,0.5,0,0.9,0.2,1.2
				c0.4,0.4,1.1,0.7,2.2,0.7c0.7,0,0.9-0.5,1.1-1l0.2-0.3c0.1-0.2,0.1-0.4,0-0.5c0-0.2,0-0.3,0-0.4l0.1-0.2c0.2-0.3,0.4-0.5,0.6-0.7
				l0,0l0,0c0.1-0.1,0.6-0.7,1-0.9c0.9-0.5,0.9-1.4,0.7-2.1c0-0.1-0.1-0.2-0.1-0.3c-0.1-0.2-0.2-0.5-0.1-0.5
				c0.2-0.1,0.4-0.3,0.6-0.5c0.1-0.1,0.3-0.3,0.4-0.4c0.4-0.3,0.8-0.2,1.2-0.2c0.4,0,0.8,0,1.2-0.1c0.7-0.3,0.4-0.8,0.3-1.2
				c-0.1-0.2-0.2-0.4-0.1-0.6c0.1-0.2,0.1-0.3,0.2-0.4c0.2-0.3,0.3-0.5-0.2-0.9c-0.1-0.1-0.2-0.2-0.2-0.3c0-0.1,0-0.1,0.1-0.2
				c0.1-0.1,0.3-0.3,0.1-0.6c-0.2-0.5-0.6-0.7-1-0.9c-0.2-0.1-0.5-0.3-0.7-0.5l0,0C70.9,66,70.8,66,70,65.9c-0.2,0-0.4-0.1-0.5-0.3
				c-0.1-0.2-0.1-0.4-0.1-0.6c0.1-0.2,0.2-0.4,0.3-0.6c0.2-0.4,0.5-0.7,0.5-1.1c0-0.7,0.3-1.1,0.6-1.5c0.1-0.2,0.3-0.4,0.5-0.7
				c0.1-0.3,0.2-0.5,0.3-0.7c0.1-0.4,0.2-0.7,0.8-1l0.2-0.1c0.2-0.1,0.7-0.5,0.9-0.4c0,0,0.1,0,0.1,0.1l0.2,0.3
				c0.3,0.5,0.5,1,1.2,1.3c0.5,0.3,1,0.3,1.4,0.3c0.3,0,0.6,0,1,0.1l0,0c1.1,0.3,1.1,0.5,1.1,0.6c-0.1,0.3,0.1,2.1,0.3,2.3
				c0.1,0.2,1,0.9,1.2,0.8c0.3-0.1,0.5,0,0.6,0.1c0.1,0.1,0.3,0.2,0.4,0.1c0.1-0.1,0.2-0.2,0.3-0.6c0-0.1,0.1-0.4,0.3-0.8
				c0.4-1,0.5-1.5,0.4-1.6c-0.1-0.2-0.2-0.4-0.4-0.6c-0.2-0.3-0.3-0.6-0.5-0.9c-0.4-0.5-1-1-1.6-1.4l-0.6-0.4
				c-0.1-0.1-0.2-0.2-0.3-0.4c-0.1-0.1-0.1-0.2-0.2-0.3c-0.2-0.2-0.4-0.2-0.7-0.2c-0.2,0-0.4,0-0.5-0.1c-0.3-0.3-0.6-0.4-1-0.6
				c-0.3-0.1-0.7-0.2-0.9-0.6c-0.3-0.5-0.7-0.8-1.1-1.1c-0.2-0.1-0.4-0.3-0.6-0.4c-0.8-0.7-1.9-1-2.9-1.3c-0.8-0.2-1.6-0.5-2.3-0.9
				c-0.2-0.1-0.4-0.2-0.6-0.3c-0.8-0.4-1.9-1-2-1.6c0-0.3,0.2-0.6,0.6-0.9c0.1-0.1,0.2-0.1,0.3-0.2c0.5-0.3,1.2-0.7,1-1.2
				c-0.4-1-1.2-0.9-1.9-0.8l-0.5,0.1c-1,0.1-2,0-2.9-0.1c-0.8-0.1-1.6-0.5-2.3-0.8c-0.4-0.2-0.8-0.4-1.2-0.5c0-0.1,0-0.2,0-0.2
				c0-0.6-0.8-1.4-1.4-1.9l-0.3-0.3c-0.3-0.3-0.6-0.7-0.9-1c-0.4-0.5-0.8-1-1.3-1.4c-0.1-0.1-0.2-0.2-0.2-0.2c0,0,0-0.1,0-0.1l0-0.3
				c0,0,0-0.1,0-0.1c0-0.3-0.1-0.5-0.2-0.8c-0.1-0.2-0.2-0.4-0.2-0.6c-0.2-1-0.4-1.8-0.7-2.7l-0.2-0.7c-0.1-0.3-0.1-0.5-0.2-0.7
				c-0.1-0.7-0.2-1.2-1-1.5c-0.3-0.1-0.5-0.2-0.8-0.3c-0.3-0.1-0.6-0.2-0.8-0.3c-0.3-0.2-0.3-0.2-0.3-0.3c0-0.1,0-0.2-0.1-0.4
				c-0.2-0.4-0.7-0.9-1.2-1.3c-0.2-0.2-0.4-0.3-0.5-0.5l-0.7-0.7c-0.6-0.6-1.2-1.1-1.7-1.9c-0.4-0.6-0.6-1.2-0.6-1.8
				c0-0.3,0-0.6,0.1-0.9c0-0.1,0-0.2,0-0.4c0-0.2,0-0.3,0-0.5c0-0.1,0-0.3,0-0.4c0-0.2,0-0.3,0.1-0.4c0.1-0.1,0.2-0.1,0.4-0.1
				c0.3,0,0.6-0.2,0.8-0.5c0.2-0.4,0.3-0.9,0.1-1.3c-0.1-0.2-0.2-0.3-0.4-0.4c-0.1-0.1-0.2-0.3-0.3-0.4c0,0,0-0.2-0.1-0.3
				c0-0.2,0-0.4-0.2-0.5c-0.3-0.1-0.5-0.3-0.5-0.4c0-0.1,0.1-0.2,0.2-0.3c0.1-0.1,0.3-0.3,0.4-0.6l0.1-0.3c0.1-0.2,0.1-0.4,0.3-0.6
				c0.1-0.1,0.2-0.1,0.3-0.1c0.1,0,0.2,0.1,0.2,0.1c0,0.1,0.1,0.1,0.1,0.1c0.2,0.1,0.7-0.1,1.4-0.5c0.2-0.1,0.5-0.3,0.6-0.3
				c0.6-0.1,1.4-0.3,1.7-0.8c0.1-0.1,0.1-0.2,0.1-0.3c0-0.1,0-0.2-0.1-0.3c0.1,0,0.2,0,0.2,0c0.4-0.1,0.5-0.1,0.9,0.2
				c0.3,0.2,0.9,0.4,1.3,0.3c0.3-0.1,0.3-0.3,0.3-0.4c0,0,0.1,0,0.2,0.1l0.1,0l0.2-0.3c0,0-0.1-0.5-0.2-0.6c0-0.1,0.3-0.6,0.3-0.6
				s-0.8-0.4-0.8-0.4c0,0-0.1-0.2-0.1-0.2c0.1-0.1,0.5-0.2,0.5-0.3c0,0,0.1,0,0.1,0l0.7-0.6l-0.6-0.7c0,0-0.8-0.2-0.9-0.2
				c0-0.1-0.1-0.4-0.1-0.5c0-0.1,0.2-0.2,0.2-0.2c0,0,0.5-0.3,0.5-0.3l0.4-0.3l0.6-0.4l0.4-0.4L54.8,10l-0.5-0.4l-0.5-0.2l0,0
				c0,0-0.9-0.1-1.1-0.1c-0.1,0-0.4-0.1-0.5-0.2l0,0h-0.7c-0.3,0-0.7,0-0.9,0c0-0.1-0.3-0.4-0.3-0.4s-0.7,0-0.7,0
				c0,0-0.9-0.2-0.9-0.2c-0.2,0-0.5-0.3-0.6-0.4c0,0-0.5-0.4-0.5-0.5c0-0.1,0-0.4,0-0.4l-0.1-0.5c0,0-0.5-0.2-0.6-0.2
				c0-0.1,0-0.5,0-0.5l-0.2-0.9l-1-0.1C45.5,5,44.9,5.4,44.9,5.4z M46.7,30.2c0,0,0.1,0.1,0.1,0.1c0,0.1,0,0.2,0,0.2
				c-0.1,0-0.2,0.1-0.3,0.1c0,0-0.1,0-0.2-0.1c0-0.1,0.1-0.3,0.1-0.3C46.5,30.3,46.7,30.2,46.7,30.2z M45.1,46.6
				c0.1,0,0.2,0.1,0.3,0.1c0,0,0,0.1,0,0.1c0,0-0.1,0.1-0.1,0.1c-0.1-0.1-0.1-0.1-0.2-0.2C45.1,46.8,45.1,46.7,45.1,46.6z M30.8,36
				L30.8,36c-0.1,0.1-0.3,0.2-0.3,0.4c0.1,0.3,0.6,0.3,0.8,0.3h0.1l0-0.1c0.1-0.2,0-0.5-0.1-0.6C31.1,35.9,31,35.9,30.8,36z
				 M33.5,38.3c-0.1,0-0.3,0.1-0.4,0.1c-0.4,0-0.8,0-1.2,0.2l-0.1,0l0,0.1c0.1,0.3,0.2,0.4,0.5,0.6l0.1,0h0c0.2,0,0.4,0,0.5-0.1
				c0.2,0,0.4-0.1,0.6,0l0.1,0c0.3,0,0.3,0,0.4-0.2l0.1-0.1l0.1-0.1c0.1-0.2,0.1-0.2,0-0.5l0,0C34.2,38.1,33.8,38.2,33.5,38.3z
				 M31.9,39.7c-0.2,0-0.3,0.2-0.4,0.4l-0.1,0.1c0,0.1,0,0.1,0,0.2c0,0.1,0.1,0.2,0.2,0.2l0.1,0.1l0.1,0.1l0.1,0l0-0.1
				c0.1-0.4,0.1-0.5,0-0.8L31.9,39.7L31.9,39.7z M32.6,42.5l0.5,0.1l0-0.3c0-0.1,0-0.3-0.1-0.3c-0.1-0.1-0.2-0.1-0.3-0.1l-0.1,0
				L32.6,42.5z M38,41.9L38,41.9c-0.1,0-0.3,0-0.3,0.1c-0.1,0.1-0.1,0.2,0,0.3l0,0l0,0c0.2,0.2,0.4,0.3,0.6,0.3c0.1,0,0.2,0,0.3-0.1
				c0.1-0.1,0.1-0.3,0-0.3l-0.1-0.1C38.4,42,38.3,41.9,38,41.9z M36.1,42.2l-0.2,0.1l0.1,0.1l0.3,0.4l0.4,0.3l0-0.2
				c0-0.3,0.1-0.4-0.1-0.7c0-0.1-0.1-0.1-0.1-0.1C36.4,42.1,36.3,42.2,36.1,42.2z M25.3,50.2c-0.1,0-0.1,0.1-0.1,0.2
				c0,0.3,0,0.3-0.2,0.5l0,0c-0.1,0.1-0.3,0.1-0.5,0.2l-0.2,0.1c-0.5,0.2-0.9,0.5-1.2,0.9l-0.1,0.2c-0.1,0.1-0.1,0.2-0.2,0.2
				c-0.9,0-1.1,0.1-1.2,0.2c0,0,0,0.1,0,0.1c0,0,0,0,0,0.1c0,0-0.1,0.1-0.1,0.1c-0.1,0.1-0.2,0.2-0.3,0.2c-0.2,0-0.3,0-0.4-0.1
				c-0.1,0-0.2-0.1-0.3-0.1l-0.1,0c-0.3-0.1-0.7-0.1-0.8-0.4l-0.1-0.2c-0.1-0.3-0.2-0.5,0-0.8c0.1-0.1,0.2-0.2,0.3-0.3
				c0.1-0.2,0.3-0.3,0.4-0.6l0.1-0.2L20,50.5c-0.6,0.2-0.7,0.4-1,0.9l-0.1,0.1c-0.1,0.2-0.2,0.4-0.2,0.6c0,0.1,0.1,0.3,0.1,0.4
				c0.1,0.1,0.1,0.2,0.1,0.3c0,0.1-0.2,0.3-0.3,0.4l-0.2,0.2c-0.1,0.1-0.1,0.2-0.1,0.2c0,0.1,0.1,0.1,0.1,0.2c0,0,0.1,0,0.1,0.1l0,0
				c0.1,0.2,0.2,0.3,0,0.5c0,0-0.1,0.1-0.2,0.1c-0.1,0.1-0.2,0.1-0.2,0.2c0,0.1,0,0.2,0.1,0.3l0,0h0c0.2,0,0.3,0,0.4-0.1l0.2,0
				c0.2,0,0.2,0,0.2,0c0,0,0,0,0,0.1c0,0.3,0,0.4,0.3,0.7l0,0c0.1,0.1,0.1,0.1,0.1,0.2c0,0,0,0.1,0,0.1c0,0.1-0.1,0.2-0.1,0.3
				c-0.1,0.1-0.1,0.3-0.1,0.4c0,0.1,0,0.2,0.1,0.2c0.1,0.1,0.2,0.1,0.3,0.2c0.1,0,0.2,0.1,0.2,0.1c0.1,0,0.2,0.4,0.2,0.5v0
				c0,0.1-0.1,0.2-0.2,0.3l-0.1,0.1c-0.1,0.1-0.1,0.2-0.1,0.3c0,0.1,0.1,0.2,0.1,0.3c0.1,0.1,0.1,0.2,0.1,0.3c0,0.1,0,0.1-0.1,0.2
				c-0.1,0.1-0.2,0.1-0.3,0.1c-0.1,0-0.4,0.1-0.4,0.4c0,0.2,0,0.3-0.1,0.5l0,0.1c0,0.1,0,0.2,0,0.2c0,0.1,0,0.2,0.1,0.3
				c0.1,0.2,0.4,0.2,0.6,0.2c0.2,0,0.3,0,0.4,0.1c0,0.1-0.1,0.2-0.2,0.4l0,0c-0.1,0.2-0.2,0.3-0.2,0.4c0,0,0,0.1,0,0.1
				c-0.1,0-0.5-0.3-0.5-0.3l0.2,0.3l0,0c0,0.1-0.1,0.2-0.2,0.3c-0.1,0.2-0.2,0.3-0.3,0.5c0,0,0,0.1,0,0.1c0,0.2,0,0.4,0.1,0.5
				c0,0.1,0.1,0.1,0.1,0.2c0,0.1,0,0.1-0.1,0.2l0,0c0,0.1-0.2,0.2-0.3,0.3c-0.2,0.1-0.4,0.3-0.4,0.5c0,0,0,0,0,0
				c0,0.2,0.2,0.4,0.4,0.7c0,0.1,0.1,0.1,0.1,0.1c-0.2,0.1-0.5,0.2-0.5,0.4c0,0,0,0,0,0.1c0,0,0,0.1,0,0.1c0.1,0.2,0.2,0.4,0.3,0.7
				l0.1,0.1c0.1,0.2,0.2,0.4,0.3,0.5c0.2,0.3,0.4,0.5,0.4,0.8c0,0.2,0.1,0.5,0.3,0.6c0.1,0.1,0.2,0.1,0.3,0c0.3-0.2,0.3-0.1,0.6,0.1
				c0.1,0.1,0.3,0.2,0.5,0.2c0.4,0,0.8-0.3,1-0.6c0.3-0.3,0.3-0.5,0.3-0.8v-0.1l0-0.1c0-0.2,0-0.4,0.1-0.5c0.1-0.1,0.1-0.1,0.3,0
				l0.2,0.1c0.2,0.1,0.4,0,0.5,0c0.1-0.1,0.3-0.1,0.4,0c0.1,0,0.2,0.2,0.3,0.3l0.1,0.2c0.2,0.3,0.4,0.3,0.7,0.4l0.1,0
				c0.1,0,0.2,0,0.3-0.1c0.3-0.2,0.5-0.7,0.5-0.9c0,0,0,0,0,0l0,0c0-0.1,0.2-0.2,0.4-0.3l0.3-0.1l-0.2-0.1l-0.2-0.1
				c-0.2-0.1-0.2-0.1-0.2-0.2c0,0,0,0,0-0.1c0.1-0.3,0.2-0.5,0.3-0.8l0,0c0.1-0.1,0.2-0.3,0.2-0.4c0-0.1,0-0.2-0.1-0.2l0,0
				c0,0,0,0,0,0l0-0.1c0.1-0.2,0.1-0.4,0.1-0.6l0-0.2c0-0.2,0-0.4,0-0.6c0-0.4,0-0.8,0.3-1.1c0.2-0.2,0.2-0.5,0.2-0.7l0-0.2
				c0-0.1,0.1-0.3,0.1-0.4c0.1-0.1,0.1-0.3,0.1-0.5c0-0.2-0.1-0.3-0.2-0.4c-0.1-0.1-0.1-0.1-0.2-0.2c-0.1-0.2-0.1-0.3-0.1-0.5
				c0,0,0-0.1,0-0.1l0-0.1c0-0.6,0.3-0.8,0.8-1.1c0.3-0.2,0.8-0.6,0.8-1.1c0-0.1,0-0.2-0.1-0.3l-0.1-0.2c-0.2-0.3-0.7-1.2-0.7-1.4
				c0,0,0,0,0,0.1c-0.1,0-0.1,0-0.1,0l0,0l0.2,0l0-0.1c0-0.2,0.1-0.4,0.2-0.5l0-0.1c0-0.1,0-0.1,0-0.1c0-0.1-0.1-0.2-0.2-0.3
				l-0.1-0.1c0,0-0.1-0.1-0.1-0.1c-0.1-0.1-0.1-0.2-0.2-0.2c0,0-0.2-0.1-0.2-0.1c0.3-0.1,0.5-0.3,0.5-0.6v-0.1l-0.1,0
				c-0.2,0-0.7-0.2-0.7-0.4c0-0.1,0-0.1,0.1-0.2c0,0,0.3-0.3,0.3-0.5c0-0.1,0-0.1-0.1-0.2c-0.1-0.1-0.2-0.1-0.3,0
				c-0.1,0-0.1,0.1-0.2,0.2c0,0.1-0.1,0.1-0.1,0.1c0,0-0.1,0-0.1,0c-0.1-0.1-0.2-0.3-0.2-0.5l0,0c0-0.1,0-0.1,0-0.1
				c0,0,0.1,0,0.2-0.1c0.1,0,0.3,0,0.4-0.2c0.1-0.1,0.1-0.2,0-0.3c-0.1-0.2-0.5-0.2-0.5-0.2c-0.4,0-0.4,0.1-0.5,0.3l-0.1,0.1
				c0,0.1-0.1,0.1-0.1,0.1c0,0-0.1-0.1-0.1-0.2l-0.1-0.1C26,50.3,25.5,50.1,25.3,50.2z M53.4,56.5c-0.1,0-0.2,0.1-0.2,0.2
				c0,0,0,0.1,0,0.1c0,0.2,0.1,0.3,0.2,0.4l0.1,0.1l0.1,0l0.1,0c0.2,0,0.4,0,0.5-0.1l0.1-0.1c0-0.3-0.1-0.4-0.3-0.5l0,0
				C53.7,56.5,53.5,56.5,53.4,56.5z M55.2,58.1c0,0-0.1,0.1-0.1,0.2c0,0,0,0,0,0.1c0,0,0,0.1,0,0.1c0,0.1,0,0.1,0.1,0.1
				c0.1,0.1,0.3,0.2,0.5,0.1c0.1,0,0.2-0.2,0.2-0.3c0-0.1-0.1-0.3-0.3-0.3C55.5,58,55.3,58,55.2,58.1z M17.5,66.2
				c-0.1,0.1-0.1,0.1-0.2,0.2l0,0c0,0.3,0,0.3,0.1,0.5l0.1,0.1l0,0c0.1,0.1,0.3,0.1,0.5,0c0.2-0.1,0.3-0.3,0.3-0.5
				c0-0.1-0.1-0.2-0.3-0.3C17.8,66.1,17.6,66.1,17.5,66.2z M18.3,67c-0.1,0.1-0.3,0.2-0.3,0.4v0c0,0.1,0,0.2,0.2,0.4
				c0,0.1,0.1,0.2,0.1,0.2l0,0l0.3,0.3l0.1-0.1c0.2-0.2,0.3-0.5,0.2-0.8c0-0.2-0.1-0.4-0.3-0.5C18.6,66.9,18.4,66.9,18.3,67z
				 M62.9,76.7c-0.1,0-0.1,0.1-0.3,0.2c-0.1,0.1-0.4,0.4-0.5,0.4c-0.1-0.1-0.2,0-0.6,0.3c0,0,0,0,0,0c0,0-0.1-0.1-0.1-0.1l-0.1-0.1
				c-0.2-0.2-0.4,0-0.6,0.1l-0.2,0.1l0,0.1c0,0,0,0.1,0,0.1C60.6,78,60.1,78,59.9,78c-0.1,0-0.3-0.2-0.4-0.2l-0.2-0.1
				c-0.3-0.2-0.6,0-0.8,0.1c-0.2,0.1-0.3,0.2-0.5,0.1c-0.3-0.1-0.5,0.2-0.7,0.4l-0.3,0.3c-0.1,0-0.1,0.1-0.2,0.1l-0.2,0.1
				c-0.1,0-0.2,0.1-0.6-0.1c-0.3-0.1-0.4,0.1-0.4,0.2c0,0.1-0.1,0.1-0.1,0.1c-0.2,0-0.7,0.1-0.9,0c-0.1-0.1-0.2-0.1-0.2-0.1l0,0
				l0.1-0.2c-0.2-0.1-0.6-0.1-1,0l-0.3,0c0,0,0,0-0.1,0c0-0.1,0-0.1,0-0.1l-0.3,0.1l0,0c-0.2,0.1-0.6,0.3-0.8,0.3L51.7,79
				c-0.1,0-0.3,0.1-0.4,0.1c0,0-0.1-0.1-0.2-0.1c-0.1,0-0.1-0.1-0.1-0.1c0,0,0,0-0.1-0.1c-0.4-0.6-0.5-0.8-0.5-0.9c0,0,0,0,0,0
				c0,0,0,0,0.1,0l0-0.2c-0.2,0-0.4,0.1-0.5,0.2c-0.3,0.1-0.4,0.2-0.5,0.1c-0.1-0.1-0.1-0.2-0.1-0.3c0-0.1-0.1-0.3-0.2-0.4
				c-0.1-0.1-0.3-0.1-0.5-0.1l-0.2,0c-0.1,0-0.2,0-0.3,0c-0.1,0-0.1,0-0.2,0c-0.3-0.1-0.4-0.1-0.7,0.1l-0.2,0.1c0,0,0.2,0.1,0.2,0.1
				c0,0,0,0,0,0c0,0-0.1,0.1-0.1,0.1c-0.2,0.2-0.3,0.4-0.4,0.6c0,0,0,0,0,0c-0.2,0.2-0.3,0.3-0.3,0.4c-0.2-0.1-0.4-0.4-0.5-0.7
				l-0.1-0.2c0-0.1,0-0.1,0-0.2c0-0.1,0-0.1,0-0.2c0-0.1-0.1-0.2-0.2-0.2l-0.2-0.2l-0.1,0.2c0,0-0.1,0.2-0.1,0.4l0,0c0,0,0,0,0,0.1
				c0,0,0,0,0,0L45,77.3c-0.2,0.1-0.5,0.3-0.7,0.5l-0.2,0.2C44,78,43.9,78,43.8,78c0,0-0.1,0-0.1,0c-0.1,0-0.1,0.1-0.1,0.2l0,0.1
				c0,0.2-0.3,0.8-0.4,0.9c0,0,0,0,0.1,0l-0.1,0.2l0,0c0,0,0,0.2,0,0.3c0,0.1,0,0.2,0,0.3l0.1,0.4c0,0,0,0.1,0,0.1l0,0.1
				c0,0.1,0.2,0.6,0.4,0.6c0.2,0,0.4,0,0.5,0.3c0.3,0.6,0.7,0.6,1.3,0.7l0.1,0v0c0.2,0.1,0.4,0.2,0.6,0.3c0.2,0.1,0.5,0.2,0.7,0.3
				l0.4,0.1c0.3,0.1,0.5,0.1,0.8,0.3c0.1,0.1,0.2,0.2,0.3,0.4l0,0.1c0.1,0.1,0.2,0.2,0.3,0.2c0.1,0,0.1,0.1,0.2,0.1V84
				c0,0,0,0,0,0.1c0,0.1,0,0.1,0.1,0.2c0.1,0.1,0.3,0.2,0.4,0.3c0.2,0.1,0.4,0.1,0.6,0.1c0,0,0.1,0,0.1,0v0c0,0.2,0.3,0.4,0.6,0.7
				l0.2,0.1c0.2,0.2,0.4,0.2,0.6,0.3l0.2,0.1l0.3,0.1c0.2,0.1,0.4,0.3,0.6,0.3c0.3,0,0.7,0,1-0.1c0,0,0.1,0,0.1,0
				c0.1,0.2,0.5,0.3,0.8,0.5c0.2,0.1,0.3,0.1,0.4,0.2v0c0,0.2,0.4,0.5,0.7,0.7c0,0,0.1,0.1,0.1,0.1c0,0.1,0,0.1,0,0.2c0,0,0,0,0,0
				l0,0c0,0-0.1,0.1-0.1,0.1c0,0,0,0,0,0.1c0.2,0.3,0.5,0.9,0.8,0.9c0.1,0,0.2,0,0.3-0.1c0,0,0.2,0,0.3,0l0.1,0c0.1,0,0.1,0,0.1,0.1
				c0,0.1,0.1,0.1,0.1,0.2c0.1,0.1,0.3,0.3,0.6,0.1c0,0,0.1-0.1,0.1-0.1l0,0c0.4,0,0.9,0.3,1.1,0.4c0,0,0.8,0.3,0.9,0.4l0,0
				c0,0.1,0.1,0.1,0.1,0.1c0,0,0.1,0,0.1,0c0.1,0,0.1-0.1,0.1-0.5c0,0,0-0.1,0-0.2v0c0-0.2,0-0.2-0.1-0.4l-0.1-0.2
				c-0.1-0.1-0.2-0.3-0.2-0.3c0-0.3,0.5-0.5,0.9-0.7c0.3-0.1,0.6-0.2,0.7-0.4c0.1-0.2,0.2-0.3,0.2-0.4c0-0.1-0.1-0.3-0.1-0.4
				c-0.1-0.1-0.1-0.2-0.2-0.3c-0.1-0.2-0.3-0.4-0.4-0.5c0,0-0.1-0.1-0.1-0.1c0-0.1,0.1-0.2,0.1-0.2l0.1-0.2c0-0.1,0-0.1,0-0.2
				c0-0.2-0.1-0.2-0.3-0.3l-0.1-0.1c-0.1,0-0.2-0.2-0.2-0.2c0-0.2-0.1-0.3-0.1-0.5l-0.1-0.4l0,0l0,0c0-0.1,0-0.2-0.1-0.3
				c0.3-0.4,0.4-0.5,0.4-0.5c0,0,0,0-0.1,0c0,0-0.1-0.1-0.1-0.1l0.2,0.1c0.1-0.1,0.2-0.3,0.3-0.4c0.2-0.2,0.3-0.5,0.3-0.8
				c0-0.2-0.1-0.3-0.1-0.3c0,0-0.1-0.1,0-0.2l0,0c0.2-0.2,0.3-0.4,0.5-0.6c0.8-0.7,1.3-1.4,1.7-2.2l0,0l0,0c0-0.2,0.1-0.4,0.1-0.6
				c0-0.2,0.1-0.2,0.2-0.3l0.2-0.2L63.5,77C63,76.6,62.9,76.7,62.9,76.7z"/>
		</defs>
		<clipPath id="SVGID_8_">
			<use xlink:href="#SVGID_7_"  style="overflow:visible;"/>
		</clipPath>
		<g class="st17">
			<rect x="14.1" y="5" class="st18" width="22.6" height="85.2"/>
			<rect x="36.7" y="5" class="st2" width="22.6" height="85.2"/>
			<rect x="59.3" y="5" class="st1" width="22.6" height="85.2"/>
		</g>
		<use xlink:href="#SVGID_7_"  style="overflow:visible;fill:none;stroke:#2D2211;stroke-width:0.5;stroke-miterlimit:10;"/>
	</g>
</g>
<g id="allemagne_x5F_leg">
	<g id="chiffre_9_">
		<text transform="matrix(1 0 0 1 136.4831 128.0656)"><tspan x="0" y="0" class="st3 st4 st5">Allemagne</tspan><tspan x="-0.9" y="25" class="st6 st7 st8">1</tspan><tspan x="8" y="25" class="st6 st7 st9">,</tspan><tspan x="11.9" y="25" class="st6 st7 st8">9</tspan><tspan x="23.1" y="25" class="st6 st4 st5"> kg/ha</tspan></text>
	</g>
	<g>
		<g>
			<line class="st10" x1="165.8" y1="107.4" x2="165.8" y2="80.9"/>
			<g>
				<path class="st11" d="M169.6,81.1c0-2.1-1.7-3.8-3.8-3.8S162,79,162,81.1c0,2.1,1.7,3.8,3.8,3.8S169.6,83.1,169.6,81.1z"/>
			</g>
		</g>
	</g>
	<line class="st10" x1="137.5" y1="107.4" x2="194.2" y2="107.4"/>
</g>
<g id="italie_x5F_pays">
</g>
<g id="italie_x5F_leg">
	<g id="chiffre_1_">
		<text transform="matrix(1 0 0 1 32.7262 128.0656)"><tspan x="0" y="0" class="st3 st4 st5">Italie</tspan><tspan x="-14.9" y="25" class="st6 st7 st8">1</tspan><tspan x="-5.9" y="25" class="st6 st7 st9">,</tspan><tspan x="-2" y="25" class="st6 st7 st8">3</tspan><tspan x="8.9" y="25" class="st6 st4 st5"> kg/ha</tspan></text>
	</g>
	<g>
		<g>
			<line class="st10" x1="48" y1="107.4" x2="48" y2="83.7"/>
			<g>
				<path class="st11" d="M51.8,83.9c0-2.1-1.7-3.8-3.8-3.8c-2.1,0-3.8,1.7-3.8,3.8c0,2.1,1.7,3.8,3.8,3.8
					C50.1,87.6,51.8,85.9,51.8,83.9z"/>
			</g>
		</g>
	</g>
	<line class="st10" x1="36.7" y1="107.4" x2="59.4" y2="107.4"/>
</g>
</svg>
