<?xml version="1.0" encoding="utf-8"?>
<!-- Generator: Adobe Illustrator 16.0.4, SVG Export Plug-In . SVG Version: 6.00 Build 0)  -->
<!DOCTYPE svg PUBLIC "-//W3C//DTD SVG 1.1//EN" "http://www.w3.org/Graphics/SVG/1.1/DTD/svg11.dtd">
<svg version="1.1" id="Calque_1" xmlns="http://www.w3.org/2000/svg" xmlns:xlink="http://www.w3.org/1999/xlink" x="0px" y="0px"
	 width="428.413px" height="109.017px" viewBox="0 0 428.413 109.017" enable-background="new 0 0 428.413 109.017"
	 xml:space="preserve">
<g>
	<path fill="#ADAEAE" d="M193.273,30.327h-14.105V16.523c9.975-0.403,17.229-5.944,19.244-15.717h15.013v69.621h-20.152V30.327z"/>
	<path fill="#ADAEAE" d="M217.959,36.07c0-21.863,13.501-36.07,32.14-36.07c19.346,0,32.343,14.207,32.343,36.07
		c0,21.965-13.702,35.968-32.343,35.968C231.864,72.038,217.959,58.035,217.959,36.07z M261.788,36.07
		c0-12.292-3.224-21.36-11.587-21.36s-11.587,9.068-11.587,21.36c0,12.393,3.224,21.058,11.587,21.058S261.788,48.463,261.788,36.07
		z"/>
	<path fill="#ADAEAE" d="M283.855,36.07c0-21.863,13.501-36.07,32.14-36.07c19.345,0,32.343,14.207,32.343,36.07
		c0,21.965-13.702,35.968-32.343,35.968C297.759,72.038,283.855,58.035,283.855,36.07z M327.683,36.07
		c0-12.292-3.225-21.36-11.587-21.36c-8.363,0-11.587,9.068-11.587,21.36c0,12.393,3.224,21.058,11.587,21.058
		C324.458,57.128,327.683,48.463,327.683,36.07z"/>
</g>
<rect x="259.475" y="61.573" fill="#E30013" width="168.938" height="45.998"/>
<polygon fill="#FFFFFF" points="297.587,97.836 279.45,97.836 279.45,72.261 286.826,72.261 286.826,91.556 297.587,91.556 "/>
<g>
	<path fill="#FFFFFF" d="M321.898,97.836h-7.379v-9.734h-8.287v9.734h-7.375V82.334c-1.675,1.565-4.034,2.758-6.883,3.364
		l-0.076-0.312c3.54-1.064,5.883-3.278,5.988-5.676l0.012-0.218h-0.315c-4.301,0-5.835-2.373-5.835-4.591
		c0-2.033,1.655-4.198,4.731-4.198c1.397,0,2.796,0.498,3.789,1.558h5.964v9.631h8.287v-9.631h7.379V97.836z"/>
</g>
<polygon fill="#FFFFFF" points="343.385,78.501 330.685,78.501 330.685,81.892 342.219,81.892 342.219,88.102 330.685,88.102 
	330.685,91.556 343.385,91.556 343.385,97.835 323.309,97.835 323.309,72.262 343.385,72.262 "/>
<g>
	<path fill="#FFFFFF" d="M357.464,92.021h-5.367v-4.907h5.367c1.657,0,2.575,1.054,2.575,2.466
		C360.04,90.956,359.122,92.021,357.464,92.021 M352.097,78.076h4.905c1.41,0,2.192,0.952,2.192,2.162
		c0,1.188-0.782,2.114-2.192,2.114h-4.905V78.076z M363.812,83.935c1.801-1.026,2.821-2.859,2.821-4.972
		c0-5.469-4.262-6.702-9.978-6.702h-11.932v25.574h12.386c6.281,0,10.479-2.329,10.479-8.146
		C367.589,87.004,366.143,84.958,363.812,83.935"/>
	<path fill="#FFFFFF" d="M377.996,91.879h-2.222V78.221h2.222c4.06,0,6.88,0.985,6.88,6.81
		C384.875,90.889,382.055,91.879,377.996,91.879 M377.75,72.261h-9.35v25.575h9.35c8.434,0,14.786-3.034,14.786-12.806
		C392.536,75.292,386.183,72.261,377.75,72.261"/>
	<path fill="#FFFFFF" d="M407.04,92.296c-2.965,0-5.965-2.254-5.965-7.3s3-7.341,5.965-7.341c2.963,0,5.959,2.295,5.959,7.341
		S410.002,92.296,407.04,92.296 M407.04,71.657c-7.909,0-13.624,4.901-13.624,13.339c0,8.431,5.715,13.301,13.624,13.301
		c7.899,0,13.614-4.87,13.614-13.301C420.654,76.559,414.939,71.657,407.04,71.657"/>
	<path fill="#1A1719" d="M291.819,85.947c5.859-1.2,10.057-4.901,10.057-9.739c0-3.704-2.432-5.715-5.396-5.715
		c-3.073,0-4.942,2.116-4.942,4.408c0,2.507,1.802,4.837,6.142,4.8c-0.108,2.4-2.575,4.552-6.035,5.54L291.819,85.947z"/>
</g>
<g>
	<path fill="#6E6E6E" d="M0,43.185h49.622v15.85h-30.8v10.537h25.486v14.589H18.822v23.415H0V43.185z"/>
	<path fill="#6E6E6E" d="M49.082,84.701c0-13.958,9.906-24.405,25.216-24.405c15.31,0,25.036,10.447,25.036,24.405
		c0,13.959-9.726,24.315-25.036,24.315C58.988,109.017,49.082,98.66,49.082,84.701z M82.042,84.701
		c0-7.744-2.702-12.968-7.925-12.968c-5.223,0-7.745,5.224-7.745,12.968c0,7.745,2.521,12.969,7.745,12.969
		C79.341,97.67,82.042,92.446,82.042,84.701z"/>
	<path fill="#6E6E6E" d="M119.778,68.581h0.27c3.692-5.764,8.105-7.925,13.959-7.925c1.351,0,2.251,0.18,2.792,0.45v14.499h-0.36
		c-9.997-1.711-15.85,2.792-15.85,13.148v18.822h-17.021v-45.93h16.21V68.581z"/>
	<path fill="#6E6E6E" d="M171.471,107.576v-5.943h-0.271c-3.512,4.772-8.015,7.384-14.319,7.384
		c-10.987,0-16.391-7.204-16.391-17.741V61.646h17.021v25.577c0,4.772,2.071,7.294,6.124,7.294c4.413,0,7.024-3.151,7.024-8.104
		V61.646h17.021v45.93H171.471z"/>
	<path fill="#6E6E6E" d="M193.267,61.646h16.21v6.845h0.27c3.242-5.313,7.655-8.285,14.59-8.285c6.124,0,10.717,2.972,13.059,8.015
		h0.27c3.963-6.123,9.096-8.015,15.04-8.015c11.257,0,16.12,7.925,16.12,18.462v28.908h-17.021V81.819
		c0-4.683-1.531-7.744-5.854-7.744c-4.232,0-6.394,3.782-6.394,8.735v24.766h-17.021V81.819c0-4.683-1.531-7.744-5.854-7.744
		c-4.232,0-6.394,3.782-6.394,8.735v24.766h-17.021V61.646z"/>
</g>
<g>
	<path fill="#BBBCBC" d="M139.913,49.326c0-4.653,2.676-7.853,6.631-7.853c2.123,0,3.17,0.785,4.129,2.036h0.087v-7.533h5.497
		v20.795h-5.235v-2.065h-0.058c-0.959,1.658-2.53,2.56-4.362,2.56C142.763,57.266,139.913,54.444,139.913,49.326z M150.907,49.238
		c0-2.123-1.105-3.81-2.734-3.81c-1.6,0-2.676,1.541-2.676,3.81s1.047,3.868,2.676,3.868
		C149.802,53.106,150.907,51.391,150.907,49.238z"/>
	<path fill="#BBBCBC" d="M157.628,49.326c0-4.479,3.229-7.882,7.911-7.882c2.327,0,4.101,0.756,5.468,2.007
		c1.803,1.657,2.646,4.305,2.588,7.241h-10.586c0.32,1.717,1.251,2.764,2.909,2.764c0.959,0,1.658-0.378,2.065-1.105h5.322
		c-0.32,1.338-1.367,2.646-2.821,3.577c-1.367,0.873-2.85,1.251-4.741,1.251C160.886,57.179,157.628,53.863,157.628,49.326z
		 M163.009,47.784h5.119c-0.232-1.657-1.163-2.646-2.472-2.646C164.143,45.138,163.3,46.156,163.009,47.784z"/>
	<path fill="#BBBCBC" d="M174.035,51.973h5.264c0.087,1.222,0.843,1.948,2.239,1.948c1.076,0,1.891-0.378,1.891-1.279
		c0-1.222-1.716-1.367-3.635-1.658c-2.501-0.378-5.38-1.047-5.38-4.77c0-3.054,3.112-4.74,6.747-4.74
		c4.508,0,6.864,1.687,7.067,4.595h-5.177c-0.146-1.104-0.96-1.338-1.861-1.338c-0.814,0-1.571,0.32-1.571,1.076
		c0,0.844,1.367,1.019,3.054,1.251c2.705,0.378,6.137,0.988,6.137,5.118c0,3.549-3.228,5.09-7.3,5.09
		C177.118,57.266,174.064,55.375,174.035,51.973z"/>
</g>

</svg>

